<svg width="507" height="500" viewBox="0 0 507 500" fill="none" xmlns="http://www.w3.org/2000/svg">
<g clip-path="url(#clip0_727_164)">
<mask id="mask0_727_164" style="mask-type:luminance" maskUnits="userSpaceOnUse" x="0" y="0" width="507" height="500">
<path d="M0.006073 0H506.289V500H0.006073V0Z" fill="white"/>
</mask>
<g mask="url(#mask0_727_164)">
<path d="M382.77 38.5535C382.759 52.1088 393.768 63.0953 407.346 63.1065C420.923 63.1176 431.943 52.131 431.954 38.5868C431.965 25.0316 420.956 14.045 407.379 14.045C393.79 14.0227 382.77 25.0093 382.77 38.5535Z" fill="#F5F5F5"/>
<path d="M388.62 38.5638C388.62 48.8943 397.004 57.2676 407.357 57.2676C417.71 57.2676 426.105 48.9054 426.105 38.5749C426.105 28.2444 417.721 19.8711 407.368 19.8711C397.016 19.8711 388.62 28.2333 388.62 38.5638Z" fill="#EBEBEB"/>
<path d="M388.618 37.975C388.73 37.975 388.807 37.1522 389.119 35.7177C389.43 34.2943 389.997 32.226 391.287 29.9798C391.932 28.8566 392.744 27.689 393.767 26.577C394.801 25.465 396.024 24.3975 397.459 23.4857C398.17 23.0298 398.938 22.6072 399.75 22.2402C400.561 21.8733 401.406 21.5508 402.296 21.3062C403.186 21.0615 404.097 20.8502 405.043 20.739C405.988 20.6278 406.955 20.5722 407.934 20.6056C408.912 20.639 409.869 20.7502 410.814 20.9281C411.748 21.106 412.649 21.3618 413.527 21.662C414.395 21.9622 415.229 22.3403 416.007 22.7629C416.796 23.1743 417.53 23.6525 418.209 24.1529C419.588 25.1537 420.733 26.299 421.689 27.4778C422.634 28.6565 423.38 29.8686 423.947 31.0362C425.081 33.3714 425.526 35.4619 425.737 36.9075C425.948 38.3642 425.97 39.1871 426.093 39.1871C426.182 39.1871 426.337 38.3642 426.293 36.8519C426.237 35.3507 425.948 33.1267 424.87 30.6136C424.325 29.357 423.591 28.0449 422.623 26.755C421.645 25.4762 420.444 24.2085 418.998 23.1076C418.275 22.5516 417.497 22.029 416.663 21.573C415.829 21.1171 414.939 20.6946 414.005 20.361C413.071 20.0274 412.093 19.7382 411.092 19.5381C410.08 19.349 409.046 19.2267 407.989 19.1822C406.933 19.16 405.888 19.2045 404.876 19.3379C403.853 19.4602 402.863 19.6938 401.907 19.9718C400.95 20.2498 400.039 20.6056 399.182 21.017C398.315 21.4174 397.503 21.8955 396.747 22.3959C395.224 23.4078 393.945 24.5866 392.888 25.8098C391.843 27.033 391.02 28.3118 390.398 29.5238C389.152 31.9702 388.718 34.1609 388.574 35.6621C388.429 37.141 388.541 37.975 388.618 37.975Z" fill="#E0E0E0"/>
<path d="M405.233 28.9232L405.189 25.6539L408.102 25.6094L408.147 28.7897C411.038 28.9232 413.818 29.7794 415.441 31.0137L413.896 34.5944C412.417 33.538 410.315 32.7818 408.213 32.615L408.291 37.4856C411.538 38.2195 415.163 39.2425 415.23 43.4125C415.275 46.5039 413.073 49.1838 408.48 49.7843L408.525 53.0202L405.611 53.0647L405.567 49.8844C403.376 49.7398 401.241 49.1949 399.629 48.1941L401.03 44.5913C402.531 45.4141 404.055 45.8923 405.511 46.0369L405.433 41.0773C402.186 40.3656 398.617 39.3426 398.55 35.2393C398.495 32.2036 400.663 29.5459 405.233 28.9232ZM408.336 41.7668L408.402 45.9034C409.937 45.5253 410.537 44.6802 410.526 43.7128C410.515 42.7009 409.626 42.156 408.336 41.7668ZM403.221 34.8168C403.232 35.8398 404.088 36.3736 405.344 36.7961L405.289 32.7707C403.843 33.1154 403.209 33.8827 403.221 34.8168Z" fill="#E0E0E0"/>
<path d="M446.284 158.727C445.083 166.989 450.821 174.673 459.105 175.874C467.39 177.075 475.074 171.359 476.275 163.086C477.476 154.824 471.738 147.14 463.453 145.939C455.169 144.738 447.485 150.465 446.284 158.727Z" fill="#F5F5F5"/>
<path d="M449.853 159.25C448.941 165.544 453.311 171.393 459.627 172.316C465.944 173.239 471.804 168.868 472.716 162.574C473.627 156.281 469.257 150.431 462.941 149.508C456.625 148.586 450.765 152.945 449.853 159.25Z" fill="#EBEBEB"/>
<path d="M449.909 158.894C449.976 158.905 450.098 158.416 450.41 157.559C450.721 156.714 451.255 155.513 452.233 154.246C452.723 153.623 453.323 152.978 454.046 152.389C454.769 151.799 455.614 151.254 456.57 150.832C457.048 150.62 457.549 150.42 458.071 150.276C458.594 150.12 459.139 149.998 459.706 149.931C460.273 149.853 460.851 149.82 461.429 149.831C462.019 149.842 462.608 149.898 463.209 149.998C463.798 150.109 464.376 150.254 464.932 150.443C465.488 150.632 466.011 150.865 466.522 151.132C467.023 151.388 467.501 151.699 467.935 152.022C468.379 152.344 468.78 152.7 469.158 153.067C469.903 153.801 470.515 154.601 470.993 155.402C471.471 156.203 471.816 157.015 472.06 157.771C472.549 159.294 472.627 160.606 472.638 161.507C472.638 162.408 472.583 162.919 472.65 162.93C472.705 162.941 472.872 162.452 472.983 161.529C473.083 160.606 473.105 159.227 472.661 157.593C472.438 156.781 472.116 155.914 471.638 155.035C471.159 154.168 470.537 153.289 469.747 152.489C469.358 152.088 468.924 151.699 468.457 151.343C467.99 150.987 467.49 150.654 466.945 150.365C466.4 150.076 465.833 149.809 465.233 149.609C464.632 149.397 464.009 149.242 463.375 149.119C462.731 149.008 462.097 148.952 461.463 148.941C460.829 148.93 460.206 148.975 459.595 149.064C458.983 149.142 458.405 149.286 457.838 149.464C457.271 149.631 456.737 149.853 456.236 150.087C455.225 150.565 454.335 151.176 453.579 151.821C452.834 152.478 452.222 153.178 451.733 153.868C450.765 155.246 450.298 156.547 450.076 157.448C449.854 158.36 449.854 158.883 449.909 158.894Z" fill="#E0E0E0"/>
<path d="M458.994 167.534L458.671 169.524L460.451 169.802L460.762 167.868C462.53 168.046 464.309 167.768 465.41 167.156L464.776 164.832C463.787 165.343 462.43 165.621 461.129 165.544L461.607 162.586C463.653 162.419 465.955 162.119 466.366 159.583C466.667 157.704 465.555 155.869 462.808 155.102L463.119 153.134L461.34 152.844L461.029 154.779C459.683 154.668 458.327 154.824 457.259 155.28L457.793 157.604C458.783 157.237 459.75 157.081 460.651 157.115L460.173 160.128C458.127 160.273 455.858 160.584 455.458 163.086C455.169 164.943 456.269 166.756 458.994 167.534ZM462.03 159.984L462.43 157.47C463.331 157.837 463.631 158.404 463.531 158.994C463.431 159.605 462.841 159.861 462.03 159.984ZM458.293 163.764C458.393 163.142 458.961 162.886 459.772 162.741L459.383 165.188C458.516 164.854 458.193 164.331 458.293 163.764Z" fill="#E0E0E0"/>
<path d="M58.3896 304.989L63.5936 331.778L23.8465 339.499L18.6426 312.71L58.3896 304.989Z" fill="#EBEBEB"/>
<path d="M18.6231 313.073C18.612 313.084 18.7677 313.184 19.0568 313.362C19.3793 313.551 19.813 313.807 20.3467 314.118C21.5143 314.774 23.149 315.708 25.1506 316.831C29.2539 319.111 34.8695 322.236 41.0855 325.705L41.219 325.783L41.319 325.672C41.3969 325.583 41.4748 325.494 41.5526 325.394C46.2008 319.9 50.4152 314.919 53.4955 311.282C54.9856 309.492 56.2088 308.024 57.0872 306.979C57.4876 306.49 57.81 306.089 58.0435 305.8C58.2548 305.522 58.366 305.378 58.3549 305.366C58.3438 305.355 58.2215 305.489 57.988 305.745C57.7322 306.034 57.3986 306.412 56.976 306.879C56.0864 307.902 54.8299 309.347 53.2953 311.104C50.1928 314.73 45.9561 319.678 41.2746 325.149C41.1968 325.249 41.1078 325.338 41.041 325.427L41.2746 325.383C35.0363 321.958 29.3984 318.866 25.284 316.609C23.2602 315.519 21.6144 314.629 20.4246 313.996C19.8686 313.707 19.4349 313.473 19.1013 313.306C18.7899 313.139 18.6231 313.062 18.6231 313.073Z" fill="#E0E0E0"/>
<path d="M63.5575 332.132C63.6242 332.055 59.9213 328.963 55.2953 325.227C50.6694 321.491 46.8553 318.533 46.7997 318.611C46.733 318.688 50.4359 321.78 55.0618 325.516C59.6878 329.252 63.5019 332.221 63.5575 332.132Z" fill="#E0E0E0"/>
<path d="M33.5247 320.846C33.4358 320.801 31.1895 325.016 28.5096 330.264C25.8297 335.513 23.728 339.805 23.8281 339.85C23.917 339.894 26.1633 335.68 28.8432 330.431C31.512 325.182 33.6137 320.89 33.5247 320.846Z" fill="#E0E0E0"/>
<path d="M142.362 29.8597C142.418 29.8597 142.485 29.2259 142.563 28.0471C142.585 27.4578 142.64 26.7239 142.807 25.8676C142.941 25.0114 143.063 24.0217 143.374 22.9431C143.852 20.7524 144.842 18.1615 146.41 15.4148C147.989 12.6793 150.28 9.81033 153.405 7.35281C156.529 4.91753 160.466 2.82697 165.047 1.92624C169.595 1.04776 174.744 1.08112 179.681 2.83809C182.161 3.63873 184.574 4.88417 186.787 6.46321C187.932 7.20825 188.944 8.16457 190 9.06529C190.957 10.0772 191.958 11.0669 192.792 12.2234C196.317 16.6825 198.374 22.476 198.574 28.4808C198.663 34.4967 196.884 40.3792 193.592 45.0051C192.814 46.195 191.858 47.2403 190.957 48.2967C189.945 49.253 188.989 50.2538 187.877 51.0544C185.73 52.7447 183.395 54.1013 180.949 55.0243C176.1 57.0148 170.952 57.3039 166.37 56.6478C161.756 55.9695 157.708 54.0679 154.472 51.7883C151.225 49.4865 148.801 46.7399 147.088 44.0711C145.387 41.4023 144.275 38.8669 143.686 36.6985C143.319 35.631 143.152 34.6524 142.974 33.8073C142.774 32.9622 142.685 32.2394 142.629 31.65C142.518 30.4824 142.418 29.8597 142.362 29.8597C142.307 29.8597 142.307 30.4824 142.34 31.6834C142.34 32.2839 142.385 33.0289 142.54 33.8963C142.674 34.7636 142.796 35.7755 143.13 36.8764C143.641 39.1115 144.698 41.747 146.377 44.5492C148.067 47.3403 150.513 50.2427 153.849 52.6891C157.163 55.1132 161.366 57.1593 166.193 57.9377C170.985 58.6828 176.378 58.4381 181.505 56.3809C184.085 55.4246 186.564 54.0123 188.822 52.2443C189.989 51.3991 191.012 50.365 192.08 49.3531C193.047 48.2411 194.048 47.1513 194.871 45.8947C198.374 41.0242 200.264 34.797 200.164 28.4475C199.953 22.0979 197.762 15.9819 194.026 11.2893C193.147 10.0772 192.08 9.03193 191.068 7.97553C189.956 7.01921 188.888 6.02953 187.676 5.24001C185.33 3.58313 182.784 2.2932 180.17 1.47032C174.955 -0.331116 169.551 -0.319996 164.803 0.658565C160.021 1.65936 155.929 3.90561 152.737 6.49657C149.524 9.10977 147.222 12.1233 145.665 14.9923C144.119 17.8723 143.196 20.5634 142.796 22.8096C142.518 23.9216 142.44 24.9447 142.351 25.812C142.24 26.6905 142.229 27.4244 142.251 28.036C142.273 29.237 142.307 29.8597 142.362 29.8597Z" fill="#EBEBEB"/>
<path d="M148.066 12.0451C147.999 12.1341 148.521 12.5789 149.511 13.3239C150.056 13.7131 150.668 14.1468 151.346 14.6361C151.713 14.8807 152.091 15.1698 152.514 15.4367C152.958 15.6702 153.425 15.9149 153.915 16.1706C157.729 18.3724 163.778 20.6298 170.684 20.3963C171.54 20.3629 172.385 20.3184 173.219 20.2851C174.042 20.1516 174.854 20.0293 175.654 19.907C176.055 19.8403 176.455 19.7847 176.833 19.7068C177.211 19.6067 177.589 19.5067 177.967 19.4066C178.712 19.1953 179.457 19.0285 180.158 18.795C182.96 17.8164 185.373 16.6822 187.275 15.5146C191.1 13.2016 192.957 11.0999 192.812 10.9665C192.657 10.7886 190.577 12.5455 186.73 14.5471C184.817 15.559 182.438 16.5487 179.724 17.4161C179.046 17.6163 178.323 17.7608 177.611 17.9498C177.256 18.0388 176.889 18.1278 176.522 18.2167C176.144 18.2723 175.766 18.3279 175.387 18.3835C174.62 18.4947 173.853 18.6059 173.063 18.7283C172.263 18.7616 171.462 18.795 170.639 18.8283C164.078 19.0507 158.263 17.0825 154.404 15.181C153.915 14.9697 153.437 14.7584 152.981 14.5694C152.547 14.347 152.158 14.1023 151.78 13.891C151.057 13.4907 150.412 13.1349 149.834 12.8235C148.755 12.2342 148.121 11.9562 148.066 12.0451Z" fill="#EBEBEB"/>
<path d="M193.682 46.7174C193.749 46.6284 193.226 46.1836 192.236 45.4386C191.691 45.0494 191.08 44.6157 190.401 44.1264C190.034 43.8818 189.656 43.5927 189.234 43.3258C188.789 43.0923 188.322 42.8476 187.833 42.5919C184.019 40.3901 177.969 38.1328 171.064 38.3663C170.207 38.3996 169.362 38.4441 168.528 38.4775C167.705 38.6109 166.894 38.7332 166.093 38.8556C165.693 38.9223 165.292 38.9779 164.914 39.0557C164.536 39.1558 164.158 39.2559 163.78 39.356C163.035 39.5672 162.29 39.734 161.589 39.9676C158.787 40.935 156.374 42.0804 154.473 43.248C150.647 45.5609 148.79 47.6626 148.935 47.796C149.091 47.974 151.17 46.217 155.018 44.2154C156.93 43.2035 159.31 42.2138 162.023 41.3464C162.701 41.1463 163.424 41.0017 164.136 40.8127C164.492 40.7237 164.859 40.6348 165.226 40.5458C165.604 40.4902 165.982 40.4346 166.36 40.379C167.127 40.2678 167.895 40.1566 168.684 40.0343C169.485 40.0009 170.285 39.9676 171.108 39.9342C177.669 39.7118 183.485 41.68 187.343 43.5816C187.833 43.7928 188.311 44.0041 188.767 44.1932C189.2 44.4156 189.59 44.6602 189.968 44.8715C190.691 45.2718 191.335 45.6277 191.914 45.939C192.992 46.5284 193.626 46.8064 193.682 46.7174Z" fill="#EBEBEB"/>
<path d="M142.374 30.5273C142.386 30.961 155.162 31.0054 170.897 30.6162C186.643 30.2382 199.398 29.571 199.387 29.1373C199.376 28.7036 186.61 28.6591 170.853 29.0483C155.118 29.4375 142.363 30.0936 142.374 30.5273Z" fill="#EBEBEB"/>
<path d="M172.196 57.6482C172.629 57.6371 172.674 44.8713 172.285 29.1365C171.907 13.3906 171.239 0.64709 170.806 0.65821C170.372 0.66933 170.328 13.4351 170.717 29.181C171.106 44.9158 171.762 57.6593 172.196 57.6482Z" fill="#EBEBEB"/>
<path d="M172.197 57.6154C172.308 57.7822 175.444 55.6472 179.069 50.8322C180.859 48.4192 182.738 45.3278 184.162 41.5804C185.574 37.844 186.464 33.4405 186.363 28.8035C186.286 24.1553 185.107 19.7963 183.483 16.16C181.86 12.5015 179.814 9.5103 177.912 7.18622C174.076 2.54918 170.907 0.491978 170.795 0.658778C170.64 0.836698 173.509 3.1719 177.034 7.87566C178.78 10.2219 180.659 13.191 182.149 16.7383C183.639 20.2744 184.707 24.4222 184.784 28.8368C184.873 33.2626 184.073 37.466 182.794 41.0911C181.504 44.7162 179.78 47.7742 178.146 50.1984C174.865 55.0467 172.041 57.4375 172.197 57.6154Z" fill="#EBEBEB"/>
<path d="M170.175 0.658461C170.064 0.491661 166.928 2.6267 163.303 7.44167C161.512 9.85471 159.633 12.9461 158.21 16.6935C156.798 20.4299 155.908 24.8334 156.008 29.4704C156.086 34.1186 157.265 38.4776 158.888 42.1139C160.512 45.7724 162.558 48.7636 164.459 51.0766C168.296 55.7136 171.465 57.7708 171.576 57.604C171.732 57.4261 168.863 55.0909 165.338 50.3872C163.592 48.0408 161.713 45.0718 160.222 41.5245C158.732 37.9883 157.665 33.8406 157.587 29.4259C157.498 25.0002 158.299 20.7968 159.578 17.1717C160.867 13.5466 162.591 10.4886 164.226 8.06439C167.506 3.22719 170.342 0.836382 170.175 0.658461Z" fill="#EBEBEB"/>
<path d="M447.776 350.013L446.364 346.878C443.884 341.184 446.508 334.534 452.202 332.055C457.895 329.575 464.545 332.199 467.025 337.881L468.47 341.073C471.439 340.272 474.619 341.74 475.887 344.642L483.971 363.224C485.361 366.415 483.894 370.129 480.702 371.519L461.42 379.904C458.229 381.294 454.515 379.826 453.125 376.635L445.04 358.053C443.717 355.04 444.951 351.559 447.776 350.013ZM463.889 366.438L468.937 364.247L466.569 360.944C467.202 360.021 467.369 358.798 466.891 357.697C466.157 355.996 464.178 355.218 462.476 355.963C460.775 356.696 459.997 358.676 460.742 360.377C461.209 361.445 462.154 362.145 463.21 362.334C463.455 363.902 463.889 366.438 463.889 366.438ZM450 349.013L466.213 341.962L464.812 338.86C462.866 334.39 457.65 332.333 453.18 334.279C448.71 336.225 446.653 341.44 448.588 345.899L450 349.013Z" fill="#EBEBEB"/>
<path d="M53.3384 147.285C53.3273 151.666 56.8745 155.213 61.2558 155.224C65.6371 155.235 69.1844 151.688 69.1955 147.307C69.2066 142.925 65.6593 139.378 61.278 139.367C56.8968 139.367 53.3384 142.914 53.3384 147.285Z" fill="#EBEBEB"/>
<path d="M32.0055 134.968C30.0276 131.062 31.5913 126.291 35.498 124.313C39.4048 122.335 44.1753 123.899 46.1532 127.806C48.1312 131.713 46.5675 136.483 42.6607 138.461C38.7539 140.439 33.9834 138.875 32.0055 134.968Z" fill="#EBEBEB"/>
<path d="M39.0162 173.639C34.6373 173.633 31.093 169.765 31.0996 164.999C31.1063 160.233 34.6614 156.375 39.0402 156.381C43.419 156.387 46.9634 160.255 46.9567 165.021C46.9501 169.787 43.395 173.645 39.0162 173.639Z" fill="#EBEBEB"/>
<path d="M41.3732 163.998C41.7068 164.498 46.9888 161.507 53.1492 157.315C59.3097 153.123 64.0357 149.319 63.7021 148.819C63.3685 148.319 58.0865 151.31 51.926 155.502C45.7544 159.694 41.0284 163.497 41.3732 163.998Z" fill="#EBEBEB"/>
<path d="M40.7393 130.86C40.3724 131.338 44.4423 135.108 49.8355 139.289C55.2287 143.47 59.8991 146.462 60.2661 145.983C60.633 145.505 56.5631 141.736 51.1699 137.554C45.7767 133.384 41.1063 130.382 40.7393 130.86Z" fill="#EBEBEB"/>
<path d="M55.2388 96.6774L56.5843 96.8108C67.9045 97.9006 77.8235 104.973 82.0603 115.415C82.6051 116.76 83.0499 118.139 83.3947 119.551C85.8633 129.715 82.7608 141.091 75.4438 148.708C71.1404 153.189 65.358 156.648 62.9783 162.363C59.887 169.803 63.6678 178.076 67.3596 185.17C71.0514 192.265 74.8211 200.56 71.6853 207.989C69.7282 212.637 65.3358 215.928 60.6542 217.885C48.2554 223.067 33.3991 219.854 22.8573 211.736C12.3267 203.618 5.7659 191.242 2.47438 178.376C-2.12931 160.362 -0.561378 140.368 8.94623 124.21C18.4872 108.064 36.4682 96.4772 55.2388 96.6774Z" fill="#F5F5F5"/>
<path d="M451.166 115.059L450.054 115.337C440.69 117.705 433.273 124.922 431.049 134.23C430.76 135.431 430.56 136.643 430.46 137.877C429.693 146.728 433.763 155.88 440.891 161.34C445.083 164.554 450.376 166.711 453.112 171.204C456.67 177.053 454.557 184.492 452.366 190.919C450.176 197.358 448.085 204.797 451.666 210.635C453.912 214.294 458.015 216.484 462.197 217.53C473.272 220.287 485.337 215.684 493.144 207.51C500.939 199.337 504.864 188.106 505.965 176.886C507.511 161.173 503.63 144.582 493.566 132.239C483.491 119.896 466.9 112.479 451.166 115.059Z" fill="#F5F5F5"/>
<path d="M171.592 50.4853C160.108 50.4853 150.798 41.1753 150.798 29.6909C150.798 18.2064 160.108 8.89648 171.592 8.89648C183.077 8.89648 192.387 18.2064 192.387 29.6909C192.387 41.1753 183.077 50.4853 171.592 50.4853Z" fill="#F5F5F5"/>
<path d="M443.058 361.745C440.517 350.546 447.537 339.407 458.737 336.867C469.936 334.327 481.075 341.346 483.615 352.546C486.155 363.746 479.136 374.884 467.936 377.424C456.736 379.965 445.598 372.945 443.058 361.745Z" fill="#F5F5F5"/>
<path d="M36.7451 499.666C36.7451 499.822 136.458 499.955 259.445 499.955C382.466 499.955 482.168 499.822 482.168 499.666C482.168 499.511 382.466 499.377 259.445 499.377C136.458 499.377 36.7451 499.511 36.7451 499.666Z" fill="#263238"/>
<path d="M97.7725 76.0606C97.6724 76.1829 111.517 87.6143 128.708 101.592C145.9 115.57 159.911 126.801 160.011 126.679C160.111 126.557 146.267 115.125 129.075 101.136C111.884 87.1694 97.8726 75.9382 97.7725 76.0606Z" fill="#263238"/>
<path d="M74.9562 262.755C75.0118 262.91 92.9372 256.483 114.988 248.421C137.05 240.348 154.876 233.687 154.82 233.542C154.765 233.398 136.85 239.814 114.788 247.876C92.7371 255.938 74.9006 262.599 74.9562 262.755Z" fill="#263238"/>
<path d="M446.086 108.743C446.008 108.598 426.704 118.795 402.962 131.505C379.21 144.215 360.028 154.635 360.106 154.779C360.184 154.924 379.488 144.727 403.24 132.017C426.97 119.307 446.164 108.887 446.086 108.743Z" fill="#263238"/>
<path d="M439.125 273.83C439.18 273.686 423.312 267.592 403.697 260.219C384.07 252.847 368.112 246.998 368.057 247.153C368.001 247.309 383.858 253.392 403.496 260.764C423.112 268.126 439.069 273.975 439.125 273.83Z" fill="#263238"/>
<path d="M250.94 307.235C304.172 307.235 347.484 263.922 347.484 210.691C347.484 157.459 304.183 114.147 250.94 114.147C197.709 114.147 154.397 157.459 154.397 210.691C154.397 263.933 197.709 307.235 250.94 307.235ZM250.94 115.27C303.56 115.27 346.372 158.082 346.372 210.702C346.372 263.322 303.56 306.134 250.94 306.134C198.321 306.134 155.509 263.322 155.509 210.702C155.509 158.082 198.321 115.27 250.94 115.27Z" fill="#2861F0"/>
<path d="M128.887 209.323C128.887 209.323 128.921 208.656 128.965 207.344C128.987 206.688 129.01 205.876 129.043 204.908C129.065 203.941 129.099 202.818 129.221 201.539C129.321 200.271 129.432 198.848 129.554 197.269C129.71 195.701 129.966 194 130.199 192.143C130.722 188.451 131.523 184.214 132.679 179.51C133.925 174.829 135.437 169.647 137.683 164.187C139.885 158.727 142.598 152.9 146.168 147.007C153.218 135.219 163.337 122.887 177.137 112.379C183.998 107.108 191.815 102.371 200.411 98.4679C209.007 94.5648 218.403 91.4289 228.422 89.6275C238.43 87.7816 249.017 87.0477 259.825 87.8928C265.241 88.2153 270.678 89.0937 276.15 90.1724C281.598 91.34 287.036 92.8968 292.429 94.8205C313.913 102.593 334.329 117.127 349.041 137.277C352.766 142.269 356.025 147.663 358.971 153.256C359.672 154.679 360.461 156.058 361.095 157.515C361.751 158.961 362.407 160.417 363.063 161.863C364.242 164.832 365.454 167.79 366.422 170.859C368.423 176.964 370.069 183.247 371.059 189.696C372.071 196.135 372.604 202.684 372.649 209.29C372.604 215.895 372.071 222.445 371.059 228.894C370.069 235.344 368.423 241.627 366.422 247.732C365.454 250.801 364.242 253.77 363.063 256.728C362.407 258.184 361.751 259.63 361.095 261.076C360.473 262.532 359.672 263.911 358.971 265.335C356.025 270.939 352.766 276.332 349.041 281.325C334.329 301.486 313.913 316.02 292.418 323.792C287.025 325.705 281.587 327.273 276.138 328.441C270.678 329.519 265.23 330.398 259.814 330.72C248.994 331.565 238.408 330.831 228.411 328.985C218.392 327.184 208.996 324.037 200.4 320.134C191.793 316.22 183.987 311.494 177.126 306.223C163.337 295.703 153.218 283.371 146.168 271.584C142.598 265.701 139.885 259.875 137.683 254.415C135.437 248.966 133.925 243.773 132.679 239.102C131.523 234.399 130.722 230.162 130.199 226.47C129.966 224.624 129.721 222.912 129.554 221.344C129.432 219.776 129.321 218.353 129.221 217.074C129.099 215.806 129.065 214.683 129.043 213.704C129.01 212.737 128.987 211.925 128.965 211.269C128.921 209.99 128.887 209.323 128.887 209.323C128.887 209.323 128.887 209.99 128.91 211.302C128.921 211.958 128.943 212.77 128.954 213.738C128.965 214.705 128.987 215.828 129.099 217.107C129.187 218.386 129.299 219.809 129.41 221.377C129.566 222.945 129.81 224.658 130.022 226.503C130.522 230.206 131.311 234.443 132.457 239.169C133.68 243.862 135.181 249.066 137.416 254.537C139.607 260.019 142.32 265.868 145.879 271.773C152.929 283.605 163.048 295.992 176.87 306.568C183.753 311.872 191.582 316.631 200.211 320.568C208.84 324.493 218.27 327.662 228.322 329.486C238.364 331.354 248.994 332.088 259.859 331.254C265.296 330.931 270.767 330.053 276.25 328.974C281.732 327.807 287.192 326.239 292.607 324.326C314.191 316.531 334.719 301.942 349.508 281.692C353.256 276.677 356.525 271.261 359.483 265.635C360.183 264.211 360.984 262.821 361.618 261.354C362.274 259.897 362.93 258.44 363.597 256.983C364.776 254.003 365.999 251.023 366.978 247.943C368.979 241.805 370.636 235.488 371.637 229.017C372.66 222.545 373.194 215.962 373.238 209.323C373.194 202.696 372.66 196.101 371.637 189.641C370.647 183.169 368.979 176.853 366.978 170.714C365.999 167.634 364.787 164.654 363.597 161.674C362.941 160.217 362.274 158.76 361.618 157.304C360.984 155.836 360.195 154.457 359.483 153.022C356.525 147.396 353.245 141.98 349.508 136.965C334.719 116.727 314.202 102.137 292.618 94.3424C287.203 92.4186 281.743 90.8618 276.261 89.6942C270.767 88.6156 265.307 87.7371 259.87 87.4146C249.006 86.5806 238.375 87.3145 228.345 89.1827C218.281 91.0064 208.851 94.1645 200.233 98.0898C191.604 102.026 183.776 106.785 176.892 112.079C163.07 122.654 152.94 135.041 145.901 146.873C142.331 152.778 139.629 158.627 137.439 164.109C135.203 169.58 133.702 174.784 132.479 179.477C131.334 184.192 130.544 188.44 130.044 192.143C129.821 194 129.577 195.701 129.432 197.28C129.321 198.848 129.21 200.282 129.121 201.55C129.01 202.818 128.987 203.952 128.976 204.92C128.954 205.887 128.943 206.699 128.932 207.355C128.887 208.645 128.887 209.323 128.887 209.323Z" fill="#263238"/>
<path d="M249.483 348.101V346.989C172.021 346.989 109.004 283.972 109.004 206.51C109.004 129.048 172.021 66.0309 249.483 66.0309C326.945 66.0309 389.962 129.048 389.962 206.51H391.074C391.074 128.436 327.557 64.9189 249.483 64.9189C171.41 64.9189 107.892 128.436 107.892 206.51C107.881 284.583 171.398 348.101 249.483 348.101Z" fill="#2861F0"/>
<path d="M250.918 334.134V328.574C185.165 328.574 131.667 275.076 131.667 209.323C131.667 143.559 185.165 90.0717 250.918 90.0717V84.5117C182.096 84.5117 126.107 140.501 126.107 209.323C126.107 278.145 182.096 334.134 250.918 334.134Z" fill="#2861F0"/>
<path d="M105.655 206.51H111.215C111.215 130.271 173.242 68.2543 249.47 68.2543C325.709 68.2543 387.725 130.282 387.725 206.51H393.285C393.285 127.213 328.767 62.6943 249.47 62.6943C170.173 62.6943 105.655 127.213 105.655 206.51Z" fill="#2861F0"/>
<path d="M248.405 369.462C336.765 369.462 408.645 297.583 408.645 209.223C408.645 120.863 336.765 48.9834 248.405 48.9834V54.5434C333.696 54.5434 403.085 123.932 403.085 209.223C403.085 294.513 333.696 363.902 248.405 363.902C163.115 363.902 93.726 294.513 93.726 209.223H88.166C88.166 297.583 160.046 369.462 248.405 369.462Z" fill="#2861F0"/>
<path d="M250.939 388.277C251.873 388.277 252.796 388.266 253.73 388.255L253.708 387.143C252.785 387.154 251.862 387.165 250.939 387.165V388.277Z" fill="#A6C400"/>
<path d="M264.984 387.721C266.841 387.577 268.731 387.399 270.588 387.199L270.466 386.098C268.609 386.298 266.741 386.476 264.895 386.62L264.984 387.721ZM281.753 385.609C283.61 385.286 285.478 384.93 287.291 384.552L287.068 383.462C285.267 383.84 283.421 384.196 281.575 384.519L281.753 385.609ZM298.233 381.906C300.034 381.405 301.847 380.871 303.637 380.327L303.303 379.27C301.524 379.826 299.712 380.349 297.933 380.849L298.233 381.906ZM314.301 376.635C316.058 375.968 317.815 375.256 319.55 374.533L319.116 373.51C317.404 374.233 315.647 374.933 313.901 375.601L314.301 376.635ZM329.802 369.84C331.482 369.006 333.172 368.139 334.818 367.249L334.295 366.271C332.66 367.149 330.981 368.017 329.313 368.851L329.802 369.84ZM344.581 361.6C346.182 360.611 347.772 359.577 349.329 358.542L348.706 357.619C347.161 358.654 345.582 359.666 343.992 360.655L344.581 361.6ZM358.503 352.004C359.993 350.87 361.483 349.702 362.929 348.512L362.228 347.645C360.783 348.824 359.304 349.991 357.825 351.114L358.503 352.004ZM371.436 341.129C372.826 339.85 374.194 338.538 375.517 337.236L374.738 336.447C373.426 337.737 372.058 339.038 370.691 340.317L371.436 341.129ZM383.29 329.086C384.535 327.684 385.781 326.261 386.982 324.827L386.125 324.115C384.935 325.527 383.701 326.95 382.456 328.34L383.29 329.086ZM393.954 315.975C395.066 314.463 396.167 312.917 397.223 311.394L396.311 310.76C395.266 312.272 394.176 313.807 393.064 315.319L393.954 315.975ZM403.317 301.93C404.273 300.34 405.218 298.695 406.13 297.06L405.163 296.515C404.251 298.139 403.317 299.762 402.36 301.352L403.317 301.93ZM411.301 287.063C412.113 285.373 412.891 283.649 413.636 281.948L412.613 281.503C411.879 283.193 411.09 284.895 410.289 286.585L411.301 287.063ZM417.828 271.506C418.473 269.749 419.085 267.959 419.674 266.18L418.618 265.835C418.04 267.603 417.417 269.382 416.783 271.128L417.828 271.506ZM422.844 255.371C423.311 253.558 423.755 251.713 424.167 249.9L423.077 249.655C422.666 251.468 422.232 253.292 421.765 255.093L422.844 255.371ZM426.291 238.836C426.58 237.001 426.847 235.121 427.091 233.253L425.99 233.109C425.757 234.955 425.49 236.823 425.201 238.647L426.291 238.836ZM428.159 222.044C428.281 220.187 428.37 218.297 428.426 216.418L427.314 216.384C427.258 218.252 427.169 220.132 427.047 221.978L428.159 222.044ZM427.314 205.175L428.426 205.142C428.37 203.263 428.281 201.372 428.159 199.515L427.047 199.582C427.169 201.439 427.258 203.318 427.314 205.175ZM426.002 188.44L427.102 188.306C426.869 186.449 426.602 184.57 426.313 182.724L425.212 182.902C425.512 184.726 425.779 186.594 426.002 188.44ZM423.122 171.904L424.211 171.66C423.8 169.836 423.355 167.99 422.888 166.177L421.809 166.455C422.265 168.257 422.71 170.092 423.122 171.904ZM418.662 155.713L419.719 155.369C419.141 153.59 418.518 151.799 417.873 150.031L416.828 150.409C417.461 152.166 418.084 153.945 418.662 155.713ZM412.658 140.001L413.681 139.556C412.936 137.844 412.146 136.12 411.334 134.419L410.334 134.897C411.134 136.576 411.924 138.3 412.658 140.001ZM405.185 124.933L406.152 124.388C405.241 122.754 404.284 121.108 403.328 119.507L402.372 120.074C403.339 121.675 404.284 123.31 405.185 124.933ZM396.322 110.655L397.234 110.021C396.178 108.487 395.077 106.941 393.965 105.429L393.075 106.085C394.176 107.597 395.266 109.132 396.322 110.655ZM386.136 97.2887L386.993 96.577C385.792 95.1425 384.546 93.708 383.301 92.318L382.467 93.0631C383.712 94.442 384.947 95.8653 386.136 97.2887ZM374.738 84.9566L375.517 84.1671C374.194 82.866 372.815 81.5539 371.436 80.2751L370.68 81.0868C372.058 82.3545 373.426 83.6556 374.738 84.9566ZM362.24 73.7588L362.94 72.8914C361.494 71.7127 360.004 70.5339 358.514 69.4108L357.836 70.2893C359.315 71.4124 360.794 72.58 362.24 73.7588ZM348.729 63.7952L349.34 62.8723C347.795 61.8381 346.204 60.8151 344.614 59.8254L344.025 60.7706C345.615 61.7491 347.194 62.7722 348.729 63.7952ZM334.351 55.155L334.873 54.1764C333.227 53.2868 331.537 52.4195 329.88 51.5966L329.38 52.5974C331.037 53.4091 332.705 54.2765 334.351 55.155ZM319.216 47.9381L319.65 46.9151C317.926 46.1923 316.169 45.4917 314.435 44.8245L314.034 45.8587C315.758 46.5147 317.504 47.2153 319.216 47.9381ZM303.459 42.189L303.793 41.1215C302.002 40.5655 300.19 40.0318 298.388 39.5314L298.088 40.5989C299.879 41.0993 301.691 41.633 303.459 42.189ZM287.213 37.9634L287.446 36.8737C285.612 36.4845 283.754 36.1286 281.909 35.8062L281.72 36.907C283.543 37.2295 285.389 37.5854 287.213 37.9634ZM270.633 35.328L270.755 34.2271C268.898 34.0158 267.008 33.8379 265.151 33.6934L265.062 34.8054C266.908 34.9388 268.787 35.1167 270.633 35.328Z" fill="#2861F0"/>
<path d="M253.708 34.2613L253.73 33.1493C252.808 33.1381 251.873 33.127 250.939 33.127V34.239C251.862 34.239 252.785 34.239 253.708 34.2613Z" fill="#A6C400"/>
<path d="M17.7535 246.19L78.301 247.456L77.4478 288.269L16.9004 287.004L17.7535 246.19Z" fill="#2861F0"/>
<path d="M17.5649 246.675C17.5538 246.686 17.7429 246.875 18.1209 247.231C18.5435 247.609 19.0884 248.11 19.7778 248.743C21.279 250.078 23.3696 251.946 25.9383 254.237C31.2203 258.874 38.4372 265.212 46.4436 272.24L46.6104 272.385L46.7883 272.251C46.9218 272.151 47.0774 272.029 47.222 271.918C55.7622 265.346 63.4906 259.408 69.1395 255.06C71.8973 252.913 74.1324 251.156 75.7448 249.9C76.4787 249.311 77.0792 248.832 77.524 248.477C77.9243 248.143 78.1356 247.965 78.1245 247.954C78.1134 247.943 77.8798 248.087 77.4573 248.388C76.9902 248.721 76.3787 249.177 75.6114 249.733C73.9767 250.956 71.6971 252.658 68.906 254.759C63.2348 259.074 55.473 264.979 46.8884 271.495C46.7438 271.606 46.5882 271.717 46.4547 271.829L46.7994 271.84C38.7597 264.867 31.4983 258.562 26.1941 253.959C23.5809 251.724 21.4458 249.9 19.9224 248.599C19.2107 247.998 18.6325 247.531 18.1988 247.164C17.7873 246.82 17.5761 246.664 17.5649 246.675Z" fill="#263238"/>
<path d="M77.2593 288.753C77.3817 288.653 72.9448 282.971 67.3514 276.043C61.7581 269.115 57.1322 263.589 57.021 263.678C56.8986 263.778 61.3355 269.46 66.9289 276.388C72.5111 283.316 77.137 288.842 77.2593 288.753Z" fill="#263238"/>
<path d="M36.9044 262.755C36.7821 262.655 32.1673 268.115 26.5961 274.942C21.025 281.77 16.5993 287.385 16.7105 287.486C16.8328 287.586 21.4364 282.126 27.0187 275.298C32.6009 268.459 37.0156 262.844 36.9044 262.755Z" fill="#263238"/>
<path d="M73.419 79.9085C73.4302 82.6774 75.6875 84.9125 78.4564 84.9014C81.2253 84.8902 83.4604 82.6329 83.4493 79.864C83.4382 77.0951 81.1808 74.86 78.4119 74.8711C75.643 74.8822 73.4079 77.1396 73.419 79.9085Z" fill="#455A64"/>
<path d="M88.4773 73.4586C82.9618 67.6762 74.0102 67.4983 68.3502 73.1918C65.7926 75.7716 61.7782 71.8018 64.3358 69.2219C72.0865 61.4046 84.8189 61.449 92.4361 69.4554C94.9492 72.0798 90.9793 76.0941 88.4773 73.4586Z" fill="#455A64"/>
<path d="M105.513 50.0959C97.8844 43.5018 88.766 39.3429 78.5689 39.3206C68.4608 39.2984 58.4862 42.8902 51.0803 49.8402C48.4337 52.3199 44.4194 48.3612 47.066 45.8703C55.5505 37.9084 66.9263 33.6494 78.5356 33.6828C90.2783 33.7162 100.709 38.5089 109.483 46.0927C112.24 48.4724 108.259 52.4645 105.513 50.0959Z" fill="#455A64"/>
<path d="M98.7974 63.0505C93.6822 57.5239 86.5098 54.0545 78.9371 53.8877C71.1531 53.7097 63.636 56.9123 58.2316 62.4723C55.6963 65.0744 51.6819 61.1045 54.2173 58.5025C60.6224 51.9194 69.6964 48.0274 78.9149 48.2387C87.9332 48.45 96.6624 52.4309 102.778 59.0362C105.225 61.6939 101.266 65.7193 98.7974 63.0505Z" fill="#455A64"/>
<path d="M450.823 266.202C450.823 251.824 463.822 240.47 478.712 243.261C488.075 245.018 495.547 252.669 497.182 262.054C498.205 267.925 496.993 273.441 494.324 278H494.335L494.268 278.089C493.368 279.601 492.256 280.68 491.121 282.259L477.555 300.229C475.865 302.464 472.507 302.464 470.816 300.229L457.483 282.559C457.483 282.559 454.993 279.59 454.092 278.067L454.047 278H454.058C452.012 274.531 450.823 270.505 450.823 266.202ZM474.186 276.365C479.868 276.365 484.472 271.762 484.472 266.079C484.472 260.397 479.868 255.793 474.186 255.793C468.503 255.793 463.9 260.397 463.9 266.079C463.9 271.762 468.503 276.365 474.186 276.365Z" fill="#455A64"/>
<path d="M433.31 90.6727C432.187 107.619 445.052 122.265 462.033 123.388C479.013 124.511 493.691 111.689 494.814 94.7426C495.938 77.7957 483.083 63.1506 466.092 62.0275C449.111 60.9044 434.433 73.7258 433.31 90.6727Z" fill="#2861F0"/>
<g opacity="0.3">
<path d="M440.681 90.4171C440.826 90.4282 440.993 89.4052 441.482 87.6371C441.982 85.8802 442.861 83.3448 444.662 80.6315C445.563 79.286 446.675 77.896 448.043 76.5838C449.421 75.2828 451.045 74.0374 452.913 73.0254C453.847 72.5139 454.837 72.0469 455.871 71.6577C456.916 71.2685 457.995 70.9238 459.129 70.6902C460.263 70.4567 461.42 70.2788 462.61 70.2121C463.822 70.1454 465.034 70.1676 466.257 70.2788C467.48 70.4011 468.67 70.6235 469.827 70.9126C470.983 71.2018 472.095 71.6021 473.152 72.058C474.219 72.5028 475.22 73.0477 476.165 73.637C477.11 74.2153 477.989 74.8714 478.812 75.5497C480.446 76.9063 481.792 78.4409 482.893 79.9866C483.982 81.5434 484.805 83.1224 485.428 84.6236C486.662 87.626 487.029 90.2837 487.185 92.1074C487.33 93.9422 487.296 94.9763 487.441 94.9874C487.541 94.9986 487.819 93.9866 487.886 92.0851C487.941 90.2058 487.763 87.4036 486.618 84.1677C486.04 82.5553 485.239 80.8428 484.127 79.1526C483.004 77.4734 481.614 75.7943 479.89 74.2931C479.034 73.537 478.1 72.8253 477.088 72.1803C476.076 71.5354 475.009 70.9349 473.863 70.4456C472.718 69.9452 471.528 69.5004 470.283 69.1779C469.037 68.8554 467.747 68.6219 466.435 68.4774C465.123 68.355 463.811 68.3328 462.521 68.4106C461.231 68.4885 459.974 68.6886 458.762 68.9555C457.539 69.2224 456.383 69.6005 455.259 70.0342C454.147 70.4678 453.091 70.9905 452.101 71.5576C450.122 72.6918 448.421 74.0707 446.997 75.5052C445.585 76.9508 444.462 78.4742 443.583 79.9421C441.827 82.9 441.104 85.6133 440.803 87.4703C440.503 89.3607 440.581 90.406 440.681 90.4171Z" fill="black"/>
</g>
<g opacity="0.3">
<path d="M460.487 80.7314L460.154 76.6504L463.79 76.3613L464.112 80.3311C467.737 80.2644 471.285 81.1095 473.409 82.5106L471.763 87.1143C469.828 85.9133 467.137 85.1461 464.49 85.1016L464.98 91.1842C469.105 91.8403 473.72 92.8189 474.142 98.0342C474.454 101.893 471.918 105.429 466.214 106.552L466.536 110.588L462.922 110.878L462.6 106.908C459.853 106.908 457.14 106.396 455.027 105.284L456.484 100.658C458.43 101.559 460.365 102.026 462.211 102.104L461.71 95.9102C457.596 95.2875 453.037 94.2978 452.625 89.1715C452.325 85.3796 454.827 81.8879 460.487 80.7314ZM465.424 96.533L465.847 101.704C467.737 101.114 468.416 99.9913 468.327 98.7903C468.216 97.5115 467.07 96.911 465.424 96.533ZM458.463 88.2597C458.563 89.5385 459.675 90.1389 461.288 90.5615L460.887 85.5353C459.086 86.0801 458.363 87.0921 458.463 88.2597Z" fill="black"/>
</g>
<path d="M487.497 94.2532C487.43 94.2421 487.353 95.2762 486.997 97.0999C486.63 98.9125 485.84 101.515 484.172 104.372C483.36 105.807 482.226 107.241 480.925 108.665C479.546 110.021 477.978 111.4 476.088 112.501C474.209 113.591 472.118 114.558 469.805 115.125C467.503 115.681 465.046 115.926 462.533 115.793C460.02 115.592 457.618 115.025 455.405 114.169C453.192 113.313 451.246 112.067 449.522 110.744C447.799 109.399 446.431 107.831 445.241 106.307C444.129 104.717 443.206 103.149 442.583 101.615C441.305 98.5678 440.86 95.8767 440.737 94.0308C440.637 92.1849 440.682 91.1507 440.615 91.1396C440.593 91.1396 440.571 91.3953 440.548 91.8846C440.548 92.3739 440.437 93.1078 440.515 94.0419C440.571 95.9101 440.949 98.6456 442.205 101.77C442.806 103.338 443.74 104.951 444.852 106.585C446.053 108.153 447.443 109.777 449.189 111.156C450.946 112.523 452.925 113.802 455.193 114.692C457.451 115.581 459.919 116.16 462.488 116.371C465.057 116.504 467.581 116.249 469.939 115.67C472.296 115.092 474.442 114.08 476.355 112.957C478.279 111.812 479.869 110.399 481.259 108.998C482.582 107.519 483.705 106.052 484.517 104.573C486.174 101.637 486.908 98.9792 487.208 97.1333C487.397 96.2214 487.397 95.4764 487.453 94.9982C487.508 94.5201 487.519 94.2532 487.497 94.2532Z" fill="#263238"/>
<path d="M449.332 431.134C449.332 431.134 441.871 435.96 438.412 435.793C434.965 435.626 421.41 418.768 421.41 418.768L428.493 413.475L445.885 416.366L449.321 430.978" fill="#263238"/>
<path d="M301.393 184.703C298.335 195.812 301.415 208.4 309.255 216.84C312.824 220.688 317.383 223.835 319.63 228.572C322.132 233.82 321.32 239.992 322.432 245.708C323.544 251.412 328.359 257.506 334.008 256.116C328.737 263.933 320.719 269.582 312.146 273.485C303.561 277.389 294.354 279.679 285.202 281.959C280.109 283.227 274.616 284.461 269.745 282.515C263.44 279.991 260.316 273.052 257.791 266.747C250.452 248.432 243.124 230.117 235.785 211.803" fill="#263238"/>
<path d="M226.1 162.786C226.111 158.516 229.381 154.968 233.628 154.613L272.404 136.865C286.404 135.686 300.382 160.74 300.96 174.773C301.605 190.363 299.581 209.112 297.491 220.688C293.287 243.973 277.575 244.418 277.575 244.418L276.24 282.07L227.568 281.981L226.1 162.786Z" fill="#FFD8C5"/>
<path d="M290.75 193.344C290.772 194.923 289.449 196.246 287.792 196.301C286.146 196.357 284.778 195.123 284.756 193.533C284.734 191.954 286.057 190.619 287.703 190.575C289.371 190.519 290.727 191.764 290.75 193.344Z" fill="#263238"/>
<path d="M294.599 185.393C294.265 185.671 291.919 185.293 288.772 185.993C285.625 186.66 283.446 188.028 283.079 187.906C282.901 187.85 283.212 187.405 284.157 186.805C285.091 186.205 286.715 185.459 288.683 185.026C290.64 184.603 292.353 184.614 293.365 184.803C294.377 184.97 294.755 185.259 294.599 185.393Z" fill="#263238"/>
<path d="M260.347 191.798C260.37 193.377 259.046 194.7 257.389 194.756C255.744 194.811 254.376 193.577 254.354 191.987C254.331 190.408 255.655 189.073 257.3 189.029C258.968 188.973 260.325 190.219 260.347 191.798Z" fill="#263238"/>
<path d="M264.763 187.15C264.296 187.25 262.261 185.615 258.903 184.648C255.556 183.647 252.754 183.858 252.465 183.525C252.32 183.369 252.854 183.091 254.077 182.991C255.289 182.88 257.235 183.002 259.326 183.614C261.416 184.236 263.029 185.159 263.896 185.882C264.786 186.605 264.997 187.105 264.763 187.15Z" fill="#263238"/>
<path d="M276.105 208.667C276.094 208.478 278.107 208.178 281.365 207.833C282.188 207.766 282.977 207.622 283.122 207.055C283.333 206.465 282.999 205.564 282.621 204.608C281.887 202.595 281.12 200.494 280.32 198.292C277.128 189.296 274.837 181.901 275.204 181.779C275.571 181.656 278.451 188.84 281.643 197.836C282.41 200.049 283.144 202.173 283.845 204.197C284.134 205.142 284.645 206.209 284.2 207.433C283.967 208.044 283.355 208.478 282.822 208.611C282.288 208.756 281.832 208.756 281.42 208.778C278.14 208.889 276.116 208.856 276.105 208.667Z" fill="#263238"/>
<path d="M277.574 244.64C277.574 244.64 261.839 245.318 246.472 235.633C246.472 235.633 253.321 252.824 276.751 251.134L277.574 244.64Z" fill="#FFC2A1"/>
<path d="M275.403 216.495C273.858 214.06 271.478 212.414 269.31 212.259C267.797 212.147 266.363 212.781 265.629 214.194C264.895 215.606 264.984 217.852 266.018 219.564C267.186 221.488 269.232 222.311 270.844 222.044C272.457 221.777 273.735 220.654 274.936 219.509C275.27 219.198 275.604 218.864 275.782 218.375C275.948 217.885 275.915 217.185 275.57 216.673" fill="#FFC2A1"/>
<path d="M266.577 210.702C267.1 210.68 267.033 214.182 269.98 216.729C272.916 219.286 276.652 218.975 276.674 219.464C276.719 219.687 275.829 220.121 274.25 220.132C272.704 220.154 270.458 219.609 268.657 218.052C266.866 216.495 266.121 214.438 266.032 213.004C265.932 211.536 266.333 210.668 266.577 210.702Z" fill="#263238"/>
<path d="M267.231 171.837C266.809 172.671 263.662 171.86 259.859 171.86C256.045 171.771 252.887 172.505 252.486 171.66C252.308 171.259 252.942 170.503 254.266 169.814C255.578 169.124 257.613 168.557 259.903 168.579C262.183 168.613 264.207 169.224 265.508 169.947C266.798 170.67 267.409 171.437 267.231 171.837Z" fill="#263238"/>
<path d="M297.513 181.49C296.79 182.201 294.055 181.378 290.73 181.256C287.416 181.045 284.592 181.59 283.958 180.811C283.68 180.433 284.147 179.71 285.392 179.043C286.616 178.387 288.662 177.865 290.93 177.987C293.21 178.098 295.167 178.821 296.301 179.599C297.469 180.378 297.836 181.145 297.513 181.49Z" fill="#263238"/>
<path d="M202.193 220.487C204.205 210.124 210.511 176.919 219.773 159.617C229.048 142.303 239.645 135.464 249.942 132.951C260.239 130.438 267.834 134.352 272.36 138.6C276.886 142.848 278.176 154.913 278.176 154.913C278.176 154.913 253.356 159.828 244.705 173.706C234.774 189.652 232.261 197.736 232.261 197.736L228.959 206.51C228.959 206.51 226.334 249.233 227.202 257.717L189.916 271.195C197.9 254.67 200.18 230.851 202.193 220.487Z" fill="#263238"/>
<path d="M276.662 154.735C276.662 154.735 293.041 153.89 297.879 169.958C300.069 177.231 300.336 198.37 300.336 198.37C300.336 198.37 303.839 181.612 303.294 172.149C302.749 162.686 298.323 150.643 291.24 143.86C284.357 137.265 278.485 134.107 265.886 134.574C265.886 134.574 267.688 138.155 270.79 143.003C272.358 145.427 274.805 145.705 276.662 154.735Z" fill="#263238"/>
<path d="M232.413 198.981C232.28 193.811 226.731 190.219 222.183 192.71C219.692 194.078 217.735 196.891 217.835 202.384C218.091 217.04 232.747 213.749 232.769 213.337C232.78 213.059 232.569 205.042 232.413 198.981Z" fill="#FFD8C5"/>
<path d="M228.199 207.855C228.132 207.811 227.943 208.044 227.521 208.244C227.109 208.445 226.387 208.589 225.619 208.322C224.063 207.777 222.717 205.342 222.595 202.707C222.539 201.372 222.795 200.093 223.24 199.037C223.673 197.958 224.352 197.191 225.13 197.047C225.897 196.858 226.464 197.313 226.653 197.725C226.854 198.136 226.765 198.425 226.843 198.448C226.887 198.481 227.154 198.192 227.02 197.591C226.954 197.302 226.776 196.958 226.431 196.68C226.075 196.402 225.553 196.268 225.019 196.335C223.896 196.435 222.895 197.491 222.395 198.648C221.839 199.815 221.516 201.25 221.583 202.751C221.727 205.698 223.284 208.433 225.419 209.012C226.453 209.267 227.31 208.934 227.743 208.578C228.177 208.211 228.244 207.877 228.199 207.855Z" fill="#FFC2A1"/>
<path d="M260.072 132.462C260.039 132.584 261.751 132.929 264.275 134.063C265.554 134.597 266.966 135.464 268.423 136.543C269.88 137.643 271.259 139.111 272.504 140.813C274.962 144.249 276.341 147.885 277.252 150.509C278.142 153.145 278.587 154.824 278.687 154.79C278.72 154.779 278.654 154.357 278.487 153.59C278.331 152.822 278.042 151.721 277.653 150.376C276.841 147.707 275.518 143.993 272.994 140.468C271.726 138.722 270.291 137.221 268.768 136.109C267.256 135.008 265.777 134.174 264.453 133.674C263.808 133.373 263.197 133.207 262.663 133.029C262.14 132.84 261.662 132.74 261.284 132.651C260.506 132.495 260.083 132.428 260.072 132.462Z" fill="#455A64"/>
<path d="M208.695 245.886C208.706 245.886 208.751 245.786 208.829 245.574C208.917 245.33 209.018 245.029 209.162 244.651C209.485 243.84 209.785 242.605 210.118 240.993C210.719 237.757 210.808 232.942 210.13 227.104C209.829 224.179 209.407 220.999 209.129 217.574C208.862 214.149 208.751 210.457 209.34 206.654C209.952 202.862 211.342 199.004 213.454 195.39C215.545 191.753 218.325 188.362 221.528 185.282C227.966 179.077 235.483 174.873 242.266 171.181C249.094 167.523 255.321 164.309 260.281 161.151C265.251 158.026 269.066 155.169 271.634 153.134C272.924 152.111 273.892 151.299 274.559 150.732C274.859 150.465 275.104 150.254 275.293 150.087C275.46 149.942 275.537 149.853 275.526 149.853C275.515 149.842 275.426 149.909 275.248 150.042C275.048 150.198 274.792 150.398 274.47 150.643C273.758 151.199 272.757 151.966 271.49 152.956C268.877 154.935 265.04 157.737 260.058 160.806C255.088 163.909 248.872 167.078 242.011 170.714C235.205 174.384 227.632 178.61 221.127 184.87C217.891 187.995 215.089 191.431 212.965 195.112C210.83 198.781 209.429 202.718 208.817 206.576C208.228 210.446 208.361 214.182 208.651 217.619C208.951 221.066 209.407 224.246 209.729 227.16C210.452 232.975 210.419 237.735 209.896 240.971C209.596 242.572 209.329 243.817 209.051 244.629C208.94 245.018 208.851 245.33 208.773 245.574C208.706 245.763 208.684 245.875 208.695 245.886Z" fill="#455A64"/>
<path d="M443.929 412.563C443.951 412.53 443.639 412.319 443.061 411.996C442.472 411.674 441.593 411.273 440.448 410.906C438.191 410.161 434.788 409.661 431.163 410.406C427.538 411.151 424.613 412.953 422.834 414.543C421.933 415.332 421.277 416.055 420.866 416.578C420.454 417.1 420.254 417.423 420.287 417.445C420.365 417.512 421.266 416.333 423.09 414.865C424.902 413.397 427.771 411.707 431.274 410.984C434.777 410.262 438.079 410.673 440.326 411.307C442.583 411.93 443.873 412.663 443.929 412.563Z" fill="#263238"/>
<path d="M427.851 404.279C427.807 404.223 426.984 404.724 425.816 405.78C424.66 406.825 423.203 408.449 421.98 410.506C420.757 412.563 420.034 414.632 419.667 416.144C419.311 417.667 419.267 418.635 419.333 418.646C419.522 418.69 420.056 414.832 422.48 410.806C424.86 406.748 427.985 404.424 427.851 404.279Z" fill="#263238"/>
<path d="M342.938 499.666C342.938 499.666 331.128 442.12 306.097 431.045L206.851 428.131C206.851 428.131 174.058 450.093 168.809 499.989L342.938 499.666Z" fill="#263238"/>
<path d="M277.085 254.748C277.085 254.748 274.161 273.096 254.523 270.961C234.885 268.826 227.212 257.728 227.212 257.728L199.924 266.435L195.631 319.222C211.166 349.391 219.984 382.995 221.241 416.911C221.452 422.616 221.652 428.876 225.455 433.135C227.801 435.76 231.171 437.194 234.507 438.328C255.657 445.534 279.765 443.555 299.448 432.98C299.448 432.98 307.788 342.663 306.765 340.105C305.742 337.548 292.086 261.576 292.086 261.576L277.085 254.748Z" fill="#E0E0E0"/>
<path d="M306.097 258.907C306.097 258.907 323.444 260.13 328.092 262.455C332.741 264.779 393.556 341.084 395.88 342.241C397.826 343.208 434.01 376.846 448.956 409.405C451.903 415.822 454.171 424.94 449.334 431.056C449.334 431.056 431.887 409.161 421.423 418.768L374.585 371.297L325.657 342.752L306.097 258.907Z" fill="#455A64"/>
<g opacity="0.3">
<path d="M288.359 408.026C267.765 368.25 267.765 310.637 277.573 257.717L286.38 332.9L288.359 408.026Z" fill="black"/>
</g>
<path d="M332.775 272.852L331.23 337.37C331.23 337.37 325.025 408.805 323.868 408.805C322.712 408.805 319.22 433.981 323.868 445.212C328.516 456.443 343.617 471.555 343.617 471.555L324.635 492.083C324.635 492.083 306.821 463.804 301.395 445.601C295.968 427.398 280.867 399.898 278.543 348.768C276.219 297.638 277.175 247.709 277.175 247.709L292.098 258.518L306.443 258.818L332.775 272.852Z" fill="#455A64"/>
<path d="M298.434 442.131C298.434 442.131 298.389 441.92 298.278 441.52C298.156 441.097 297.989 440.508 297.778 439.741C297.344 438.151 296.71 435.849 295.887 432.88C294.308 426.908 292.084 418.246 290.005 407.404C288.971 401.988 287.992 396.017 287.314 389.567C286.991 386.342 286.747 382.995 286.669 379.548C286.602 376.101 286.702 372.542 287.247 368.951C287.547 367.16 287.903 365.37 288.515 363.602C289.115 361.834 289.671 360.044 290.427 358.287C290.783 357.397 291.139 356.519 291.495 355.618C291.895 354.739 292.296 353.861 292.696 352.971C293.474 351.181 294.364 349.435 295.242 347.656C298.801 340.561 302.96 333.456 307.463 326.35C311.355 320.201 315.347 314.263 319.395 308.669L319.551 308.447L319.339 308.28C308.953 299.751 299.168 291.733 290.294 284.45L290.105 284.895C299.49 285.973 308.064 286.963 315.659 287.841L316.17 287.897L315.848 287.497C308.542 278.545 302.626 271.295 298.523 266.269C296.477 263.789 294.887 261.854 293.786 260.52C293.252 259.875 292.841 259.385 292.54 259.029C292.262 258.696 292.107 258.54 292.107 258.54C292.107 258.54 292.229 258.729 292.496 259.074C292.774 259.43 293.174 259.941 293.697 260.597C294.775 261.943 296.343 263.911 298.345 266.424C302.415 271.484 308.286 278.767 315.525 287.775L315.714 287.441C308.119 286.54 299.557 285.517 290.172 284.405L289.315 284.305L289.983 284.85C298.845 292.145 308.609 300.185 318.984 308.725L318.939 308.336C314.88 313.951 310.888 319.878 306.985 326.05C302.47 333.178 298.312 340.294 294.753 347.411C293.875 349.202 292.974 350.959 292.196 352.749C291.795 353.638 291.395 354.528 290.995 355.407C290.639 356.307 290.283 357.197 289.927 358.086C289.171 359.855 288.615 361.667 288.014 363.446C287.403 365.226 287.036 367.071 286.736 368.873C286.191 372.509 286.102 376.101 286.18 379.559C286.257 383.029 286.524 386.387 286.858 389.623C287.559 396.095 288.57 402.066 289.627 407.493C291.762 418.346 294.053 426.997 295.687 432.946C296.521 435.927 297.2 438.228 297.678 439.774C297.922 440.53 298.1 441.12 298.234 441.542C298.345 441.931 298.434 442.131 298.434 442.131Z" fill="#263238"/>
<path d="M227.245 241.882C227.245 241.882 217.637 256.694 216.636 257.717C216.636 257.717 176.048 269.215 173.657 274.042C163.772 293.991 171.756 301.163 173.657 328.585C176.026 362.668 187.435 410.106 187.435 410.106C187.435 410.106 171.378 471.989 169.699 475.403C168.02 478.816 224.354 499.555 230.336 491.749C236.308 483.943 241.011 457.055 241.011 457.055C241.011 457.055 246.56 402.422 244.425 380.66C242.29 358.898 232.16 336.536 228.635 310.237C224.887 282.47 227.245 241.882 227.245 241.882Z" fill="#455A64"/>
<path d="M242.28 394.315C242.302 394.315 242.257 394.037 242.157 393.526C242.035 392.959 241.879 392.203 241.69 391.269C241.468 390.268 241.201 389.078 240.901 387.699C240.467 386.331 239.978 384.786 239.444 383.084C237.175 376.29 232.928 367.249 226.845 358.131C220.707 349.057 214.213 341.529 209.209 336.414C206.707 333.845 204.594 331.854 203.093 330.531C202.348 329.864 201.736 329.375 201.336 329.041C200.902 328.73 200.68 328.574 200.668 328.596C200.668 328.596 204.004 331.51 208.92 336.703C213.835 341.885 220.262 349.424 226.367 358.465C232.416 367.538 236.697 376.49 239.055 383.229C239.622 384.908 240.133 386.442 240.589 387.799C240.934 389.156 241.223 390.334 241.468 391.324C241.701 392.247 241.901 392.992 242.046 393.559C242.168 394.06 242.257 394.327 242.28 394.315Z" fill="#263238"/>
<path d="M216.638 258.418C216.616 258.407 216.482 258.674 216.226 259.174C215.96 259.73 215.604 260.475 215.159 261.398C214.225 263.4 212.924 266.191 211.311 269.627C210.511 271.373 209.621 273.274 208.687 275.32C208.22 276.343 207.731 277.4 207.23 278.501C206.741 279.59 206.185 280.702 205.774 281.903C203.994 286.652 202.037 291.867 199.98 297.349C198.368 301.675 196.822 305.834 195.376 309.715L195.265 310.015L195.577 310.081C199.491 310.927 203.127 311.716 206.419 312.428L206.252 312.094C204.006 317.043 202.137 321.135 200.814 324.059C200.191 325.46 199.702 326.572 199.335 327.395C199.191 327.751 199.068 328.04 198.968 328.274C198.89 328.474 198.857 328.585 198.868 328.585C198.879 328.585 198.935 328.496 199.035 328.307C199.157 328.074 199.291 327.796 199.469 327.451C199.858 326.639 200.392 325.549 201.059 324.171C202.438 321.268 204.361 317.198 206.685 312.294L206.808 312.027L206.519 311.961C203.227 311.227 199.591 310.415 195.688 309.548L195.888 309.915C197.345 306.034 198.901 301.875 200.514 297.56C202.549 292.078 204.495 286.863 206.263 282.104C206.663 280.903 207.219 279.791 207.697 278.69C208.187 277.6 208.665 276.532 209.132 275.509C210.055 273.452 210.911 271.54 211.689 269.794C213.224 266.335 214.469 263.511 215.359 261.487C215.759 260.542 216.082 259.786 216.326 259.219C216.549 258.696 216.66 258.418 216.638 258.418Z" fill="#263238"/>
<path d="M189.926 403.189C189.926 403.189 169.165 423.95 158.49 422.76C147.814 421.571 133.87 398.441 133.87 390.435C133.87 382.428 143.833 330.809 143.833 330.809L139.686 311.371L178.65 310.637L186.456 370.474L189.926 403.189Z" fill="#455A64"/>
<path d="M164.661 264.5C164.65 264.5 164.694 264.645 164.805 264.923C164.916 265.223 165.072 265.635 165.272 266.157C165.484 266.702 165.75 267.369 166.051 268.159C166.384 268.937 166.774 269.838 167.207 270.85C168.108 272.863 169.287 275.287 170.766 278.045C172.3 280.769 174.09 283.86 176.326 287.107C180.785 293.602 186.823 300.896 194.751 307.702C198.71 311.093 203.08 314.44 207.984 317.309C212.877 320.189 218.337 322.614 224.264 323.837C230.18 325.082 236.251 324.938 241.767 323.414C244.513 322.647 247.127 321.535 249.473 320.101C251.819 318.655 253.877 316.876 255.633 314.93C259.147 311.015 261.572 306.634 263.796 302.586C266.02 298.528 268.043 294.714 269.745 291.155C271.435 287.597 272.781 284.283 273.748 281.303C274.727 278.323 275.327 275.687 275.705 273.519C276.395 269.149 276.239 266.702 276.239 266.702C276.228 266.702 276.217 266.858 276.194 267.147C276.172 267.47 276.15 267.903 276.117 268.459C276.039 269.616 275.861 271.317 275.494 273.474C275.082 275.632 274.449 278.245 273.448 281.203C272.447 284.161 271.079 287.441 269.378 290.977C267.665 294.513 265.619 298.305 263.384 302.353C261.138 306.39 258.714 310.726 255.244 314.574C253.521 316.487 251.497 318.232 249.195 319.633C246.893 321.035 244.336 322.124 241.633 322.881C236.218 324.371 230.235 324.515 224.408 323.281C218.559 322.069 213.155 319.678 208.296 316.831C203.425 313.985 199.077 310.66 195.118 307.301C187.212 300.552 181.174 293.312 176.681 286.874C174.424 283.66 172.623 280.591 171.066 277.889C169.565 275.153 168.353 272.752 167.43 270.75C166.974 269.749 166.573 268.86 166.217 268.092C165.895 267.314 165.617 266.658 165.383 266.113C165.161 265.601 164.994 265.201 164.861 264.901C164.739 264.634 164.672 264.5 164.661 264.5Z" fill="#263238"/>
<path d="M172.878 265.924C172.867 265.935 173.089 266.191 173.534 266.647C174.012 267.136 174.657 267.792 175.48 268.626C177.226 270.361 179.683 272.818 182.708 275.821C185.777 278.868 189.413 282.482 193.439 286.485C195.507 288.442 197.798 290.421 200.456 292.067C203.102 293.702 206.182 295.014 209.529 295.303C212.843 295.625 216.213 295.069 218.97 293.49C221.761 291.945 223.674 289.22 224.375 286.418C225.153 283.627 225.264 280.88 225.298 278.345C225.309 275.81 225.198 273.452 225.164 271.295C225.053 267.003 225.253 263.511 225.876 261.198C226.232 260.053 226.499 259.163 226.821 258.618C227.088 258.051 227.221 257.74 227.21 257.728C227.188 257.717 227.021 258.006 226.721 258.562C226.365 259.107 226.054 259.986 225.665 261.142C224.964 263.477 224.708 267.003 224.753 271.306C224.764 273.463 224.853 275.821 224.82 278.345C224.764 280.858 224.642 283.571 223.863 286.274C223.151 288.987 221.35 291.522 218.681 293.001C216.046 294.513 212.788 295.036 209.574 294.736C206.338 294.447 203.347 293.201 200.745 291.589C198.131 289.976 195.863 288.042 193.795 286.096C191.726 284.161 189.88 282.17 188.046 280.436C186.233 278.679 184.532 277.033 182.986 275.532C179.906 272.574 177.404 270.172 175.636 268.459C174.791 267.659 174.112 267.025 173.612 266.558C173.145 266.124 172.9 265.913 172.878 265.924Z" fill="#263238"/>
<path d="M320.151 417.078C320.162 417.078 320.185 416.978 320.218 416.778C320.251 416.544 320.296 416.244 320.352 415.877C320.463 415.043 320.607 413.876 320.796 412.408C321.174 409.35 321.708 404.991 322.364 399.631C323.676 388.844 325.522 373.944 327.279 357.442C328.147 349.191 328.881 341.318 329.47 334.156C330.026 326.984 330.482 320.534 330.715 315.097C330.86 312.383 330.938 309.926 331.004 307.769C331.082 305.611 331.127 303.754 331.138 302.231C331.149 300.741 331.16 299.573 331.16 298.728C331.16 298.361 331.149 298.061 331.149 297.816C331.149 297.616 331.138 297.505 331.127 297.505C331.116 297.505 331.105 297.605 331.093 297.816C331.082 298.05 331.06 298.35 331.049 298.728C331.016 299.573 330.971 300.741 330.916 302.22C330.871 303.743 330.793 305.6 330.693 307.746C330.593 309.904 330.493 312.361 330.315 315.063C330.026 320.49 329.537 326.939 328.947 334.101C328.325 341.262 327.58 349.124 326.712 357.364C324.955 373.855 323.176 388.756 321.964 399.564C321.386 404.935 320.908 409.294 320.585 412.363C320.44 413.842 320.329 415.01 320.251 415.844C320.218 416.211 320.196 416.511 320.174 416.756C320.151 416.967 320.151 417.078 320.151 417.078Z" fill="#263238"/>
<path d="M139.677 311.371C139.677 311.382 139.744 311.382 139.866 311.394C140.01 311.394 140.188 311.405 140.411 311.405C140.933 311.405 141.634 311.405 142.524 311.405C144.414 311.382 147.116 311.36 150.519 311.327C157.413 311.227 167.143 311.071 178.641 310.904L178.374 310.693C179.953 319.044 181.232 328.563 182.222 338.626C183.979 357.097 184.713 373.888 185.625 386.02C186.047 392.091 186.47 396.995 186.792 400.376C186.959 402.033 187.104 403.345 187.193 404.268C187.237 404.69 187.282 405.024 187.315 405.28C187.348 405.502 187.371 405.624 187.371 405.624C187.382 405.624 187.382 405.502 187.371 405.28C187.359 405.024 187.337 404.679 187.304 404.268C187.237 403.334 187.137 402.033 187.004 400.365C186.748 396.973 186.403 392.069 186.025 385.998C185.224 373.866 184.557 357.063 182.789 338.571C181.799 328.485 180.498 318.955 178.886 310.593L178.842 310.37H178.619C167.121 310.626 157.391 310.849 150.497 311.004C147.094 311.104 144.403 311.171 142.512 311.227C141.612 311.26 140.911 311.293 140.4 311.305C140.177 311.316 139.999 311.327 139.855 311.338C139.732 311.36 139.677 311.371 139.677 311.371Z" fill="#263238"/>
<path d="M149.184 325.472C147.501 325.472 146.137 324.107 146.137 322.425C146.137 320.742 147.501 319.378 149.184 319.378C150.866 319.378 152.23 320.742 152.23 322.425C152.23 324.107 150.866 325.472 149.184 325.472Z" fill="#E0E0E0"/>
<path d="M146.137 322.425C146.182 322.425 146.204 322.158 146.337 321.702C146.482 321.268 146.793 320.634 147.46 320.156C148.105 319.678 149.14 319.422 150.129 319.8C151.108 320.145 151.953 321.201 151.942 322.414C151.953 323.637 151.108 324.682 150.129 325.027C149.14 325.405 148.105 325.149 147.46 324.671C146.793 324.193 146.482 323.57 146.337 323.125C146.204 322.703 146.182 322.425 146.137 322.425C146.104 322.425 146.037 322.703 146.126 323.192C146.204 323.681 146.493 324.415 147.216 325.004C147.916 325.594 149.117 325.95 150.318 325.538C151.497 325.16 152.542 323.904 152.531 322.425C152.542 320.946 151.508 319.689 150.318 319.311C149.128 318.888 147.916 319.244 147.216 319.845C146.493 320.434 146.204 321.168 146.126 321.657C146.037 322.158 146.104 322.436 146.137 322.425Z" fill="#263238"/>
<path d="M235.785 419.269C234.102 419.269 232.738 417.905 232.738 416.222C232.738 414.539 234.102 413.175 235.785 413.175C237.468 413.175 238.832 414.539 238.832 416.222C238.832 417.905 237.468 419.269 235.785 419.269Z" fill="#E0E0E0"/>
<path d="M232.739 416.222C232.783 416.222 232.805 415.955 232.939 415.499C233.083 415.065 233.395 414.432 234.062 413.953C234.707 413.475 235.741 413.219 236.731 413.598C237.709 413.942 238.554 414.999 238.543 416.211C238.554 417.434 237.709 418.479 236.731 418.824C235.741 419.202 234.707 418.946 234.062 418.468C233.395 417.99 233.083 417.367 232.939 416.922C232.794 416.5 232.783 416.222 232.739 416.222C232.705 416.222 232.639 416.5 232.728 416.989C232.805 417.478 233.095 418.212 233.817 418.802C234.518 419.391 235.719 419.747 236.92 419.335C238.099 418.957 239.144 417.701 239.133 416.222C239.144 414.743 238.11 413.486 236.92 413.108C235.73 412.686 234.518 413.042 233.817 413.642C233.095 414.231 232.805 414.965 232.728 415.455C232.639 415.955 232.705 416.222 232.739 416.222Z" fill="#263238"/>
<path d="M226.445 462.637C226.445 464.316 227.813 465.684 229.492 465.684C231.182 465.684 232.539 464.316 232.539 462.637C232.539 460.947 231.171 459.59 229.492 459.59C227.802 459.59 226.445 460.958 226.445 462.637Z" fill="#E0E0E0"/>
<path d="M226.446 462.637C226.49 462.637 226.512 462.37 226.646 461.914C226.79 461.48 227.102 460.846 227.769 460.368C228.414 459.89 229.448 459.634 230.438 460.012C231.416 460.357 232.262 461.414 232.25 462.626C232.262 463.849 231.416 464.894 230.438 465.239C229.448 465.617 228.414 465.361 227.769 464.883C227.102 464.405 226.79 463.782 226.646 463.337C226.501 462.915 226.49 462.637 226.446 462.637C226.412 462.637 226.346 462.915 226.435 463.404C226.512 463.893 226.802 464.627 227.524 465.217C228.225 465.806 229.426 466.162 230.627 465.75C231.806 465.372 232.851 464.116 232.84 462.637C232.851 461.158 231.817 459.901 230.627 459.523C229.437 459.101 228.225 459.456 227.524 460.057C226.802 460.646 226.512 461.38 226.435 461.87C226.346 462.37 226.412 462.637 226.446 462.637Z" fill="#263238"/>
<path d="M143.823 330.809C143.834 330.965 151.807 330.731 161.637 330.286C171.467 329.831 179.429 329.341 179.418 329.186C179.407 329.03 171.434 329.263 161.604 329.708C151.774 330.153 143.812 330.653 143.823 330.809Z" fill="#263238"/>
<path d="M319.752 390.368L331.228 394.96L356.192 332.488C362.075 317.788 378.81 310.604 393.522 316.475C408.223 322.358 415.406 339.093 409.535 353.805L384.57 416.277L396.046 420.87L421.011 358.398C429.417 337.37 419.142 313.417 398.114 305.011C377.087 296.604 353.134 306.879 344.727 327.907L319.752 390.368Z" fill="#E0E0E0"/>
<path d="M319.751 390.368C319.751 390.368 319.94 389.945 320.274 389.122C320.608 388.299 321.097 387.087 321.742 385.508C323.032 382.328 324.911 377.647 327.346 371.631C329.77 365.615 332.728 358.253 336.176 349.713C337.888 345.443 339.723 340.873 341.669 336.035C343.704 331.243 345.338 325.905 348.496 321.046C351.577 316.164 355.98 311.794 361.34 308.491C362.018 308.091 362.686 307.657 363.375 307.268C364.087 306.923 364.81 306.567 365.532 306.223C366.945 305.455 368.524 305.011 370.036 304.399C370.803 304.11 371.615 303.954 372.404 303.721C373.205 303.532 373.995 303.243 374.818 303.131C376.463 302.876 378.109 302.509 379.81 302.464C383.191 302.108 386.649 302.453 390.108 302.953C390.964 303.154 391.82 303.354 392.676 303.554L393.966 303.854C394.389 303.976 394.811 304.132 395.234 304.277C396.079 304.566 396.924 304.855 397.769 305.144C398.603 305.467 399.404 305.878 400.227 306.245C406.81 309.236 412.626 314.307 416.851 320.634C418.964 323.815 420.565 327.351 421.788 331.054C422.945 334.79 423.512 338.715 423.623 342.707C423.668 346.7 423.045 350.714 421.966 354.639C420.743 358.509 419.064 362.323 417.552 366.204C411.358 381.705 404.942 397.752 398.359 414.198C397.48 416.389 396.602 418.579 395.734 420.748L396.112 420.581C392.209 419.024 388.362 417.478 384.637 415.999L384.792 416.378C389.752 403.956 394.611 391.791 399.337 379.982C401.695 374.077 404.019 368.25 406.309 362.523C407.455 359.665 408.589 356.819 409.712 354.005C410.802 351.148 411.502 348.179 411.747 345.176C412.125 339.182 410.668 333.2 407.666 328.274C407.277 327.673 406.954 327.017 406.498 326.461L405.209 324.749C404.252 323.692 403.351 322.591 402.262 321.691C401.25 320.701 400.093 319.911 398.97 319.089C398.392 318.699 397.78 318.377 397.18 318.01L396.29 317.487L395.345 317.054C392.888 315.797 390.219 315.096 387.594 314.585C384.937 314.151 382.268 314.118 379.666 314.374C374.484 315.019 369.58 316.92 365.644 319.9C363.609 321.313 361.941 323.103 360.373 324.893C358.927 326.795 357.604 328.752 356.681 330.865C356.436 331.387 356.203 331.91 355.969 332.433C355.758 332.955 355.547 333.489 355.346 334.012C354.935 335.057 354.512 336.091 354.112 337.114C353.3 339.16 352.489 341.173 351.71 343.152C348.574 351.036 345.683 358.287 343.081 364.836C337.888 377.913 333.829 388.133 331.138 394.938L331.249 394.894C327.346 393.359 324.477 392.225 322.576 391.48C321.631 391.113 320.93 390.835 320.452 390.657C319.996 390.446 319.751 390.368 319.751 390.368C319.751 390.368 319.963 390.468 320.418 390.657C320.886 390.846 321.586 391.135 322.509 391.513C324.411 392.28 327.28 393.448 331.194 395.038L331.272 395.072L331.305 394.994C334.04 388.199 338.144 378.002 343.392 364.947C346.017 358.42 348.919 351.17 352.088 343.297C352.878 341.329 353.69 339.316 354.501 337.27C354.913 336.247 355.324 335.213 355.747 334.167C355.958 333.645 356.169 333.122 356.381 332.599C356.614 332.088 356.848 331.576 357.092 331.054C358.015 328.974 359.327 327.051 360.751 325.182C362.296 323.425 363.953 321.668 365.955 320.278C369.825 317.343 374.662 315.486 379.755 314.863C382.312 314.618 384.937 314.652 387.55 315.085C390.13 315.597 392.754 316.275 395.167 317.521L396.09 317.943L396.969 318.466C397.547 318.822 398.158 319.144 398.726 319.522C399.826 320.334 400.972 321.112 401.961 322.091C403.029 322.981 403.919 324.059 404.853 325.104L406.12 326.795C406.565 327.351 406.877 327.985 407.266 328.574C410.213 333.411 411.625 339.294 411.258 345.176C411.024 348.112 410.335 351.036 409.256 353.839C408.133 356.652 406.999 359.488 405.853 362.357C403.563 368.083 401.239 373.899 398.87 379.804C394.144 391.613 389.285 403.767 384.314 416.2L384.203 416.466L384.47 416.578C388.195 418.068 392.042 419.602 395.946 421.17L396.201 421.226L396.313 420.959C397.18 418.791 398.058 416.6 398.937 414.409C405.509 397.974 411.925 381.917 418.119 366.415C419.631 362.523 421.299 358.754 422.545 354.795C423.634 350.825 424.257 346.755 424.213 342.696C424.101 338.66 423.512 334.668 422.333 330.887C421.088 327.139 419.464 323.548 417.318 320.334C413.026 313.929 407.132 308.803 400.46 305.778C399.626 305.411 398.815 304.988 397.969 304.666C397.113 304.377 396.257 304.077 395.401 303.787C394.978 303.643 394.556 303.487 394.122 303.365L392.81 303.065C391.942 302.865 391.075 302.664 390.208 302.464C386.705 301.964 383.202 301.619 379.777 301.986C378.053 302.031 376.385 302.409 374.729 302.664C373.895 302.776 373.094 303.076 372.282 303.265C371.482 303.498 370.659 303.654 369.891 303.954C368.357 304.566 366.767 305.022 365.332 305.8C364.598 306.156 363.875 306.512 363.153 306.868C362.452 307.257 361.785 307.702 361.095 308.102C355.68 311.449 351.243 315.875 348.141 320.812C344.96 325.738 343.326 331.098 341.302 335.913C339.367 340.784 337.543 345.365 335.842 349.657C332.439 358.231 329.515 365.615 327.113 371.653C324.733 377.669 322.876 382.35 321.619 385.531C320.997 387.11 320.53 388.311 320.207 389.134C319.896 389.956 319.751 390.368 319.751 390.368Z" fill="#263238"/>
<path d="M290.817 435.471L378.031 470.332C383.736 472.611 390.219 469.831 392.498 464.127L419.375 396.873C421.655 391.168 418.875 384.686 413.17 382.406L325.956 347.545C320.252 345.265 313.769 348.045 311.489 353.75L284.612 421.003C282.332 426.708 285.112 433.191 290.817 435.471Z" fill="#2861F0"/>
<g opacity="0.3">
<path d="M291.204 435.626L377.64 470.176C383.567 472.545 390.284 469.665 392.652 463.738L419.218 397.262C421.587 391.335 418.706 384.619 412.779 382.25L326.344 347.7C320.417 345.332 313.7 348.212 311.332 354.139L284.766 420.614C282.408 426.53 285.289 433.258 291.204 435.626Z" fill="black"/>
</g>
<path d="M303.516 440.541L382.98 472.3C388.673 474.58 395.134 471.8 397.413 466.106L424.313 398.808C426.592 393.114 423.812 386.654 418.119 384.374L338.655 352.615C332.962 350.336 326.501 353.116 324.221 358.809L297.322 426.108C295.043 431.801 297.822 438.262 303.516 440.541Z" fill="#2861F0"/>
<g opacity="0.3">
<path d="M350.01 399.153C352.834 392.08 361.097 388.789 368.08 392.18C373.851 394.971 376.798 401.655 374.974 407.793C373.095 414.131 367.057 417.779 360.941 417.156L354.947 432.157C354.213 434.003 352.112 434.903 350.255 434.17C348.409 433.436 347.508 431.334 348.242 429.477L354.236 414.476C349.676 410.962 347.764 404.768 350.01 399.153Z" fill="black"/>
</g>
<path d="M296.442 428.142C296.586 428.198 302.769 412.908 310.231 393.993C317.703 375.067 323.63 359.688 323.486 359.632C323.341 359.577 317.158 374.855 309.697 393.782C302.224 412.697 296.286 428.076 296.442 428.142Z" fill="#263238"/>
<path d="M350.943 415.744C351.043 415.655 349.353 414.42 347.807 411.574C347.029 410.161 346.35 408.349 346.028 406.247C345.705 404.157 345.805 401.777 346.528 399.442C347.295 397.118 348.596 395.127 350.075 393.615C351.554 392.091 353.167 391.013 354.624 390.323C357.537 388.922 359.628 388.9 359.605 388.767C359.605 388.733 359.094 388.722 358.182 388.844C357.27 388.967 355.958 389.278 354.457 389.945C352.944 390.613 351.254 391.68 349.708 393.237C348.163 394.783 346.784 396.84 345.983 399.264C345.227 401.688 345.138 404.168 345.505 406.325C345.861 408.493 346.606 410.351 347.451 411.763C348.285 413.186 349.164 414.209 349.842 414.832C350.498 415.477 350.921 415.766 350.943 415.744Z" fill="#263238"/>
<path d="M350.41 360.41C350.343 360.555 363.698 366.237 380.222 373.098C396.758 379.959 410.202 385.408 410.258 385.253C410.324 385.108 396.969 379.426 380.445 372.565C363.921 365.704 350.476 360.255 350.41 360.41Z" fill="white"/>
<path d="M372.315 415.733C372.337 415.755 372.637 415.577 373.126 415.165C373.616 414.765 374.283 414.12 374.994 413.219C376.418 411.451 377.941 408.505 378.175 404.968C378.397 401.432 377.274 398.319 376.084 396.384C375.495 395.405 374.917 394.682 374.472 394.215C374.038 393.748 373.76 393.526 373.738 393.548C373.66 393.615 374.661 394.616 375.728 396.584C376.796 398.519 377.808 401.543 377.597 404.935C377.374 408.327 375.973 411.184 374.672 412.975C373.36 414.798 372.237 415.655 372.315 415.733Z" fill="white"/>
<path d="M365.131 419.613C365.153 419.769 365.998 419.758 367.01 419.591C368.022 419.424 368.823 419.158 368.8 419.002C368.778 418.846 367.933 418.857 366.921 419.024C365.909 419.191 365.108 419.458 365.131 419.613Z" fill="white"/>
<path d="M401.006 308.691C400.984 308.736 401.695 309.092 402.952 309.814C404.208 310.526 405.965 311.649 407.967 313.262C411.959 316.442 416.807 322.002 419.376 329.452C421.934 336.903 421.522 344.275 420.332 349.235C419.754 351.737 419.054 353.716 418.498 355.04C417.953 356.374 417.608 357.097 417.652 357.119C417.675 357.13 417.775 356.952 417.953 356.619C418.131 356.274 418.42 355.796 418.709 355.129C419.332 353.816 420.099 351.848 420.733 349.324C422.034 344.331 422.523 336.836 419.921 329.252C417.308 321.668 412.326 316.064 408.223 312.928C406.165 311.338 404.353 310.248 403.052 309.603C402.418 309.259 401.884 309.047 401.54 308.892C401.206 308.747 401.017 308.669 401.006 308.691Z" fill="white"/>
<path d="M414.227 368.25C414.372 368.306 415.05 366.916 415.74 365.148C416.429 363.38 416.863 361.901 416.718 361.834C416.574 361.778 415.895 363.168 415.206 364.936C414.517 366.716 414.083 368.195 414.227 368.25Z" fill="white"/>
<g opacity="0.3">
<path d="M331.028 302.553C336.021 316.842 333.563 332.911 327.992 346.989C327.992 346.989 330.906 317.51 331.028 302.553Z" fill="black"/>
</g>
<g opacity="0.3">
<path d="M243.601 406.859C238.097 394.427 232.581 381.961 225.487 370.363C218.403 358.765 209.952 347.734 199.077 339.594C196.141 337.392 190.659 333.222 190.659 333.222C190.659 333.222 192.127 330.442 193.572 328.14C195.252 325.471 198.009 320.846 199.499 318.566L192.994 319.867C192.994 319.867 197.453 309.614 197.32 310.304C197.32 310.304 203.002 311.772 206.127 312.116C203.847 317.576 201.423 322.491 199.144 327.951C211.398 337.67 221.406 349.913 229.757 362.857C238.119 375.801 243.957 390.824 243.657 406.236" fill="black"/>
</g>
<path d="M220.362 211.714C220.207 211.603 219.862 211.703 219.484 212.148C219.106 212.592 218.717 213.404 218.717 214.505C218.717 215.05 218.828 215.661 219.106 216.295C219.384 216.918 219.851 217.541 220.463 218.008C221.675 218.953 223.498 219.42 225.289 218.764C227.068 218.063 228.124 216.518 228.402 215.005C228.558 214.249 228.491 213.471 228.291 212.815C228.091 212.159 227.757 211.636 227.401 211.225C226.679 210.402 225.845 210.046 225.266 209.968C224.677 209.89 224.355 210.035 224.321 210.224C224.221 210.624 225.189 211.147 225.711 212.381C225.967 212.993 226.067 213.704 225.811 214.394C225.578 215.094 224.977 215.795 224.266 216.062C223.554 216.34 222.642 216.206 221.997 215.839C221.352 215.484 220.963 214.894 220.741 214.26C220.318 212.982 220.696 211.947 220.362 211.714Z" fill="#E0E0E0"/>
<path d="M421.168 449.382C421.168 449.382 417.376 461.591 415.419 464.071C413.462 466.54 400.374 467.852 400.374 467.852L421.168 449.382Z" fill="#FFD8C5"/>
<path d="M405.489 429.966L398.227 435.793L376.677 452.406C376.677 452.406 376.81 456.398 381.659 455.487C385.595 454.742 394.324 449.927 394.324 449.927C394.324 449.927 384.072 459.557 383.716 464.06V464.883C383.716 465.873 384.094 466.829 384.783 467.552L396.76 459.545C396.76 459.545 394.191 464.06 391.678 468.742C390.866 470.243 391.266 473.29 392.501 474.457L419.178 452.073L419.355 435.404L405.489 429.966Z" fill="#FFD8C5"/>
<path d="M408.324 440.386C408.313 440.352 407.968 440.43 407.323 440.608C407.012 440.719 406.645 440.886 406.222 441.075C405.811 441.286 405.333 441.542 404.832 441.831C402.808 443.032 400.229 444.978 397.393 447.113C394.557 449.259 391.911 451.061 389.876 452.162C387.852 453.274 386.462 453.696 386.495 453.796C386.506 453.83 386.862 453.752 387.485 453.574C387.808 453.496 388.186 453.363 388.608 453.174C389.042 452.996 389.542 452.807 390.054 452.529C392.167 451.506 394.891 449.727 397.727 447.58C400.573 445.445 403.098 443.455 405.032 442.187C405.511 441.898 405.944 441.62 406.356 441.375C406.734 441.175 407.079 440.997 407.401 440.831C408.001 440.586 408.335 440.43 408.324 440.386Z" fill="#FFC2A1"/>
<path d="M410.772 448.526C410.727 448.459 409.849 449.004 408.481 449.949C407.113 450.905 405.278 452.273 403.299 453.874C401.331 455.476 399.607 456.999 398.395 458.144C397.183 459.29 396.482 460.035 396.527 460.09C396.583 460.146 397.383 459.512 398.662 458.445C400.108 457.255 401.798 455.854 403.655 454.319C405.545 452.807 407.247 451.439 408.714 450.271C410.027 449.248 410.816 448.592 410.772 448.526Z" fill="#FFC2A1"/>
<path d="M446.778 428.143C446.967 428.354 446.678 428.754 446.5 429.132C443.598 435.193 418.7 452.406 418.7 452.406L405.078 429.255C405.078 429.255 395.215 434.025 391.167 432.924C387.853 432.023 381.559 431.334 384.462 425.496C384.462 425.496 398.362 422.938 403.099 420.903C407.836 418.88 410.772 417.812 410.772 417.812C410.772 417.812 419.712 418.09 426.84 416.222C426.84 416.222 435.236 415.043 446.778 428.143Z" fill="#FFD8C5"/>
<path d="M393.168 473.901C393.223 473.968 394.413 473.001 396.326 471.444C398.361 469.787 400.952 467.696 403.81 465.372C406.734 462.993 409.347 460.802 411.193 459.167C412.116 458.344 412.85 457.677 413.351 457.188C413.851 456.71 414.107 456.432 414.085 456.398C414.029 456.332 412.839 457.299 410.927 458.856C408.892 460.513 406.301 462.603 403.443 464.927C400.518 467.296 397.905 469.498 396.059 471.132C395.136 471.955 394.402 472.622 393.902 473.112C393.401 473.59 393.146 473.868 393.168 473.901Z" fill="#FFC2A1"/>
<path d="M159.792 227.193L151.218 228.538L150.184 221.989L153.52 221.466L153.053 218.486L156.144 217.997L155.733 215.372L152.163 215.939L151.807 213.682L157.523 212.781C157.479 212.492 157.434 212.203 157.39 211.914L157.523 212.781C157.479 212.492 157.434 212.203 157.39 211.914C157.223 210.858 158.201 209.757 159.247 209.712C160.414 209.668 161.271 210.435 161.448 211.569C163.116 222.155 164.784 232.742 166.452 243.339C166.897 246.164 167.342 248.988 167.787 251.813C173.035 251.957 177.617 255.827 178.462 261.198C179.296 266.513 176.205 271.551 171.334 273.352C170.656 273.597 169.944 273.786 169.21 273.908C166.275 274.375 163.339 273.663 160.937 271.917C158.535 270.172 156.956 267.592 156.5 264.656C155.655 259.285 158.824 254.203 163.773 252.446C162.494 244.295 161.204 236.133 159.925 227.982L159.792 227.193ZM159.313 264.211C159.658 266.391 160.826 268.303 162.616 269.605C164.395 270.906 166.586 271.428 168.765 271.083C173.269 270.372 176.349 266.135 175.638 261.643C174.926 257.139 170.689 254.059 166.197 254.77C161.693 255.482 158.613 259.719 159.313 264.211Z" fill="#E0E0E0"/>
<path d="M159.312 264.211C159.424 264.211 159.045 262.877 159.679 260.72C160.013 259.663 160.613 258.407 161.714 257.317C162.782 256.205 164.372 255.315 166.229 255.015L166.084 254.537L164.361 255.293L166.229 255.015C168.03 254.748 170.121 255.104 171.878 256.283C173.635 257.439 175.003 259.408 175.347 261.687C175.603 263.4 175.314 265.145 174.547 266.58C173.813 268.037 172.634 269.193 171.322 269.916C170.01 270.661 168.564 270.961 167.23 270.939C165.884 270.906 164.65 270.55 163.649 270.005C161.603 268.926 160.502 267.269 159.98 266.113C159.457 264.945 159.379 264.2 159.312 264.211C159.29 264.211 159.301 264.4 159.357 264.745C159.412 265.09 159.524 265.59 159.768 266.213C160.246 267.436 161.325 269.193 163.449 270.383C164.494 270.972 165.795 271.384 167.219 271.428C168.631 271.473 170.177 271.173 171.589 270.394C172.99 269.638 174.258 268.415 175.058 266.858C175.881 265.312 176.204 263.444 175.926 261.609C175.548 259.163 174.069 257.05 172.189 255.827C170.31 254.57 168.064 254.215 166.162 254.526L166.307 255.004L168.108 254.181L166.162 254.526C164.183 254.871 162.515 255.849 161.425 257.039C160.291 258.207 159.702 259.541 159.401 260.642C159.101 261.765 159.112 262.677 159.157 263.288C159.223 263.9 159.29 264.223 159.312 264.211Z" fill="#263238"/>
<path d="M159.79 227.193C159.79 227.193 159.812 227.46 159.879 227.993C160.19 230.407 161.536 239.303 163.571 252.48L163.704 252.257C161.758 252.958 159.868 254.214 158.489 256.038C157.099 257.84 156.198 260.164 156.12 262.632C156.065 265.101 156.799 267.692 158.411 269.805C160.012 271.906 162.414 273.508 165.161 274.075C167.897 274.642 170.932 274.186 173.434 272.618C175.936 271.084 177.871 268.504 178.561 265.512C179.295 262.532 178.694 259.218 176.937 256.583C175.169 253.959 172.244 252.068 169.009 251.635C168.597 251.568 168.186 251.568 167.785 251.523L168.063 251.768C166.64 242.783 165.272 234.121 163.993 226.003C163.348 221.944 162.726 218.019 162.125 214.26C161.97 213.315 161.825 212.392 161.68 211.469C161.536 210.457 160.657 209.545 159.623 209.479C158.578 209.334 157.599 210.057 157.255 210.969C157.043 211.425 157.132 212.003 157.21 212.392L157.266 212.715L157.277 212.792V212.804C157.488 212.77 156.799 212.881 157.755 212.737V212.715L157.744 212.67L157.722 212.514L157.622 211.869L157.143 211.947C157.188 212.248 157.232 212.526 157.277 212.815L157.477 212.548C155.509 212.859 153.596 213.171 151.761 213.46L151.539 213.493L151.572 213.715C151.706 214.516 151.817 215.25 151.939 215.973L151.973 216.184L152.184 216.151C153.452 215.951 154.619 215.761 155.753 215.572L155.52 215.406C155.676 216.351 155.809 217.196 155.943 218.019L156.109 217.796C154.986 217.974 153.985 218.141 153.018 218.297L152.829 218.33L152.862 218.519C153.04 219.609 153.196 220.565 153.34 221.499L153.485 221.299C152.24 221.499 151.172 221.677 150.149 221.833L149.993 221.855L150.016 222.011C150.427 224.502 150.772 226.67 151.083 228.549L151.105 228.672L151.228 228.65C153.974 228.183 156.098 227.827 157.566 227.582C158.267 227.46 158.812 227.36 159.212 227.293C159.601 227.248 159.79 227.193 159.79 227.193C159.801 227.182 159.612 227.204 159.256 227.248C158.867 227.304 158.322 227.382 157.622 227.471C156.132 227.693 153.985 228.005 151.194 228.416L151.339 228.516C151.05 226.637 150.727 224.457 150.349 221.966L150.216 222.155C151.239 222 152.306 221.833 153.552 221.644L153.73 221.622L153.707 221.444C153.563 220.521 153.418 219.565 153.251 218.464L153.096 218.675C154.063 218.53 155.064 218.375 156.198 218.197L156.398 218.163L156.365 217.963C156.243 217.14 156.109 216.284 155.965 215.339L155.931 215.139L155.731 215.172C154.597 215.35 153.429 215.528 152.162 215.728L152.406 215.906C152.295 215.183 152.184 214.449 152.062 213.638L151.873 213.893C153.707 213.604 155.62 213.315 157.588 213.004L157.822 212.97L157.788 212.737C157.744 212.459 157.7 212.181 157.655 211.869L157.177 211.947L157.277 212.592L157.299 212.748L157.31 212.792V212.815C158.267 212.659 157.577 212.77 157.788 212.726V212.715L157.777 212.637L157.722 212.314C157.644 211.858 157.588 211.514 157.744 211.147C158.022 210.424 158.8 209.846 159.601 209.979C160.424 210.046 161.08 210.724 161.213 211.558C161.358 212.47 161.503 213.404 161.647 214.338C162.236 218.097 162.848 222.022 163.482 226.081C164.761 234.198 166.117 242.861 167.518 251.857L167.552 252.079L167.796 252.102C168.175 252.135 168.575 252.135 168.953 252.202C172.022 252.613 174.802 254.404 176.481 256.894C178.149 259.396 178.727 262.543 178.027 265.379C177.382 268.226 175.547 270.683 173.167 272.151C170.799 273.641 167.897 274.097 165.294 273.552C162.67 273.03 160.368 271.495 158.834 269.493C157.288 267.492 156.565 265.012 156.61 262.643C156.665 260.275 157.522 258.04 158.845 256.305C160.157 254.537 161.97 253.325 163.838 252.635L163.993 252.58L163.971 252.413C161.858 239.247 160.402 230.373 159.957 227.971L159.89 227.982L159.968 227.971C159.857 227.415 159.79 227.193 159.79 227.193Z" fill="#263238"/>
<path d="M178.684 259.419L164.962 255.805L157.812 256.728C156.5 256.894 155.355 257.728 154.81 258.94L150.184 269.004C150.184 269.004 143.49 274.52 144.268 277.867C145.057 281.214 151.24 311.127 151.24 311.127L169.655 310.571C169.655 310.571 174.815 304.655 175.204 296.582C175.404 292.378 173.814 289.81 174.203 287.586C174.47 286.062 173.525 283.349 173.113 281.258L172.557 279.234L173.78 279.813C176.038 280.88 178.784 279.501 179.085 277.022C179.096 276.91 179.107 276.81 179.118 276.699C179.24 274.308 178.328 271.973 176.616 270.294L169.666 263.466C169.655 263.488 177.305 267.914 178.684 259.419Z" fill="#FFD8C5"/>
<path d="M155.297 276.143C155.308 276.188 155.753 276.132 156.565 275.999C157.499 275.832 158.633 275.632 159.979 275.387C161.458 275.098 163.17 274.775 165.038 274.408C165.995 274.23 166.984 273.975 167.996 273.897C168.997 273.808 170.076 273.997 170.743 274.775C171.421 275.543 171.688 276.621 171.911 277.622C172.133 278.645 172.344 279.646 172.544 280.591C172.911 282.493 173.434 284.183 173.445 285.606C173.478 287.041 172.756 288.064 172.122 288.509C171.477 288.964 170.976 288.92 170.988 288.987C170.988 288.998 171.099 289.031 171.321 289.009C171.544 288.998 171.877 288.92 172.244 288.698C172.978 288.286 173.834 287.163 173.857 285.617C173.901 284.083 173.412 282.393 173.078 280.491C172.889 279.535 172.689 278.534 172.478 277.511C172.255 276.488 172 275.331 171.188 274.397C170.354 273.43 169.019 273.23 167.963 273.341C166.873 273.441 165.895 273.708 164.938 273.897C163.081 274.308 161.38 274.675 159.912 274.998C158.578 275.309 157.455 275.576 156.532 275.787C155.72 275.976 155.286 276.099 155.297 276.143Z" fill="#FFC2A1"/>
<path d="M162.46 291.344C162.438 291.322 162.416 291.922 163.15 292.456C163.506 292.712 164.05 292.901 164.673 292.89C165.296 292.89 165.974 292.723 166.697 292.501C168.109 292.045 169.922 291.289 171.089 289.52C172.246 287.73 172.112 285.206 171.178 283.093C170.7 282.026 170.2 281.025 169.466 280.146C169.099 279.713 168.621 279.346 168.076 279.157C167.531 278.968 166.964 278.968 166.452 279.045C164.451 279.435 162.794 280.08 161.404 280.658C160.025 281.247 158.958 281.837 158.235 282.27C157.512 282.704 157.145 282.982 157.167 283.015C157.212 283.104 158.791 282.126 161.56 281.047C162.938 280.524 164.64 279.924 166.519 279.59C166.986 279.535 167.464 279.546 167.887 279.701C168.321 279.857 168.71 280.157 169.032 280.535C169.677 281.314 170.189 282.326 170.634 283.338C171.523 285.35 171.634 287.652 170.622 289.265C169.61 290.877 167.92 291.656 166.564 292.145C165.863 292.378 165.218 292.567 164.662 292.601C164.095 292.645 163.617 292.512 163.272 292.312C162.572 291.845 162.505 291.322 162.46 291.344Z" fill="#FFC2A1"/>
<path d="M162.638 289.354C162.615 289.42 162.96 289.609 163.572 289.676C164.183 289.754 165.073 289.665 165.929 289.22C166.785 288.775 167.364 288.097 167.664 287.563C167.964 287.018 168.009 286.64 167.942 286.607C167.797 286.529 167.197 287.919 165.662 288.709C164.139 289.498 162.649 289.187 162.638 289.354Z" fill="#FFC2A1"/>
<path d="M161.29 293.079C161.379 293.201 162.247 292.69 162.87 291.656C163.503 290.621 163.559 289.621 163.414 289.598C163.248 289.565 162.958 290.421 162.38 291.355C161.813 292.289 161.19 292.945 161.29 293.079Z" fill="#FFC2A1"/>
<path d="M161.67 303.265C161.793 303.343 162.849 301.152 162.738 298.227C162.66 295.303 161.459 293.19 161.337 293.268C161.17 293.335 162.082 295.459 162.16 298.25C162.271 301.03 161.492 303.209 161.67 303.265Z" fill="#FFC2A1"/>
<path d="M162.003 294.158C161.936 294.324 164.294 294.936 166.329 296.96C168.408 298.95 169.064 301.297 169.231 301.23C169.298 301.219 169.231 300.607 168.875 299.695C168.519 298.783 167.808 297.605 166.74 296.548C165.661 295.503 164.46 294.825 163.549 294.491C162.626 294.146 162.025 294.091 162.003 294.158Z" fill="#FFC2A1"/>
<path d="M167.65 271.261C167.494 271.273 167.394 271.829 167.583 272.474C167.772 273.13 168.15 273.541 168.284 273.474C168.428 273.397 168.306 272.896 168.139 272.318C167.972 271.74 167.805 271.261 167.65 271.261Z" fill="#FFC2A1"/>
<path d="M151.315 271.462C151.36 271.528 152.405 270.961 154.062 270.005C155.719 269.037 157.987 267.67 160.478 266.135C161.724 265.368 162.913 264.689 164.081 264.256C165.238 263.811 166.35 263.655 167.284 263.7C169.174 263.778 170.141 264.601 170.186 264.5C170.208 264.478 169.997 264.245 169.53 263.967C169.063 263.689 168.296 263.377 167.306 263.288C166.327 263.188 165.126 263.322 163.892 263.755C162.658 264.178 161.412 264.879 160.167 265.646C157.676 267.191 155.441 268.604 153.839 269.66C152.238 270.717 151.271 271.395 151.315 271.462Z" fill="#FFC2A1"/>
<path d="M159.804 227.582C159.96 227.56 159.593 224.19 158.981 220.065C158.37 215.939 157.747 212.603 157.591 212.626C157.436 212.648 157.802 216.017 158.414 220.143C159.026 224.279 159.648 227.604 159.804 227.582Z" fill="#263238"/>
<g opacity="0.3">
<path d="M157.592 212.993C156.246 217.607 157.347 222.8 159.727 226.826C158.926 222.767 158.125 217.274 157.592 212.993Z" fill="black"/>
</g>
<path d="M34.4465 411.262C39.5951 406.303 47.3346 404.201 54.2846 405.869C61.2346 407.537 67.1727 412.919 69.5079 419.68L66.9726 429.488C66.0051 426.141 63.9479 422.916 60.7453 421.537C57.4205 420.103 53.573 420.926 50.1702 422.16C46.7675 423.394 43.4315 425.051 39.8175 425.274C36.2035 425.496 32.1336 423.783 31.0438 420.336C30.043 417.089 32.0001 413.62 34.4465 411.262Z" fill="#2861F0"/>
<g opacity="0.3">
<path d="M34.4465 411.262C39.5951 406.303 47.3346 404.201 54.2846 405.869C61.2346 407.537 67.1727 412.919 69.5079 419.68L66.9726 429.488C66.0051 426.141 63.9479 422.916 60.7453 421.537C57.4205 420.103 53.573 420.926 50.1702 422.16C46.7675 423.394 43.4315 425.051 39.8175 425.274C36.2035 425.496 32.1336 423.783 31.0438 420.336C30.043 417.089 32.0001 413.62 34.4465 411.262Z" fill="black"/>
</g>
<path d="M95.5851 444C100.878 438.962 100.622 430.2 97.9759 423.394C95.3293 416.578 89.5692 411.351 83.1196 407.904C70.6318 401.221 55.0193 400.709 42.1201 406.581C48.4585 406.792 54.5856 410.384 57.8549 415.822C60.7572 420.648 61.4022 426.497 63.8041 431.59C66.4729 437.261 71.3768 441.842 77.226 444.133C83.064 446.402 89.7693 446.357 95.5851 444Z" fill="#2861F0"/>
<path d="M98.1306 413.764C103.991 406.837 104.78 395.728 103.913 386.687C103.046 377.658 100.955 368.562 102.378 359.599C103.223 354.295 105.281 349.224 105.981 343.886C106.682 338.56 105.692 332.522 101.555 329.085C96.8073 325.127 89.3347 326.061 84.3974 329.775C79.4601 333.489 76.6022 339.327 74.5117 345.132C69.9191 357.909 68.2289 372.075 72.0097 385.108C75.7794 398.152 84.642 409.806 97.6302 413.742" fill="#2861F0"/>
<path d="M100.943 470.576C100.954 470.576 100.965 470.298 100.965 469.776C100.954 469.253 100.965 468.486 100.92 467.485C100.843 465.495 100.653 462.626 100.209 459.101C99.7641 455.576 99.0635 451.394 97.9515 446.824C96.8618 442.243 94.9936 437.361 92.347 432.602C89.7005 427.842 86.4646 423.739 83.1842 420.359C79.9038 416.978 76.5455 414.343 73.5876 412.374C72.1198 411.362 70.7075 410.595 69.4843 409.883C68.2277 409.227 67.138 408.683 66.2484 408.26C65.3588 407.893 64.6582 407.593 64.1356 407.37C63.6463 407.17 63.3905 407.081 63.3905 407.092C63.3794 407.103 63.6241 407.237 64.1022 407.459C64.6137 407.704 65.3032 408.026 66.1705 408.427C67.049 408.883 68.1276 409.45 69.362 410.117C70.5629 410.851 71.9641 411.629 73.4097 412.663C76.3342 414.654 79.6369 417.301 82.8839 420.67C86.1087 424.039 89.3113 428.12 91.9356 432.835C97.3288 442.265 98.8078 452.184 99.8753 459.145C100.364 462.659 100.609 465.517 100.742 467.496C100.798 468.453 100.843 469.209 100.876 469.776C100.898 470.298 100.931 470.576 100.943 470.576Z" fill="#263238"/>
<path d="M151.54 386.442C162.393 392.992 162.36 398.952 160.547 404.579C158.735 410.206 152.074 414.109 146.547 412.007C143.422 410.817 141.165 408.104 139.23 405.38C137.295 402.655 135.483 399.731 132.781 397.774C130.935 396.439 128.522 395.661 126.309 395.928L151.54 386.442Z" fill="#2861F0"/>
<g opacity="0.3">
<path d="M151.54 386.442C162.393 392.992 162.36 398.952 160.547 404.579C158.735 410.206 152.074 414.109 146.547 412.007C143.422 410.817 141.165 408.104 139.23 405.38C137.295 402.655 135.483 399.731 132.781 397.774C130.935 396.439 128.522 395.661 126.309 395.928L151.54 386.442Z" fill="black"/>
</g>
<path d="M159.836 393.926C157 390.001 149.984 388.867 145.558 390.824C141.132 392.781 137.885 396.662 134.983 400.532C132.08 404.401 129.256 408.493 125.23 411.184C121.205 413.875 115.589 414.854 111.586 412.141C108.951 410.362 107.427 407.259 106.949 404.112C106.471 400.965 106.927 397.763 107.583 394.649C108.539 390.101 110.107 385.342 113.743 382.45C117.802 379.226 123.44 379.07 128.611 379.248C134.56 379.437 140.587 379.893 146.169 381.95C151.774 384.018 157.467 388.466 159.836 393.926Z" fill="#2861F0"/>
<path d="M109.961 461.881C109.972 461.881 109.983 461.803 109.994 461.647C110.005 461.458 110.016 461.236 110.027 460.946C110.05 460.29 110.083 459.39 110.116 458.255C110.183 455.876 110.283 452.506 110.405 448.347C110.539 444.166 110.706 439.185 111.006 433.669C111.317 428.154 111.729 422.082 112.563 415.766C112.985 412.608 113.486 409.528 114.364 406.67C115.243 403.812 116.421 401.154 117.689 398.708C118.979 396.272 120.391 394.06 121.881 392.125C123.382 390.19 124.939 388.511 126.463 387.098C129.543 384.285 132.49 382.562 134.58 381.561C135.114 381.316 135.57 381.083 135.993 380.916C136.404 380.76 136.76 380.616 137.049 380.504C137.316 380.393 137.527 380.315 137.694 380.237C137.838 380.171 137.916 380.137 137.905 380.137C137.905 380.126 137.827 380.148 137.672 380.193C137.494 380.249 137.271 380.326 137.004 380.415C136.704 380.515 136.337 380.638 135.926 380.782C135.503 380.938 135.036 381.16 134.491 381.394C132.356 382.35 129.354 384.04 126.218 386.854C124.661 388.266 123.082 389.956 121.548 391.891C120.024 393.837 118.59 396.061 117.278 398.519C115.977 400.976 114.787 403.656 113.897 406.547C113.008 409.45 112.496 412.552 112.073 415.721C111.228 422.06 110.839 428.142 110.55 433.669C110.272 439.196 110.139 444.177 110.05 448.37C109.961 452.551 109.927 455.942 109.916 458.278C109.916 459.423 109.916 460.313 109.916 460.969C109.916 461.258 109.927 461.48 109.927 461.669C109.95 461.803 109.949 461.881 109.961 461.881Z" fill="#263238"/>
<path d="M106.06 466.785C106.06 466.785 106.671 465.172 107.249 462.125C107.817 459.078 108.239 454.564 107.75 449.037C107.283 443.499 105.871 437.005 103.613 430.044C101.389 423.061 98.3646 415.599 95.7848 407.57C94.506 403.556 93.4162 399.586 92.6712 395.683C91.915 391.78 91.4369 387.977 91.1366 384.341C90.525 377.057 90.614 370.463 90.7919 364.936C90.981 359.41 91.2701 354.94 91.4591 351.848C91.5481 350.325 91.6148 349.135 91.6704 348.29C91.6927 347.901 91.7038 347.6 91.7149 347.367C91.726 347.155 91.726 347.055 91.7149 347.055C91.7038 347.055 91.6927 347.155 91.6704 347.367C91.6482 347.6 91.6148 347.901 91.5814 348.29C91.5147 349.135 91.4146 350.325 91.2812 351.837C91.0366 354.917 90.6918 359.388 90.4583 364.925C90.2359 370.452 90.1136 377.068 90.7029 384.374C90.9921 388.033 91.4703 391.858 92.2264 395.772C92.9715 399.698 94.0612 403.69 95.3511 407.715C97.9421 415.766 100.978 423.227 103.224 430.177C105.492 437.116 106.938 443.566 107.438 449.07C107.972 454.575 107.605 459.056 107.094 462.103C106.827 463.626 106.582 464.794 106.371 465.584C106.282 465.962 106.204 466.251 106.149 466.484C106.071 466.673 106.048 466.785 106.06 466.785Z" fill="#263238"/>
<path d="M72.1777 464.038H136.896L138.375 451.583H72.1777V464.038Z" fill="#455A64"/>
<path d="M129.957 462.626L121.862 500H86.6889L79.1162 462.626H129.957Z" fill="#455A64"/>
<path d="M72.1763 464.038C72.1763 464.205 86.4099 464.305 103.957 464.26C121.516 464.216 135.738 464.038 135.738 463.86C135.738 463.693 121.516 463.593 103.957 463.638C86.3988 463.693 72.1763 463.871 72.1763 464.038Z" fill="#455A64"/>
<path d="M82.6399 480.006C82.7177 480.129 84.6193 478.216 88.489 476.559C90.4128 475.736 92.837 475.013 95.5947 474.847C98.3525 474.658 101.355 475.358 104.391 476.392C107.438 477.415 110.273 478.661 113.076 479.228C115.878 479.739 118.458 479.584 120.559 479.239C122.672 478.872 124.307 478.272 125.363 477.716C125.886 477.426 126.286 477.193 126.531 476.993C126.787 476.804 126.909 476.704 126.898 476.681C126.864 476.637 126.331 477.015 125.263 477.504C124.196 477.982 122.561 478.505 120.493 478.816C118.424 479.094 115.889 479.206 113.187 478.672C110.496 478.094 107.66 476.837 104.591 475.814C101.533 474.769 98.4192 474.046 95.5614 474.279C92.7258 474.48 90.2571 475.269 88.3111 476.159C86.354 477.037 84.9306 478.027 83.9965 478.761C83.5295 479.128 83.1848 479.439 82.9624 479.662C82.74 479.873 82.6288 479.995 82.6399 480.006Z" fill="white"/>
<path d="M71.5991 464.093C71.5991 464.26 86.1552 464.405 104.114 464.405C122.073 464.405 136.629 464.271 136.629 464.093C136.629 463.916 122.073 463.782 104.114 463.782C86.1663 463.782 71.5991 463.927 71.5991 464.093Z" fill="#263238"/>
</g>
</g>
<defs>
<clipPath id="clip0_727_164">
<rect width="507" height="500" fill="white"/>
</clipPath>
</defs>
</svg>
