<svg width="600" height="525" viewBox="0 0 600 525" fill="none" xmlns="http://www.w3.org/2000/svg">
<g clip-path="url(#clip0_727_2)">
<mask id="mask0_727_2" style="mask-type:luminance" maskUnits="userSpaceOnUse" x="0" y="0" width="600" height="525">
<path d="M600 0H0V525H600V0Z" fill="white"/>
</mask>
<g mask="url(#mask0_727_2)">
<path d="M245.418 14.6889L203.928 0L162.844 14.4927C157.593 16.9315 153 18.4032 153 23.2108V47.1924C153 63.8436 157.425 80.3406 166.527 94.9174C174.186 107.182 186.061 119.796 204.32 127.827C221.11 122.445 233.642 108.121 241.316 95.8565C250.417 81.2937 254.842 64.7827 254.842 48.1315V26.5606C254.856 19.6927 251.16 16.3428 245.418 14.6889Z" fill="#F5F5F5"/>
<path d="M217.707 53.3877C217.707 47.0384 212.568 41.8945 206.224 41.8945C199.881 41.8945 194.742 47.0384 194.742 53.3877C194.742 58.6438 198.285 63.0309 203.088 64.3904V81.5742H209.361V64.4044C214.164 63.0309 217.707 58.6438 217.707 53.3877Z" fill="#EBEBEB"/>
<path d="M290.977 476.434V519.968H354.591H424.745V476.434H290.977Z" fill="#F5F5F5"/>
<path d="M285.375 464.268V476.434H429.422V464.268H354.591H285.375Z" fill="#EBEBEB"/>
<path d="M357.39 519.968H424.744V476.434H429.421V464.268H354.59V475.313L357.39 519.968Z" fill="#EBEBEB"/>
<path d="M336.807 483.456H309.684V490.016H336.807V483.456Z" fill="#E0E0E0"/>
<path d="M341.034 498.201H306.195V512.035H341.034V498.201Z" fill="white"/>
<path d="M311.559 420.79V464.324H375.173H445.327V420.79H311.559Z" fill="#F5F5F5"/>
<path d="M305.945 408.61V420.79H450.006V408.61H375.175H305.945Z" fill="#EBEBEB"/>
<path d="M377.976 464.324H445.33V420.79H450.007V408.61H375.176V419.655L377.976 464.324Z" fill="#EBEBEB"/>
<path d="M357.393 427.812H330.27V434.372H357.393V427.812Z" fill="#E0E0E0"/>
<path d="M361.62 442.557H326.781V456.391H361.62V442.557Z" fill="white"/>
<path d="M599.516 520.305C599.516 520.501 465.299 520.669 299.772 520.669C134.189 520.669 0 520.515 0 520.305C0 520.094 134.189 519.94 299.772 519.94C465.299 519.94 599.516 520.108 599.516 520.305Z" fill="#263238"/>
<path d="M520.683 323.123H270.537C265.468 323.123 261.352 319.002 261.352 313.929V83.5872C261.352 78.5133 265.468 74.3926 270.537 74.3926H520.683C525.752 74.3926 529.869 78.5133 529.869 83.5872V313.943C529.869 319.016 525.752 323.123 520.683 323.123Z" fill="white"/>
<path d="M520.685 323.123C520.685 323.123 520.909 323.095 521.343 323.067C521.777 323.039 522.435 322.941 523.261 322.703C524.087 322.45 525.096 322.016 526.118 321.245C527.14 320.474 528.19 319.367 528.904 317.839C529.703 316.325 529.857 314.405 529.787 312.317C529.787 310.228 529.773 307.93 529.773 305.449C529.759 300.487 529.759 294.755 529.745 288.307C529.717 262.503 529.675 225.192 529.633 179.093C529.619 156.037 529.605 130.779 529.591 103.672C529.577 96.9024 529.563 90.0205 529.549 83.0124C529.38 79.6205 527.042 76.4248 523.793 75.2474C522.183 74.5747 520.433 74.6868 518.626 74.6868C516.834 74.6868 515.042 74.6868 513.235 74.6868C498.812 74.6868 483.955 74.7008 468.734 74.7008C407.822 74.7148 340.861 74.7148 270.581 74.7288C268.466 74.7288 266.38 75.4997 264.784 76.8873C263.187 78.2609 262.109 80.2232 261.829 82.2976C261.689 83.3207 261.745 84.428 261.731 85.5213V88.7871C261.731 90.9596 261.731 93.1461 261.731 95.3186C261.731 104.009 261.731 112.643 261.731 121.206C261.731 138.334 261.731 155.224 261.731 171.819C261.717 204.995 261.717 237.008 261.703 267.493C261.703 282.743 261.689 297.6 261.689 312.05C261.703 312.947 261.661 313.873 261.731 314.728C261.829 315.583 261.997 316.452 262.333 317.25C262.977 318.862 264.098 320.25 265.512 321.231C266.926 322.212 268.606 322.759 270.315 322.801C272.079 322.801 273.83 322.815 275.58 322.815C282.581 322.815 289.471 322.815 296.234 322.829C323.315 322.843 348.548 322.857 371.583 322.871C417.638 322.927 454.914 322.955 480.693 322.983C493.561 323.011 503.559 323.039 510.351 323.053C513.739 323.067 516.316 323.081 518.066 323.095C519.789 323.109 520.685 323.123 520.685 323.123C520.685 323.123 519.789 323.151 518.052 323.165C516.302 323.179 513.725 323.179 510.337 323.207C503.545 323.221 493.547 323.249 480.679 323.277C454.914 323.305 417.638 323.347 371.569 323.39C348.534 323.404 323.301 323.418 296.22 323.432C289.443 323.432 282.567 323.432 275.566 323.446C273.816 323.446 272.051 323.446 270.287 323.432C268.466 323.39 266.646 322.801 265.134 321.75C263.621 320.698 262.417 319.213 261.731 317.489C261.367 316.634 261.185 315.709 261.087 314.784C261.017 313.845 261.059 312.962 261.045 312.05C261.045 297.614 261.031 282.743 261.031 267.493C261.031 237.008 261.017 205.009 261.003 171.819C261.003 155.224 261.003 138.348 261.003 121.206C261.003 112.643 261.003 104.009 261.003 95.3186C261.003 93.1461 261.003 90.9736 261.003 88.7871V85.5213C261.017 84.428 260.947 83.3488 261.115 82.1995C261.423 79.9429 262.571 77.8124 264.308 76.3407C266.03 74.841 268.298 74 270.581 74C340.861 74.014 407.822 74.014 468.734 74.028C483.955 74.028 498.812 74.042 513.235 74.042C515.042 74.042 516.834 74.042 518.626 74.042C520.377 74.042 522.295 73.9299 524.017 74.6588C527.49 75.9202 529.997 79.3402 530.165 82.9703C530.165 89.9784 530.179 96.8744 530.179 103.658C530.165 130.765 530.151 156.023 530.137 179.079C530.081 225.178 530.053 262.503 530.025 288.293C530.011 294.741 529.997 300.459 529.997 305.435C529.997 307.916 529.983 310.2 529.983 312.303C530.053 314.377 529.871 316.367 529.058 317.895C528.33 319.451 527.252 320.572 526.216 321.329C525.166 322.1 524.143 322.521 523.317 322.759C522.477 322.983 521.819 323.067 521.371 323.081C520.895 323.123 520.685 323.123 520.685 323.123Z" fill="#263238"/>
<path d="M281.614 91.6181C281.614 94.1831 279.542 96.2715 276.965 96.2715C274.403 96.2715 272.316 94.1971 272.316 91.6181C272.316 89.0532 274.389 86.9648 276.965 86.9648C279.542 86.9788 281.614 89.0532 281.614 91.6181Z" fill="#263238"/>
<path d="M290.536 96.2715C293.103 96.2715 295.185 94.1881 295.185 91.6181C295.185 89.0481 293.103 86.9648 290.536 86.9648C287.968 86.9648 285.887 89.0481 285.887 91.6181C285.887 94.1881 287.968 96.2715 290.536 96.2715Z" fill="#263238"/>
<path d="M304.09 96.2715C306.658 96.2715 308.739 94.1881 308.739 91.6181C308.739 89.0481 306.658 86.9648 304.09 86.9648C301.523 86.9648 299.441 89.0481 299.441 91.6181C299.441 94.1881 301.523 96.2715 304.09 96.2715Z" fill="#263238"/>
<path d="M529.871 104.808C529.871 105.004 469.757 105.172 395.626 105.172C321.467 105.172 261.367 105.004 261.367 104.808C261.367 104.611 321.467 104.443 395.626 104.443C469.757 104.443 529.871 104.597 529.871 104.808Z" fill="#263238"/>
<path d="M433.545 198.506C433.545 198.506 433.657 198.351 433.867 198.071C433.923 198.001 433.979 197.917 434.049 197.833C434.105 197.735 434.161 197.637 434.231 197.524C434.357 197.3 434.525 197.034 434.637 196.711C434.708 196.557 434.778 196.389 434.848 196.207C434.904 196.025 434.96 195.828 435.016 195.618C435.086 195.408 435.114 195.198 435.156 194.959C435.184 194.721 435.254 194.497 435.254 194.231C435.366 193.221 435.296 192.044 435.1 190.741C434.694 188.134 433.587 185.064 431.907 181.728C430.213 178.378 427.888 174.79 425.032 171.034C422.175 167.278 418.744 163.409 414.782 159.513C410.833 155.63 406.352 151.72 401.339 148.019C398.832 146.169 396.186 144.375 393.385 142.693C390.599 140.997 387.658 139.427 384.55 138.054C381.455 136.708 378.178 135.531 374.72 134.97C372.997 134.704 371.219 134.578 369.483 134.844C368.614 134.984 367.76 135.223 366.948 135.573C366.15 135.965 365.422 136.47 364.82 137.129C364.245 137.802 363.811 138.586 363.517 139.413C363.251 140.254 363.111 141.137 363.069 142.02C362.999 143.786 363.335 145.538 363.797 147.22C364.75 150.584 366.276 153.71 367.97 156.639C369.679 159.569 371.583 162.316 373.571 164.895C375.56 167.474 377.646 169.913 379.761 172.197C384.003 176.766 388.386 180.775 392.699 184.265C397.012 187.755 401.255 190.727 405.302 193.137C409.348 195.548 413.185 197.454 416.7 198.758C420.201 200.061 423.379 200.804 426.012 200.916C427.328 200.972 428.504 200.902 429.484 200.678C429.737 200.636 429.961 200.552 430.185 200.496C430.409 200.44 430.633 200.37 430.815 200.286C431.011 200.201 431.207 200.131 431.375 200.061C431.543 199.977 431.711 199.879 431.865 199.795C432.173 199.641 432.411 199.445 432.635 199.29C432.747 199.206 432.845 199.15 432.929 199.08C433.013 199.01 433.083 198.94 433.139 198.87C433.405 198.632 433.545 198.506 433.545 198.506C433.545 198.506 433.419 198.632 433.167 198.884C433.097 198.954 433.027 199.024 432.957 199.094C432.873 199.164 432.775 199.234 432.663 199.318C432.453 199.473 432.215 199.669 431.907 199.823C431.753 199.907 431.599 200.005 431.417 200.089C431.235 200.159 431.053 200.244 430.843 200.328C430.647 200.412 430.437 200.482 430.199 200.538C429.975 200.594 429.737 200.692 429.484 200.72C428.49 200.944 427.314 201.028 425.984 200.972C423.337 200.874 420.145 200.145 416.63 198.842C413.101 197.552 409.264 195.66 405.204 193.249C401.143 190.839 396.9 187.867 392.573 184.377C388.26 180.887 383.863 176.879 379.607 172.309C377.478 170.025 375.392 167.586 373.403 164.993C371.401 162.414 369.497 159.653 367.774 156.723C366.08 153.78 364.526 150.654 363.573 147.248C363.111 145.552 362.775 143.786 362.845 141.992C362.873 141.095 363.027 140.198 363.293 139.329C363.601 138.474 364.035 137.661 364.638 136.975C365.254 136.302 366.01 135.769 366.822 135.377C367.648 134.998 368.53 134.76 369.412 134.62C371.191 134.354 372.983 134.48 374.72 134.746C378.192 135.307 381.483 136.498 384.592 137.844C387.7 139.217 390.655 140.801 393.441 142.497C396.242 144.193 398.888 145.987 401.409 147.837C406.436 151.551 410.917 155.462 414.866 159.358C418.814 163.255 422.245 167.151 425.102 170.908C427.958 174.664 430.283 178.28 431.963 181.644C433.643 184.994 434.75 188.078 435.142 190.699C435.338 192.002 435.394 193.193 435.282 194.203C435.268 194.455 435.212 194.693 435.17 194.931C435.128 195.17 435.1 195.38 435.03 195.59C434.974 195.8 434.918 195.997 434.862 196.179C434.792 196.361 434.722 196.529 434.652 196.697C434.525 197.02 434.371 197.286 434.231 197.51C434.161 197.623 434.105 197.735 434.049 197.819C433.979 197.903 433.923 197.987 433.867 198.057C433.657 198.365 433.545 198.506 433.545 198.506Z" fill="#2861F0"/>
<path d="M446.246 167.796C446.246 167.796 446.232 167.614 446.204 167.264C446.204 167.179 446.19 167.081 446.176 166.969C446.162 166.857 446.133 166.745 446.105 166.619C446.049 166.367 445.993 166.058 445.867 165.736C445.811 165.568 445.755 165.399 445.685 165.217C445.601 165.049 445.503 164.867 445.419 164.671C445.335 164.474 445.209 164.292 445.083 164.096C444.957 163.9 444.845 163.689 444.677 163.493C444.089 162.666 443.249 161.839 442.241 160.998C440.21 159.316 437.34 157.761 433.853 156.401C430.366 155.027 426.236 153.892 421.615 152.995C416.994 152.098 411.841 151.495 406.31 151.229C400.778 150.963 394.841 151.033 388.638 151.622C385.543 151.916 382.365 152.35 379.158 152.939C375.952 153.542 372.703 154.313 369.482 155.364C366.276 156.429 363.041 157.733 360.1 159.611C358.644 160.564 357.23 161.643 356.11 163.003C355.549 163.689 355.073 164.432 354.709 165.231C354.373 166.044 354.177 166.913 354.163 167.81C354.177 168.693 354.373 169.576 354.709 170.389C355.073 171.202 355.549 171.945 356.11 172.632C357.23 173.991 358.644 175.085 360.1 176.024C363.041 177.916 366.276 179.205 369.482 180.271C372.703 181.322 375.952 182.107 379.158 182.695C382.365 183.298 385.529 183.719 388.638 184.013C394.841 184.602 400.778 184.658 406.324 184.405C411.855 184.139 416.994 183.536 421.629 182.639C426.25 181.742 430.38 180.607 433.867 179.233C437.354 177.874 440.21 176.318 442.255 174.636C443.263 173.795 444.103 172.968 444.691 172.141C444.859 171.945 444.971 171.735 445.097 171.539C445.223 171.342 445.349 171.16 445.433 170.964C445.531 170.768 445.615 170.585 445.699 170.417C445.769 170.235 445.825 170.067 445.881 169.899C446.007 169.576 446.063 169.268 446.12 169.016C446.148 168.889 446.175 168.763 446.19 168.665C446.204 168.553 446.204 168.455 446.218 168.371C446.232 167.978 446.246 167.796 446.246 167.796C446.246 167.796 446.246 167.978 446.218 168.329C446.218 168.413 446.204 168.525 446.204 168.623C446.19 168.735 446.162 168.847 446.134 168.988C446.078 169.24 446.035 169.548 445.909 169.871C445.853 170.039 445.797 170.207 445.727 170.389C445.643 170.571 445.559 170.754 445.461 170.936C445.377 171.132 445.251 171.328 445.125 171.524C444.999 171.721 444.887 171.945 444.719 172.141C444.131 172.982 443.305 173.823 442.283 174.664C440.252 176.36 437.382 177.93 433.895 179.303C430.408 180.691 426.278 181.84 421.643 182.737C417.008 183.648 411.869 184.251 406.324 184.531C400.778 184.798 394.841 184.742 388.624 184.167C385.515 183.873 382.337 183.452 379.13 182.85C375.924 182.261 372.661 181.476 369.426 180.425C366.206 179.36 362.971 178.056 359.988 176.164C358.518 175.211 357.09 174.117 355.942 172.73C355.367 172.043 354.877 171.272 354.513 170.445C354.177 169.604 353.967 168.707 353.953 167.782C353.967 166.871 354.177 165.96 354.527 165.119C354.891 164.292 355.395 163.521 355.956 162.834C357.104 161.447 358.532 160.354 360.002 159.401C362.971 157.508 366.206 156.191 369.426 155.14C372.661 154.088 375.91 153.303 379.13 152.715C382.337 152.112 385.515 151.692 388.624 151.397C394.841 150.823 400.778 150.753 406.324 151.033C411.869 151.313 417.008 151.93 421.643 152.827C426.278 153.738 430.408 154.887 433.895 156.261C437.382 157.634 440.252 159.204 442.283 160.9C443.305 161.741 444.131 162.582 444.719 163.423C444.887 163.619 444.999 163.844 445.125 164.04C445.251 164.236 445.377 164.432 445.461 164.629C445.559 164.825 445.643 165.007 445.727 165.175C445.797 165.357 445.853 165.54 445.909 165.694C446.035 166.016 446.092 166.324 446.134 166.577C446.162 166.703 446.19 166.829 446.204 166.941C446.204 167.053 446.218 167.151 446.218 167.236C446.246 167.614 446.246 167.796 446.246 167.796Z" fill="#2861F0"/>
<path d="M429.415 129.56C429.415 129.56 429.261 129.462 428.967 129.266C428.897 129.21 428.813 129.168 428.715 129.098C428.617 129.041 428.505 128.999 428.393 128.943C428.155 128.831 427.889 128.691 427.553 128.593C427.385 128.537 427.217 128.481 427.035 128.425C426.839 128.383 426.642 128.341 426.432 128.299C426.222 128.243 425.998 128.229 425.774 128.215C425.536 128.2 425.298 128.158 425.046 128.158C424.038 128.116 422.862 128.271 421.587 128.551C419.011 129.126 416.028 130.443 412.822 132.363C409.601 134.284 406.184 136.848 402.642 139.96C399.099 143.072 395.472 146.772 391.874 150.977C388.275 155.196 384.69 159.933 381.343 165.203C379.677 167.838 378.067 170.599 376.582 173.515C375.084 176.416 373.726 179.458 372.578 182.653C371.443 185.849 370.505 189.199 370.183 192.675C370.043 194.413 370.029 196.193 370.421 197.917C370.617 198.772 370.911 199.613 371.331 200.398C371.766 201.169 372.34 201.855 373.026 202.416C373.74 202.949 374.552 203.327 375.392 203.565C376.246 203.776 377.129 203.86 378.011 203.832C379.775 203.776 381.497 203.327 383.136 202.752C386.426 201.575 389.437 199.823 392.238 197.931C395.038 196.025 397.643 193.936 400.079 191.764C402.516 189.591 404.798 187.349 406.927 185.078C411.183 180.523 414.88 175.869 418.059 171.328C421.237 166.787 423.912 162.344 426.04 158.139C428.169 153.934 429.793 149.968 430.857 146.379C431.908 142.791 432.44 139.568 432.37 136.933C432.328 135.615 432.188 134.452 431.894 133.471C431.838 133.218 431.739 132.994 431.669 132.784C431.599 132.56 431.515 132.349 431.417 132.167C431.319 131.971 431.235 131.789 431.151 131.62C431.053 131.452 430.955 131.298 430.857 131.158C430.689 130.85 430.479 130.625 430.311 130.429C430.227 130.331 430.157 130.233 430.073 130.149C429.989 130.079 429.919 130.009 429.849 129.953C429.541 129.686 429.415 129.56 429.415 129.56C429.415 129.56 429.555 129.672 429.821 129.91C429.891 129.967 429.961 130.037 430.045 130.107C430.129 130.191 430.199 130.275 430.283 130.373C430.451 130.569 430.661 130.793 430.843 131.102C430.941 131.242 431.039 131.396 431.137 131.564C431.221 131.733 431.319 131.929 431.403 132.111C431.501 132.293 431.585 132.517 431.669 132.728C431.739 132.952 431.852 133.176 431.908 133.429C432.202 134.41 432.356 135.573 432.412 136.905C432.51 139.554 431.978 142.791 430.941 146.393C429.891 149.996 428.267 153.976 426.152 158.195C424.024 162.414 421.363 166.857 418.185 171.412C415.006 175.968 411.309 180.635 407.053 185.19C404.924 187.475 402.642 189.717 400.191 191.89C397.755 194.062 395.136 196.165 392.336 198.071C389.521 199.977 386.51 201.729 383.192 202.921C381.539 203.495 379.789 203.958 377.997 204.014C377.101 204.042 376.19 203.958 375.308 203.748C374.44 203.509 373.6 203.117 372.858 202.57C372.144 201.996 371.556 201.281 371.107 200.496C370.673 199.697 370.379 198.842 370.183 197.959C369.791 196.207 369.805 194.399 369.945 192.661C370.267 189.143 371.219 185.793 372.354 182.583C373.502 179.388 374.874 176.332 376.386 173.431C377.885 170.515 379.495 167.754 381.161 165.119C384.508 159.849 388.107 155.112 391.72 150.893C395.332 146.674 398.973 142.988 402.53 139.876C406.086 136.764 409.517 134.199 412.752 132.293C415.972 130.373 418.969 129.07 421.559 128.495C422.848 128.215 424.024 128.06 425.046 128.116C425.298 128.102 425.55 128.158 425.774 128.172C426.012 128.186 426.236 128.215 426.446 128.271C426.657 128.313 426.853 128.355 427.049 128.397C427.231 128.453 427.413 128.523 427.567 128.565C427.903 128.663 428.169 128.803 428.407 128.929C428.519 128.985 428.631 129.041 428.729 129.098C428.827 129.154 428.897 129.21 428.981 129.266C429.261 129.462 429.415 129.56 429.415 129.56Z" fill="#2861F0"/>
<path d="M353.548 186.844C354.22 187.517 354.22 188.596 353.548 189.269C352.876 189.942 351.797 189.942 351.125 189.269C350.453 188.596 350.453 187.517 351.125 186.844C351.797 186.171 352.876 186.171 353.548 186.844Z" fill="#2861F0"/>
<path d="M450.151 133.737C450.151 134.69 449.381 135.447 448.443 135.447C447.491 135.447 446.734 134.676 446.734 133.737C446.734 132.784 447.505 132.027 448.443 132.027C449.381 132.027 450.151 132.784 450.151 133.737Z" fill="#2861F0"/>
<path d="M364.356 192.479C364.356 192.717 364.16 192.913 363.922 192.913C363.684 192.913 363.488 192.717 363.488 192.479C363.488 192.24 363.684 192.044 363.922 192.044C364.16 192.044 364.356 192.24 364.356 192.479Z" fill="#A6C400"/>
<path d="M373.642 144.459C373.642 144.698 373.446 144.894 373.208 144.894C372.969 144.894 372.773 144.698 372.773 144.459C372.773 144.221 372.969 144.025 373.208 144.025C373.446 144.011 373.642 144.207 373.642 144.459Z" fill="#A6C400"/>
<path d="M441.54 167.796C441.54 168.034 441.344 168.231 441.106 168.231C440.868 168.231 440.672 168.034 440.672 167.796C440.672 167.558 440.868 167.362 441.106 167.362C441.344 167.362 441.54 167.558 441.54 167.796Z" fill="#A6C400"/>
<path d="M447.591 147.487C447.591 147.725 447.395 147.921 447.157 147.921C446.919 147.921 446.723 147.725 446.723 147.487C446.723 147.248 446.919 147.052 447.157 147.052C447.395 147.052 447.591 147.248 447.591 147.487Z" fill="#A6C400"/>
<path d="M418.271 177.369H412.894V148.061C412.894 141.165 407.279 135.545 400.389 135.545C393.5 135.545 387.885 141.165 387.885 148.061V177.383H382.508V148.061C382.508 138.194 390.531 130.163 400.389 130.163C410.247 130.163 418.271 138.194 418.271 148.061V177.369Z" fill="#2861F0"/>
<g opacity="0.3">
<path d="M418.271 177.369H412.894V148.061C412.894 141.165 407.279 135.545 400.389 135.545C393.5 135.545 387.885 141.165 387.885 148.061V177.383H382.508V148.061C382.508 138.194 390.531 130.163 400.389 130.163C410.247 130.163 418.271 138.194 418.271 148.061V177.369Z" fill="#142C49"/>
</g>
<path d="M421.336 195.282H379.44C377.703 195.282 376.289 193.866 376.289 192.128V167.488C376.289 165.75 377.703 164.334 379.44 164.334H421.336C423.072 164.334 424.487 165.75 424.487 167.488V192.128C424.487 193.866 423.072 195.282 421.336 195.282Z" fill="#2861F0"/>
<g opacity="0.3">
<path d="M404.421 175.771C404.421 173.543 402.615 171.735 400.388 171.735C398.162 171.735 396.355 173.543 396.355 175.771C396.355 177.608 397.602 179.149 399.282 179.626V185.653H401.48V179.626C403.175 179.149 404.421 177.622 404.421 175.771Z" fill="#142C49"/>
</g>
<path d="M378.852 192.352C378.74 192.352 378.656 187.195 378.656 180.831C378.656 174.468 378.74 169.296 378.852 169.296C378.964 169.296 379.048 174.454 379.048 180.831C379.062 187.181 378.964 192.352 378.852 192.352Z" fill="#FAFAFA"/>
<path d="M397.239 180.943C397.225 180.957 397.057 180.887 396.763 180.677C396.483 180.467 396.104 180.13 395.726 179.612C394.97 178.631 394.284 176.837 394.732 174.902C395.194 172.968 396.623 171.679 397.729 171.132C398.289 170.852 398.779 170.712 399.129 170.655C399.479 170.599 399.675 170.599 399.675 170.627C399.689 170.698 398.905 170.782 397.869 171.384C396.847 171.959 395.558 173.206 395.124 175C394.704 176.781 395.306 178.476 395.964 179.458C396.623 180.467 397.281 180.887 397.239 180.943Z" fill="#FAFAFA"/>
<path d="M471.941 249.538H323.539C316.327 249.538 310.488 243.694 310.488 236.475V234.863C310.488 227.645 316.327 221.8 323.539 221.8H471.941C479.152 221.8 484.991 227.645 484.991 234.863V236.475C484.991 243.694 479.152 249.538 471.941 249.538Z" fill="#F5F5F5"/>
<path d="M473.23 287.55H324.828C317.617 287.55 311.777 281.705 311.777 274.487V272.875C311.777 265.657 317.617 259.812 324.828 259.812H473.23C480.441 259.812 486.28 265.657 486.28 272.875V274.487C486.28 281.705 480.427 287.55 473.23 287.55Z" fill="#F5F5F5"/>
<path d="M338.074 235.452V231.43H339.727V235.382C339.727 236.742 340.315 237.302 341.323 237.302C342.331 237.302 342.919 236.742 342.919 235.382V231.43H344.558V235.452C344.558 237.569 343.353 238.732 341.309 238.732C339.278 238.732 338.074 237.569 338.074 235.452Z" fill="#263238"/>
<path d="M345.551 238.101L346.083 236.952C346.573 237.274 347.315 237.485 348.001 237.485C348.743 237.485 349.009 237.288 349.009 236.98C349.009 236.083 345.677 236.994 345.677 234.793C345.677 233.742 346.615 233.013 348.225 233.013C348.981 233.013 349.822 233.182 350.34 233.49L349.808 234.625C349.262 234.317 348.715 234.219 348.225 234.219C347.511 234.219 347.203 234.443 347.203 234.737C347.203 235.676 350.536 234.765 350.536 236.938C350.536 237.961 349.584 238.69 347.931 238.69C347.007 238.69 346.069 238.438 345.551 238.101Z" fill="#263238"/>
<path d="M356.896 236.307H352.737C352.891 236.994 353.479 237.414 354.305 237.414C354.893 237.414 355.313 237.246 355.692 236.882L356.546 237.807C356.028 238.396 355.271 238.704 354.277 238.704C352.373 238.704 351.141 237.499 351.141 235.873C351.141 234.219 352.401 233.041 354.081 233.041C355.692 233.041 356.952 234.121 356.952 235.901C356.924 235.999 356.896 236.167 356.896 236.307ZM352.709 235.368H355.425C355.313 234.667 354.795 234.219 354.081 234.219C353.339 234.219 352.821 234.667 352.709 235.368Z" fill="#263238"/>
<path d="M361.403 233.013V234.485C361.263 234.471 361.165 234.471 361.039 234.471C360.157 234.471 359.569 234.948 359.569 236.013V238.62H357.973V233.111H359.499V233.84C359.891 233.294 360.549 233.013 361.403 233.013Z" fill="#263238"/>
<path d="M367.985 235.452V238.606H366.388V235.69C366.388 234.793 365.982 234.387 365.268 234.387C364.498 234.387 363.952 234.863 363.952 235.873V238.592H362.355V233.083H363.882V233.728C364.316 233.252 364.96 232.999 365.702 232.999C367.004 233.013 367.985 233.77 367.985 235.452Z" fill="#263238"/>
<path d="M374.3 235.466V238.606H372.801V237.919C372.507 238.424 371.933 238.69 371.121 238.69C369.833 238.69 369.062 237.975 369.062 237.022C369.062 236.055 369.749 235.368 371.429 235.368H372.703C372.703 234.681 372.297 234.289 371.429 234.289C370.841 234.289 370.239 234.485 369.847 234.807L369.273 233.686C369.875 233.252 370.771 233.013 371.653 233.013C373.319 233.013 374.3 233.798 374.3 235.466ZM372.703 236.868V236.307H371.611C370.869 236.307 370.631 236.587 370.631 236.952C370.631 237.358 370.967 237.625 371.527 237.625C372.059 237.611 372.521 237.372 372.703 236.868Z" fill="#263238"/>
<path d="M385.038 235.452V238.606H383.442V235.69C383.442 234.793 383.036 234.387 382.392 234.387C381.678 234.387 381.174 234.849 381.174 235.831V238.592H379.577V235.676C379.577 234.779 379.199 234.373 378.527 234.373C377.827 234.373 377.323 234.835 377.323 235.817V238.578H375.727V233.069H377.253V233.7C377.659 233.224 378.275 232.985 378.989 232.985C379.759 232.985 380.418 233.28 380.796 233.882C381.23 233.322 381.958 232.985 382.784 232.985C384.1 233.013 385.038 233.77 385.038 235.452Z" fill="#263238"/>
<path d="M391.9 236.307H387.741C387.895 236.994 388.483 237.414 389.309 237.414C389.897 237.414 390.317 237.246 390.695 236.882L391.55 237.807C391.032 238.396 390.275 238.704 389.281 238.704C387.377 238.704 386.145 237.499 386.145 235.873C386.145 234.219 387.405 233.041 389.085 233.041C390.695 233.041 391.956 234.121 391.956 235.901C391.928 235.999 391.914 236.167 391.9 236.307ZM387.713 235.368H390.429C390.317 234.667 389.799 234.219 389.085 234.219C388.343 234.219 387.825 234.667 387.713 235.368Z" fill="#263238"/>
<path d="M402.458 235.803C402.458 237.639 401.618 238.676 400.358 238.676C399.658 238.676 399.168 238.368 398.958 237.779C398.593 238.354 398.019 238.676 397.207 238.676C395.891 238.676 394.841 237.625 394.841 236.083C394.841 234.541 395.877 233.504 397.207 233.504C397.879 233.504 398.411 233.742 398.789 234.177V233.574H400.176V236.896C400.176 237.386 400.386 237.555 400.666 237.555C401.142 237.555 401.422 237.008 401.422 235.817C401.422 233.742 399.882 232.299 397.613 232.299C395.331 232.299 393.804 233.854 393.804 235.999C393.804 238.185 395.303 239.727 397.571 239.727C398.215 239.727 398.943 239.587 399.588 239.279L399.91 240.218C399.28 240.54 398.369 240.708 397.571 240.708C394.617 240.708 392.656 238.704 392.656 235.999C392.656 233.322 394.631 231.331 397.613 231.331C400.484 231.331 402.458 233.224 402.458 235.803ZM398.803 236.083C398.803 235.186 398.257 234.695 397.529 234.695C396.787 234.695 396.255 235.214 396.255 236.083C396.255 236.966 396.773 237.499 397.529 237.499C398.257 237.499 398.803 236.994 398.803 236.083Z" fill="#263238"/>
<path d="M412.89 235.452V238.606H411.294V235.69C411.294 234.793 410.888 234.387 410.243 234.387C409.529 234.387 409.025 234.849 409.025 235.831V238.592H407.429V235.676C407.429 234.779 407.051 234.373 406.379 234.373C405.679 234.373 405.174 234.835 405.174 235.817V238.578H403.578V233.069H405.104V233.7C405.511 233.224 406.127 232.985 406.841 232.985C407.611 232.985 408.269 233.28 408.647 233.882C409.081 233.322 409.809 232.985 410.636 232.985C411.952 233.013 412.89 233.77 412.89 235.452Z" fill="#263238"/>
<path d="M419.194 235.466V238.606H417.696V237.919C417.402 238.424 416.828 238.69 416.015 238.69C414.727 238.69 413.957 237.975 413.957 237.022C413.957 236.055 414.643 235.368 416.324 235.368H417.598C417.598 234.681 417.192 234.289 416.324 234.289C415.735 234.289 415.133 234.485 414.741 234.807L414.167 233.686C414.769 233.252 415.665 233.013 416.548 233.013C418.228 233.013 419.194 233.798 419.194 235.466ZM417.598 236.868V236.307H416.506C415.763 236.307 415.525 236.587 415.525 236.952C415.525 237.358 415.861 237.625 416.422 237.625C416.954 237.611 417.416 237.372 417.598 236.868Z" fill="#263238"/>
<path d="M420.453 231.444C420.453 230.939 420.859 230.547 421.447 230.547C422.035 230.547 422.441 230.911 422.441 231.401C422.441 231.934 422.035 232.327 421.447 232.327C420.859 232.327 420.453 231.934 420.453 231.444ZM420.635 233.097H422.231V238.606H420.635V233.097Z" fill="#263238"/>
<path d="M423.715 231.009H425.311V238.606H423.715V231.009Z" fill="#263238"/>
<path d="M426.418 237.681C426.418 237.092 426.852 236.7 427.412 236.7C427.972 236.7 428.406 237.092 428.406 237.681C428.406 238.269 427.972 238.69 427.412 238.69C426.852 238.69 426.418 238.269 426.418 237.681Z" fill="#263238"/>
<path d="M429.008 235.845C429.008 234.191 430.282 233.013 432.074 233.013C433.237 233.013 434.147 233.518 434.539 234.415L433.307 235.088C433.013 234.569 432.565 234.331 432.074 234.331C431.262 234.331 430.632 234.892 430.632 235.859C430.632 236.826 431.262 237.386 432.074 237.386C432.579 237.386 433.013 237.162 433.307 236.63L434.539 237.302C434.133 238.185 433.223 238.69 432.074 238.69C430.282 238.69 429.008 237.513 429.008 235.845Z" fill="#263238"/>
<path d="M434.973 235.845C434.973 234.191 436.247 233.013 437.997 233.013C439.748 233.013 441.022 234.191 441.022 235.845C441.022 237.499 439.748 238.676 437.997 238.676C436.247 238.676 434.973 237.513 434.973 235.845ZM439.412 235.845C439.412 234.892 438.809 234.317 438.011 234.317C437.213 234.317 436.597 234.892 436.597 235.845C436.597 236.798 437.213 237.372 438.011 237.372C438.809 237.372 439.412 236.812 439.412 235.845Z" fill="#263238"/>
<path d="M451.398 235.452V238.606H449.801V235.69C449.801 234.793 449.395 234.387 448.751 234.387C448.037 234.387 447.533 234.849 447.533 235.831V238.592H445.937V235.676C445.937 234.779 445.559 234.373 444.886 234.373C444.186 234.373 443.682 234.835 443.682 235.817V238.578H442.086V233.069H443.612V233.7C444.018 233.224 444.634 232.985 445.349 232.985C446.119 232.985 446.777 233.28 447.155 233.882C447.589 233.322 448.317 232.985 449.143 232.985C450.46 233.013 451.398 233.77 451.398 235.452Z" fill="#263238"/>
<path d="M359.456 273.842L362.046 275.244L360.884 277.192L358.265 275.651L358.307 278.538H356.067L356.095 275.637L353.476 277.206L352.328 275.258L354.919 273.856L352.328 272.427L353.476 270.479L356.095 272.048L356.067 269.147H358.307L358.265 272.048L360.884 270.479L362.046 272.427L359.456 273.842Z" fill="#263238"/>
<path d="M370.252 273.842L372.843 275.244L371.681 277.192L369.062 275.651L369.104 278.538H366.864L366.892 275.637L364.273 277.206L363.125 275.258L365.716 273.856L363.125 272.427L364.273 270.479L366.892 272.048L366.864 269.147H369.104L369.062 272.048L371.681 270.479L372.843 272.427L370.252 273.842Z" fill="#263238"/>
<path d="M381.049 273.842L383.64 275.244L382.478 277.192L379.859 275.651L379.901 278.538H377.661L377.689 275.637L375.07 277.206L373.922 275.258L376.512 273.856L373.922 272.427L375.07 270.479L377.689 272.048L377.661 269.147H379.901L379.859 272.048L382.478 270.479L383.64 272.427L381.049 273.842Z" fill="#263238"/>
<path d="M391.831 273.842L394.421 275.244L393.259 277.192L390.64 275.651L390.682 278.538H388.442L388.47 275.637L385.851 277.206L384.703 275.258L387.294 273.856L384.703 272.427L385.851 270.479L388.47 272.048L388.442 269.147H390.682L390.64 272.048L393.259 270.479L394.421 272.427L391.831 273.842Z" fill="#263238"/>
<path d="M402.627 273.842L405.218 275.244L404.056 277.192L401.437 275.651L401.479 278.538H399.239L399.267 275.637L396.648 277.206L395.5 275.258L398.091 273.856L395.5 272.427L396.648 270.479L399.267 272.048L399.239 269.147H401.479L401.437 272.048L404.056 270.479L405.218 272.427L402.627 273.842Z" fill="#263238"/>
<path d="M413.42 273.842L416.011 275.244L414.849 277.192L412.23 275.651L412.272 278.538H410.032L410.06 275.637L407.441 277.206L406.293 275.258L408.883 273.856L406.293 272.427L407.441 270.479L410.06 272.048L410.032 269.147H412.272L412.23 272.048L414.849 270.479L416.011 272.427L413.42 273.842Z" fill="#263238"/>
<path d="M424.206 273.842L426.796 275.244L425.634 277.192L423.015 275.651L423.057 278.538H420.817L420.845 275.637L418.226 277.206L417.078 275.258L419.669 273.856L417.078 272.427L418.226 270.479L420.845 272.048L420.817 269.147H423.057L423.015 272.048L425.634 270.479L426.796 272.427L424.206 273.842Z" fill="#263238"/>
<path d="M435.002 273.842L437.593 275.244L436.431 277.192L433.812 275.651L433.854 278.538H431.614L431.642 275.637L429.023 277.206L427.875 275.258L430.466 273.856L427.875 272.427L429.023 270.479L431.642 272.048L431.614 269.147H433.854L433.812 272.048L436.431 270.479L437.593 272.427L435.002 273.842Z" fill="#263238"/>
<path d="M536.969 447.925C555.298 440.132 576.527 424.813 585.993 406.031C566.221 413.978 548.787 428.891 536.969 447.925Z" fill="#263238"/>
<path d="M540.875 418.771C559.205 410.978 580.433 395.659 589.899 376.877C570.113 384.824 552.679 399.724 540.875 418.771Z" fill="#263238"/>
<path d="M546.168 390.417C564.498 382.624 585.726 367.304 595.192 348.523C575.42 356.47 557.986 371.369 546.168 390.417Z" fill="#263238"/>
<path d="M552.82 360.731C570.114 350.457 589.396 332.32 596.579 312.403C577.871 323.041 562.3 340.225 552.82 360.731Z" fill="#263238"/>
<path d="M559.934 338.01C572.536 321.513 584.284 296.957 584.13 275.681C570.324 293.089 561.726 315.262 559.934 338.01Z" fill="#263238"/>
<path d="M556.406 348.803C553.857 326.489 545.19 298.443 530.473 281.708C532.811 305.619 542.039 329.489 556.406 348.803Z" fill="#263238"/>
<path d="M550.48 373.205C545.999 350.204 534.657 321.752 517.938 305.619C522.334 330.316 533.915 354.353 550.48 373.205Z" fill="#263238"/>
<path d="M543.675 402.975C539.194 379.975 527.852 351.522 511.133 335.389C515.53 360.072 527.11 384.11 543.675 402.975Z" fill="#263238"/>
<path d="M538.214 439.501C533.733 416.501 522.391 388.048 505.672 371.916C510.069 396.612 521.649 420.65 538.214 439.501Z" fill="#263238"/>
<path d="M560.787 333.637C560.773 333.637 560.731 333.75 560.647 333.988C560.549 334.254 560.437 334.605 560.297 335.011C559.989 335.978 559.569 337.31 559.022 338.992C557.916 342.454 556.432 347.485 554.682 353.737C552.931 359.988 550.999 367.458 548.996 375.812C547.036 384.166 545.048 393.388 543.213 403.116C541.393 412.857 539.909 422.163 538.704 430.671C537.528 439.165 536.618 446.846 535.988 453.307C535.344 459.769 534.91 464.997 534.672 468.613C534.56 470.379 534.476 471.781 534.406 472.776C534.392 473.224 534.364 473.575 534.35 473.855C534.336 474.093 534.35 474.219 534.364 474.233C534.378 474.233 534.392 474.107 534.434 473.869C534.462 473.589 534.504 473.224 534.56 472.79C534.658 471.781 534.784 470.393 534.952 468.627C535.26 465.011 535.778 459.797 536.492 453.349C537.192 446.902 538.144 439.249 539.363 430.755C540.609 422.276 542.107 412.969 543.927 403.242C545.762 393.528 547.736 384.306 549.655 375.952C551.615 367.613 553.491 360.128 555.186 353.863C556.866 347.597 558.28 342.552 559.303 339.076C559.793 337.366 560.171 336.034 560.451 335.053C560.563 334.619 560.661 334.282 560.731 334.002C560.773 333.764 560.787 333.637 560.787 333.637Z" fill="#263238"/>
<path d="M528.033 460.077C535.805 443.776 541.462 420.874 537.639 402.989C529.027 420.271 525.611 440.581 528.033 460.077Z" fill="#455A64"/>
<path d="M515.106 438.983C522.878 422.682 528.535 399.78 524.712 381.895C516.087 399.177 512.67 419.486 515.106 438.983Z" fill="#455A64"/>
<path d="M503.513 417.524C511.284 401.223 516.941 378.321 513.119 360.436C504.493 377.718 501.076 398.028 503.513 417.524Z" fill="#455A64"/>
<path d="M492.086 394.383C497.869 377.13 500.767 353.624 494.872 336.413C488.361 354.774 487.367 375.392 492.086 394.383Z" fill="#455A64"/>
<path d="M484.65 375.434C484.076 357.086 478.685 334.1 467.301 320.546C467.581 340.211 473.742 359.735 484.65 375.434Z" fill="#455A64"/>
<path d="M488.083 384.53C474.598 371.789 454.098 359.147 435.656 357.493C449.855 371.383 468.507 380.998 488.083 384.53Z" fill="#455A64"/>
<path d="M497.184 403.83C482.075 391.846 459.615 380.591 440.207 380.549C456.156 393.669 476.418 401.952 497.184 403.83Z" fill="#455A64"/>
<path d="M508.54 427.111C493.431 415.127 470.97 403.872 451.562 403.83C467.512 416.949 487.788 425.233 508.54 427.111Z" fill="#455A64"/>
<path d="M524.38 453.91C509.271 441.926 486.81 430.671 467.402 430.629C483.352 443.748 503.614 452.032 524.38 453.91Z" fill="#455A64"/>
<path d="M482.886 372.098C482.872 372.098 482.9 372.21 482.97 372.406C483.054 372.644 483.152 372.925 483.278 373.275C483.586 374.088 484.007 375.181 484.539 376.569C485.645 379.428 487.325 383.549 489.482 388.581C493.794 398.672 500.18 412.436 508.119 427.181C512.096 434.554 516.087 441.464 519.826 447.687C523.592 453.882 527.079 459.418 530.132 463.974C533.156 468.543 535.677 472.201 537.469 474.696C538.337 475.901 539.024 476.854 539.542 477.555C539.766 477.85 539.948 478.088 540.088 478.284C540.214 478.452 540.284 478.522 540.298 478.522C540.312 478.522 540.256 478.424 540.144 478.242C540.004 478.032 539.85 477.78 539.654 477.471C539.178 476.756 538.519 475.775 537.693 474.542C535.971 472.005 533.52 468.305 530.538 463.707C527.555 459.11 524.111 453.574 520.372 447.365C516.675 441.127 512.712 434.217 508.735 426.859C500.81 412.128 494.355 398.42 489.93 388.384C487.717 383.367 485.967 379.288 484.791 376.457C484.203 375.083 483.74 374.004 483.404 373.205C483.25 372.869 483.124 372.588 483.026 372.364C482.942 372.196 482.886 372.098 482.886 372.098Z" fill="#263238"/>
<path d="M491.008 462.039H568.247V476.953H560.308L553.628 519.45H505.879L499.003 476.953H491.008V462.039Z" fill="#2861F0"/>
<path d="M491.008 476.63C491.008 476.434 508.175 476.266 529.347 476.266C550.52 476.266 567.687 476.42 567.687 476.63C567.687 476.826 550.52 476.995 529.347 476.995C508.175 476.995 491.008 476.841 491.008 476.63Z" fill="#263238"/>
<path d="M48.5642 519.464H36.0317L31.3828 462.979H46.1418L48.5642 519.464Z" fill="#263238"/>
<path d="M157.211 519.464H169.757L174.406 462.979H159.633L157.211 519.464Z" fill="#263238"/>
<path d="M183.018 470.127L21.6497 473.925L16.7347 369.603C16.2586 359.385 24.3943 350.849 34.6163 350.849H172.096C182.472 350.849 190.677 359.651 189.949 370.009L183.018 470.127Z" fill="#2861F0"/>
<path d="M191.293 369.238C191.293 369.252 191.139 369.266 190.844 369.28C190.508 369.294 190.074 369.308 189.528 369.322C188.31 369.336 186.616 369.365 184.445 369.393C179.978 369.407 173.607 369.435 165.737 369.463C149.942 369.491 128.126 369.308 104.041 369.869C79.9423 370.668 58.112 370.528 42.3168 370.29C34.4192 370.163 28.034 370.009 23.6091 369.883C21.4387 369.813 19.7303 369.757 18.5261 369.715C17.98 369.687 17.5459 369.673 17.2098 369.645C16.9157 369.631 16.7617 369.617 16.7617 369.603C16.7617 369.589 16.9157 369.575 17.2098 369.575C17.5459 369.575 17.98 369.575 18.5261 369.561C19.7303 369.575 21.4387 369.589 23.6091 369.603C28.076 369.645 34.4472 369.701 42.3168 369.785C58.112 369.897 79.9283 369.953 104.027 369.14C128.126 368.58 149.956 368.846 165.751 368.944C173.607 369.014 179.992 369.07 184.459 369.112C186.63 369.14 188.338 369.154 189.542 369.168C190.088 369.182 190.522 369.196 190.858 369.196C191.139 369.224 191.293 369.224 191.293 369.238Z" fill="#263238"/>
<path d="M75.6006 352.475C75.6426 352.713 70.5456 352.812 65.1265 355.629C59.6654 358.376 56.5988 362.455 56.4307 362.272C56.3607 362.23 57.0329 361.151 58.4331 359.679C59.8334 358.208 62.0319 356.4 64.8044 354.984C67.577 353.568 70.3355 352.854 72.3379 352.587C74.3403 352.293 75.6006 352.391 75.6006 352.475Z" fill="#263238"/>
<path d="M141.971 162.794L161.701 198.858L190.603 182.683L204.648 187.323C204.648 187.323 169.193 225.797 163.438 227.759C157.682 229.722 146.788 230.072 140.571 222.279C134.9 215.173 118.391 177.876 118.391 177.876L141.971 162.794Z" fill="#FFD8C5"/>
<path d="M223.175 139.247C222.657 138.616 221.859 138.294 221.047 138.406L207.31 140.298C206.106 140.481 205.042 141.181 204.37 142.205L175.832 186.103L178.03 187.337L193.224 186.86L223.61 139.794L223.175 139.247Z" fill="#263238"/>
<path d="M213.443 144.952C213.737 145.204 214.255 145.106 214.591 144.714C214.927 144.321 214.969 143.802 214.675 143.536C214.381 143.284 213.863 143.382 213.527 143.774C213.191 144.167 213.149 144.686 213.443 144.952Z" fill="white"/>
<path d="M223.609 139.78C223.623 139.836 222.67 140.018 220.948 140.312C219.086 140.607 216.635 140.985 213.667 141.448C212.112 141.672 210.432 141.924 208.626 142.191C207.757 142.275 206.987 142.723 206.497 143.438C205.965 144.251 205.433 145.106 204.873 145.961C202.618 149.423 200.168 153.221 197.591 157.202C192.396 165.163 187.663 172.353 184.205 177.539C182.524 180.034 181.124 182.095 180.074 183.65C179.08 185.08 178.506 185.865 178.463 185.823C178.421 185.795 178.898 184.954 179.808 183.468C180.802 181.87 182.132 179.768 183.729 177.217C187.061 171.961 191.724 164.715 196.919 156.753C199.524 152.787 202.002 149.003 204.257 145.541C204.831 144.686 205.377 143.845 205.923 143.018C206.525 142.121 207.575 141.56 208.541 141.504C210.348 141.28 212.042 141.055 213.597 140.859C216.579 140.509 219.058 140.214 220.92 139.99C222.642 139.808 223.595 139.724 223.609 139.78Z" fill="#455A64"/>
<path d="M208.357 155.478C208.357 155.478 207.125 155.254 206.467 158.618C205.795 161.967 203.638 171.597 203.638 171.597L197.225 168.191L189.201 169.242C189.201 169.242 187.451 170.868 188.739 171.737C190.028 172.62 195.097 173.517 195.097 173.517L198.835 178.899L188.095 173.713C188.095 173.713 184.511 174.652 185.561 176.839C186.611 179.025 193.85 185.879 193.85 185.879L188.473 185.473L182.074 181.59C182.074 181.59 180.114 181.674 180.842 183.356C181.57 185.024 188.235 191.079 188.235 191.079L196.301 195.004C196.301 195.004 200.712 194.653 201.132 193.364C201.552 192.074 201.664 190.224 201.664 190.224C201.664 190.224 204.002 189.593 204.437 188.458C204.871 187.323 204.591 185.529 204.591 185.529C204.591 185.529 208.259 186.173 208.721 184.127C209.183 182.081 208.791 178.044 208.427 176.474C208.063 174.904 209.996 160.257 209.842 159.809C209.674 159.332 210.668 154.511 208.357 155.478Z" fill="#FFD8C5"/>
<path d="M201.396 193.35C201.424 193.448 200.64 193.784 199.296 194.008C197.951 194.233 196.019 194.247 193.975 193.77C191.93 193.28 190.222 192.396 189.116 191.584C188.009 190.785 187.463 190.126 187.533 190.056C187.687 189.846 190.236 192.06 194.171 192.971C198.077 193.924 201.354 193.097 201.396 193.35Z" fill="#FFC2A2"/>
<path d="M199.479 190.462C199.353 190.645 197.925 189.902 196.399 188.64C194.872 187.393 193.85 186.131 194.018 185.977C194.186 185.809 195.432 186.776 196.931 188.009C198.415 189.229 199.619 190.266 199.479 190.462Z" fill="#FFC2A2"/>
<path d="M203.738 183.482C203.612 183.664 202.198 182.936 200.77 181.604C199.327 180.287 198.487 178.927 198.669 178.787C198.851 178.647 199.943 179.726 201.33 181.001C202.702 182.291 203.864 183.3 203.738 183.482Z" fill="#FFC2A2"/>
<path d="M208.19 177.876C207.966 177.974 207.154 176.446 205.879 174.806C204.619 173.138 203.359 171.975 203.499 171.779C203.625 171.597 205.179 172.536 206.524 174.302C207.896 176.054 208.4 177.806 208.19 177.876Z" fill="#FFC2A2"/>
<path d="M213.654 437.819C213.696 437.819 213.752 437.343 213.612 436.488C213.472 435.647 213.121 434.413 212.267 433.11C212.043 432.788 211.833 432.451 211.469 432.129C211.133 431.82 210.531 431.582 209.971 431.792C209.691 431.891 209.411 432.143 209.313 432.465C209.201 432.788 209.257 433.11 209.341 433.362C209.523 433.895 209.803 434.273 210.041 434.722C210.559 435.605 210.993 436.474 211.651 437.455C211.987 437.96 212.743 438.38 213.43 438.254C214.116 438.17 214.662 437.833 215.152 437.497C216.104 436.796 216.958 436.011 217.686 435.17C218.05 434.75 218.387 434.315 218.681 433.867C218.961 433.432 219.297 432.984 219.437 432.381C219.563 431.792 219.339 431.022 218.681 430.755C218.008 430.517 217.448 430.853 217.07 431.12C216.3 431.75 215.852 432.409 215.376 433.04C214.494 434.301 213.99 435.451 213.724 436.264C213.458 437.077 213.388 437.539 213.43 437.553C213.57 437.609 214.018 435.745 215.824 433.376C216.272 432.816 216.832 432.129 217.448 431.666C217.77 431.442 218.163 431.288 218.401 431.414C218.653 431.498 218.793 431.891 218.709 432.255C218.625 432.633 218.345 433.04 218.05 433.46C217.756 433.881 217.434 434.287 217.084 434.68C216.384 435.479 215.586 436.222 214.676 436.88C214.242 437.189 213.766 437.455 213.332 437.497C212.883 437.553 212.547 437.371 212.253 436.992C211.693 436.193 211.175 435.198 210.657 434.371C210.405 433.937 210.111 433.516 209.985 433.166C209.845 432.788 209.929 432.535 210.195 432.437C210.797 432.185 211.399 432.872 211.805 433.46C213.528 435.857 213.5 437.861 213.654 437.819Z" fill="#263238"/>
<path d="M179.249 438.997L162.165 476.07L134.594 463.315L152.265 417.44L179.249 438.997Z" fill="#FFD8C5"/>
<path d="M165.388 473.589L155.404 492.651C155.404 492.651 180.959 519.099 178.564 525.014L118.492 496.183L135.001 457.961L165.388 473.589Z" fill="#455A64"/>
<path d="M138.082 481.129C136.765 480.891 135.337 481.816 135.043 483.12C134.749 484.423 135.673 485.895 136.989 486.147C138.306 486.413 140.056 485.348 140.196 484.031C140.336 482.699 139.16 481.045 137.83 481.101" fill="#E0E0E0"/>
<g opacity="0.6">
<path d="M118.492 496.169L120.985 491.375L177.64 520.809C177.64 520.809 179.754 523.262 178.55 525L118.492 496.169Z" fill="white"/>
</g>
<path d="M156.525 492.805C156.371 493.099 154.845 492.525 152.954 492.777C151.05 492.973 149.706 493.898 149.481 493.646C149.243 493.464 150.518 491.908 152.814 491.655C155.111 491.361 156.721 492.567 156.525 492.805Z" fill="#263238"/>
<path d="M161.578 498.439C161.508 498.762 159.995 498.65 158.413 499.406C156.803 500.121 155.906 501.341 155.612 501.187C155.318 501.102 155.934 499.28 157.937 498.369C159.925 497.444 161.704 498.159 161.578 498.439Z" fill="#263238"/>
<path d="M161.535 507.704C161.241 507.634 161.535 505.98 163.062 504.733C164.574 503.471 166.268 503.499 166.268 503.808C166.324 504.13 165.008 504.564 163.776 505.602C162.516 506.611 161.843 507.816 161.535 507.704Z" fill="#263238"/>
<path d="M159.393 485.46C159.141 485.671 157.993 484.619 156.285 483.933C154.591 483.218 153.036 483.148 152.994 482.825C152.924 482.531 154.703 482.055 156.705 482.881C158.721 483.708 159.646 485.306 159.393 485.46Z" fill="#263238"/>
<path d="M171.015 468.641L216.048 355.811C216.048 355.811 215.04 336.567 211.497 330.484C207.954 324.401 100.665 288.94 100.665 288.94C100.665 288.94 73.3316 282.352 55.114 288.94C36.8964 295.527 23.2296 318.318 25.7641 330.988C28.2986 343.659 38.9688 352.952 38.9688 352.952L117.875 355.306L160.877 371.004L131.919 454.078L171.015 468.641Z" fill="#263238"/>
<path d="M211.078 391.552L212.086 432.353L181.728 433.096L177.359 384.124L211.078 391.552Z" fill="#FFD8C5"/>
<path d="M213.905 428.709L213.345 450.224C213.345 450.224 247.932 462.656 248.394 469.033L181.783 469.706L179.738 428.12L213.905 428.709Z" fill="#455A64"/>
<path d="M192.719 447.533C191.431 447.897 190.563 449.355 190.871 450.658C191.179 451.962 192.663 452.859 193.952 452.522C195.24 452.186 196.346 450.462 195.898 449.2C195.436 447.939 193.657 446.972 192.481 447.617" fill="#E0E0E0"/>
<g opacity="0.6">
<path d="M181.77 469.692L181.896 464.282L245.72 465.655C245.72 465.655 248.703 466.917 248.381 469.005L181.77 469.692Z" fill="white"/>
</g>
<path d="M214.423 449.873C214.409 450.196 212.785 450.364 211.202 451.429C209.578 452.452 208.78 453.868 208.472 453.742C208.178 453.686 208.64 451.723 210.586 450.476C212.518 449.201 214.493 449.565 214.423 449.873Z" fill="#263238"/>
<path d="M221.44 452.691C221.524 452.999 220.11 453.574 219.018 454.961C217.883 456.321 217.617 457.806 217.295 457.792C216.987 457.848 216.749 455.942 218.135 454.246C219.522 452.536 221.426 452.382 221.44 452.691Z" fill="#263238"/>
<path d="M225.484 461.016C225.19 461.086 224.714 459.46 225.54 457.68C226.338 455.886 227.864 455.157 228.018 455.438C228.2 455.704 227.22 456.671 226.576 458.157C225.89 459.615 225.806 460.988 225.484 461.016Z" fill="#263238"/>
<path d="M213.75 442.01C213.61 442.305 212.126 441.87 210.277 442.024C208.443 442.136 207.015 442.767 206.847 442.487C206.65 442.248 208.037 441.029 210.207 440.889C212.378 440.735 213.904 441.758 213.75 442.01Z" fill="#263238"/>
<path d="M193.35 278.245C193.35 278.245 211.54 276.788 213.57 296.551C215.601 316.313 217.589 408.512 217.589 408.512L175.077 412.058L168.495 317.841L100.68 288.968C100.666 288.954 181.196 275.709 193.35 278.245Z" fill="#263238"/>
<path d="M118.365 251.587C118.365 251.587 129.399 282.576 127.298 286.024C125.198 289.472 96.8004 303.685 96.8004 303.685L25.7642 331.002C25.7642 331.002 18.4688 319.383 18.4688 301.54C18.4688 283.698 43.1837 251.587 43.1837 251.587H118.365Z" fill="#263238"/>
<path d="M97.3047 287.37C97.3047 287.384 97.4167 287.44 97.6408 287.552C97.9068 287.678 98.2289 287.832 98.649 288.015C99.5871 288.435 100.903 289.024 102.584 289.767C106.07 291.294 111.083 293.467 117.357 296.2C130.029 301.666 147.785 309.319 168.341 318.163L168.117 317.841C168.761 327.148 169.461 337.197 170.175 347.597C171.898 371.901 173.494 394.327 174.754 412.058L174.782 412.38L175.104 412.352C188.029 411.217 198.643 410.278 206.078 409.633C209.733 409.297 212.604 409.03 214.606 408.834C215.544 408.736 216.286 408.652 216.833 408.596C217.337 408.54 217.589 408.498 217.589 408.484C217.589 408.47 217.323 408.47 216.819 408.498C216.272 408.526 215.53 408.582 214.578 408.638C212.576 408.792 209.691 409.002 206.036 409.268C198.601 409.857 187.987 410.698 175.048 411.721L175.384 412.016C174.166 394.285 172.626 371.859 170.959 347.541C170.231 337.141 169.517 327.092 168.859 317.785L168.845 317.547L168.635 317.463C148.037 308.717 130.239 301.148 117.539 295.752C111.237 293.103 106.196 290.986 102.682 289.514C100.973 288.814 99.6432 288.267 98.705 287.875C98.2709 287.706 97.9348 287.566 97.6688 287.468C97.4307 287.398 97.3047 287.356 97.3047 287.37Z" fill="#455A64"/>
<path d="M40.8049 290.468C40.8189 290.524 41.533 290.327 42.7933 289.921C44.2076 289.472 45.9999 288.884 48.1424 288.197C52.6513 286.767 58.9105 284.763 66.0379 283.67C73.1654 282.562 79.7607 282.913 84.3676 283.908C88.9885 284.861 91.649 286.193 91.7051 286.038C91.7191 285.996 91.0749 285.632 89.8567 285.099C88.6384 284.567 86.8041 283.922 84.4796 283.361C79.8447 282.212 73.1233 281.778 65.9119 282.885C58.7005 283.992 52.4272 286.095 47.9463 287.664C45.7059 288.463 43.9135 289.136 42.6673 289.627C41.463 290.117 40.7909 290.412 40.8049 290.468Z" fill="#455A64"/>
<path d="M50.8438 274.14C50.8578 274.266 53.2242 273.802 57.061 274.097C58.9794 274.237 61.2477 274.518 63.7822 274.812C66.3167 275.107 69.0893 275.456 71.9739 276.003C77.743 277.026 82.7141 279.044 85.8927 281.175C89.0994 283.263 90.6117 285.17 90.7237 285.072C90.7517 285.044 90.4297 284.539 89.6875 283.74C88.9454 282.941 87.811 281.835 86.2007 280.727C83.0361 278.429 77.9531 276.284 72.1139 275.247C69.2013 274.7 66.4008 274.377 63.8662 274.111C61.3317 273.858 59.0354 273.62 57.089 273.55C55.1426 273.48 53.5603 273.593 52.4961 273.761C51.4179 273.915 50.8438 274.098 50.8438 274.14Z" fill="#455A64"/>
<path d="M82.2211 25.1415C74.0435 23.7539 66.86 26.9075 59.9706 31.5188C53.0813 36.1301 47.8862 43.0962 44.8896 50.8331C41.739 58.9905 40.9689 68.157 43.3913 76.5527C45.8138 84.9484 51.569 92.4611 59.3545 96.4276C69.9826 101.838 83.5934 99.9457 93.1013 92.7554C102.609 85.5511 108.056 73.6514 108.504 61.7236C108.812 53.5102 106.852 45.1005 102.273 38.2746C97.6802 31.4347 90.3567 26.3328 82.2211 25.1415Z" fill="#263238"/>
<path d="M58.9778 52.9634C60.168 49.8378 59.7059 46.3338 60.182 43.026C61.2182 35.7236 67.0994 29.8648 73.9048 27.0195C80.234 24.3705 87.9636 24.9451 95.5811 27.412C100.804 29.1079 105.719 32.0513 109.206 36.2982C113.827 41.9327 115.451 49.9079 113.421 56.902L76.0752 51.4637C72.5745 54.365 69.0038 57.3084 64.7609 58.9203C63.5147 59.3968 62.1844 59.7473 60.8682 59.537C59.5519 59.3268 58.2776 58.4297 57.9696 57.1402C57.6195 55.7246 58.4597 54.323 58.9778 52.9634Z" fill="#263238"/>
<path d="M96.3774 37.7282L63.7789 44.6381C60.6283 44.8484 58.1498 47.4414 58.0938 50.609L58.4858 121.236C58.5138 126.058 60.1242 130.739 63.0787 134.552L66.1874 138.56C73.2728 147.713 87.6396 146.788 93.0447 136.556C93.4228 135.841 93.6888 135.211 93.8009 134.706C93.9129 134.075 94.0809 133.655 94.1089 133.108L94.725 126.226C95.047 119.933 95.0891 113.556 95.0891 113.612C95.0891 113.612 108.434 111.93 111.85 94.7179C113.545 86.154 113.671 72.0257 113.391 60.4624C113.139 50.0484 106.767 37.0414 96.3774 37.7282Z" fill="#FFD8C5"/>
<path d="M108.435 73.7078C108.435 74.8851 107.441 75.8522 106.209 75.8662C104.99 75.8803 103.996 74.9552 103.996 73.7778C103.996 72.6005 105.004 71.6334 106.223 71.6193C107.455 71.6053 108.435 72.5304 108.435 73.7078Z" fill="#263238"/>
<path d="M110.044 67.6803C109.764 67.9606 108.126 66.6431 105.745 66.559C103.365 66.4329 101.558 67.5962 101.32 67.3019C101.194 67.1617 101.502 66.6571 102.286 66.1245C103.057 65.6059 104.359 65.1153 105.843 65.1714C107.327 65.2415 108.56 65.8302 109.26 66.4188C109.96 67.0215 110.198 67.5542 110.044 67.6803Z" fill="#263238"/>
<path d="M87.0365 73.1749C87.0365 74.3523 86.0423 75.3195 84.8101 75.3335C83.5919 75.3475 82.5977 74.4224 82.5977 73.245C82.5977 72.0676 83.5919 71.1005 84.8241 71.0865C86.0563 71.0585 87.0365 71.9976 87.0365 73.1749Z" fill="#263238"/>
<path d="M87.3862 67.1061C87.0921 67.3864 85.4678 66.0689 83.0733 65.9848C80.6928 65.8586 78.8865 67.0219 78.6484 66.7276C78.5224 66.5874 78.8304 66.0829 79.6146 65.5503C80.3848 65.0317 81.687 64.5411 83.1713 64.5972C84.6556 64.6672 85.8879 65.2559 86.588 65.8446C87.2881 66.4473 87.5262 66.9799 87.3862 67.1061Z" fill="#263238"/>
<path d="M94.5428 85.2708C94.5428 85.1306 96.0271 84.9344 98.4496 84.7242C99.0657 84.6821 99.6398 84.584 99.7659 84.1775C99.9199 83.743 99.6959 83.0703 99.4298 82.3554C98.9117 80.8557 98.3796 79.2859 97.8055 77.646C95.565 70.9323 93.9547 65.4239 94.2348 65.3398C94.5008 65.2557 96.5452 70.6239 98.7997 77.3377C99.3318 78.9916 99.8499 80.5754 100.34 82.0751C100.55 82.7759 100.914 83.5749 100.564 84.4859C100.382 84.9344 99.9199 85.2428 99.5278 85.3409C99.1358 85.439 98.7857 85.439 98.4916 85.439C96.0551 85.453 94.5428 85.411 94.5428 85.2708Z" fill="#263238"/>
<path d="M95.1023 113.612C95.1023 113.612 83.4379 113.906 72.1797 106.534C72.1797 106.534 77.5428 118.742 94.9202 117.802L95.1023 113.612Z" fill="#FFC2A2"/>
<path d="M93.3083 90.9899C92.4962 89.8265 91.0119 89.1397 89.5136 89.2378C88.4774 89.3079 87.4132 89.7704 86.741 90.5834C86.0829 91.3963 85.9009 92.6017 86.447 93.4287C87.0491 94.3537 88.3934 94.6201 89.5416 94.3397C90.6898 94.0594 91.698 93.3446 92.6642 92.6298C92.9303 92.4335 93.1963 92.2233 93.3784 91.943C93.5464 91.6626 93.6024 91.2982 93.4064 91.06" fill="#FFC2A2"/>
<path d="M87.4559 86.6581C87.848 86.6441 87.7499 89.2511 89.8924 91.1713C92.0348 93.1055 94.8074 92.9233 94.8074 93.2877C94.8354 93.4559 94.1772 93.7643 93.001 93.7503C91.8528 93.7503 90.2004 93.3158 88.8842 92.1384C87.5679 90.9611 87.0498 89.4333 87.0078 88.3541C86.9658 87.2608 87.2738 86.6301 87.4559 86.6581Z" fill="#263238"/>
<path d="M87.2479 60.0139C86.9818 60.6587 84.6154 60.2522 81.8008 60.4765C78.9862 60.6447 76.6898 61.3875 76.3397 60.7848C76.1857 60.5045 76.6058 59.9018 77.544 59.3131C78.4681 58.7245 79.9384 58.1778 81.6328 58.0517C83.3271 57.9396 84.8534 58.2619 85.8476 58.7104C86.8698 59.173 87.3599 59.7056 87.2479 60.0139Z" fill="#263238"/>
<path d="M109.765 57.2106C109.331 57.7433 107.706 57.1125 105.718 57.0004C103.744 56.8322 102.049 57.2247 101.685 56.636C101.531 56.3557 101.811 55.823 102.567 55.3325C103.31 54.8419 104.528 54.4775 105.886 54.5756C107.244 54.6737 108.407 55.2063 109.065 55.795C109.751 56.3837 109.961 56.9443 109.765 57.2106Z" fill="#263238"/>
<path d="M52.9978 47.932C56.3725 37.9945 71.1315 24.4549 81.5775 25.394L98.0868 35.7519C96.9666 41.4285 92.4717 46.3061 86.8986 47.8759C83.93 48.7169 80.3593 48.8991 78.5529 51.394C76.7046 53.9589 77.6848 57.7573 75.9624 60.3923C73.5819 64.0505 67.2527 63.7562 65.4463 67.7368C64.6482 69.4748 65.0122 71.5772 64.1861 73.3012C63.0939 75.5999 57.1707 78.4171 54.7622 77.6042C52.3537 76.7912 52.4237 72.6565 51.6816 70.4699C50.4073 66.7416 50.9954 64.8354 51.4855 62.7751C52.6338 57.9255 51.3875 52.6694 52.9978 47.932Z" fill="#263238"/>
<path d="M61.8749 79.8044C61.9169 78.5149 60.5447 75.4173 59.2844 75.165C55.9098 74.5063 49.7765 74.5343 49.3845 83.1683C48.8523 94.9699 60.7967 93.0777 60.8387 92.7413C60.8527 92.475 61.7069 84.2615 61.8749 79.8044Z" fill="#FFD8C5"/>
<path d="M57.4344 88.1025C57.3784 88.0604 57.2244 88.2426 56.8743 88.3828C56.5243 88.5229 55.9361 88.607 55.334 88.3407C54.1158 87.8221 53.1496 85.8038 53.1916 83.6733C53.2056 82.5941 53.4856 81.5849 53.9057 80.758C54.2978 79.917 54.8859 79.3283 55.5161 79.2442C56.1462 79.1321 56.5663 79.5246 56.7063 79.8609C56.8463 80.1973 56.7623 80.4356 56.8323 80.4496C56.8603 80.4777 57.0984 80.2674 57.0144 79.7769C56.9723 79.5386 56.8463 79.2583 56.5803 79.02C56.3142 78.7817 55.8941 78.6415 55.46 78.6696C54.5499 78.6976 53.6957 79.4965 53.2336 80.4076C52.7295 81.3186 52.3934 82.4539 52.3794 83.6593C52.3514 86.0421 53.4576 88.3267 55.138 88.8874C55.9501 89.1397 56.6643 88.9294 57.0284 88.6631C57.3924 88.3968 57.4764 88.1305 57.4344 88.1025Z" fill="#FFC2A2"/>
<path d="M50.4772 44.8623C50.5192 41.1761 45.9123 38.7513 42.3135 37.9243C38.7148 37.0834 34.9201 38.1766 31.6854 39.9567C29.795 40.9939 27.8907 42.4656 27.4706 44.596C27.0505 46.7124 29.0809 49.2354 31.0973 48.4785C27.2325 49.81 25.2581 54.982 27.2745 58.5421C29.2909 62.1022 34.738 63.0833 37.8607 60.4483C36.8525 63.8262 34.654 66.8397 31.7274 68.83C37.7906 69.699 44.2319 67.106 48.0127 62.2704C51.7934 57.4348 52.7736 50.5529 50.4772 44.8623Z" fill="#263238"/>
<path d="M42.3009 63.6436C42.2169 63.6576 41.8949 62.3121 41.8668 60.0975C41.8248 57.883 42.1469 54.7994 43.2251 51.5757C44.3173 48.366 45.9137 45.7029 47.2999 43.9649C48.6722 42.2269 49.7364 41.3439 49.7924 41.414C50.0165 41.5682 46.0537 45.4927 43.9673 51.814C41.7828 58.1353 42.553 63.6436 42.3009 63.6436Z" fill="#263238"/>
<path d="M94.6562 32.1783C95.7345 36.9858 103.044 43.1389 106.237 46.8812C112.342 54.0154 113.546 56.3842 113.49 72.3486C116.375 66.8402 118.587 61.444 118.363 55.2208C118.139 48.9976 115.856 42.7745 111.53 38.3033C107.231 33.8322 100.817 31.2952 94.6562 32.1783Z" fill="#263238"/>
<path d="M144.676 163.495C144.676 163.495 131.975 142.289 128.446 138C125.142 133.977 120.885 131.608 118.042 130.361C116.46 129.674 114.794 129.198 113.099 128.903L94.8256 124.853C94.8256 124.853 94.7976 137.341 81.719 138.112C68.6544 138.883 57.6482 120.662 57.6482 120.662C57.6482 120.662 36.532 123.928 31.477 126.535C26.4219 129.142 18.4824 132.435 14.1135 154.343L11.0469 175.759L47.4541 179.123L50.9408 233.268L68.9904 245.854C68.9904 245.854 119.05 258.875 122.243 259.744C125.436 260.599 126.5 179.123 126.5 179.123C126.5 179.123 139.354 170.784 144.676 163.495Z" fill="#263238"/>
<path d="M120.702 154.385C120.744 154.371 120.996 154.917 121.402 155.94C121.822 156.964 122.354 158.463 122.943 160.342C124.133 164.098 125.435 169.41 126.163 175.395C126.891 181.38 126.905 186.846 126.667 190.785C126.541 192.747 126.401 194.345 126.233 195.424C126.079 196.517 125.981 197.12 125.925 197.106C125.869 197.106 125.883 196.489 125.953 195.396C126.023 194.303 126.093 192.719 126.149 190.757C126.261 186.846 126.163 181.422 125.449 175.479C124.721 169.55 123.503 164.266 122.452 160.482C121.934 158.59 121.472 157.076 121.136 156.025C120.814 154.987 120.66 154.399 120.702 154.385Z" fill="#455A64"/>
<path d="M119.149 243.093L50.6057 228.152L47.4411 179.109L16.957 176.292C16.957 176.292 18.0913 209.819 19.2535 219.784C20.9338 234.123 29.4055 253.675 34.3625 257.586C39.3195 261.496 122.23 259.73 122.23 259.73L119.149 243.093Z" fill="#FFD8C5"/>
<path d="M158.062 251.979C157.586 252.932 156.578 253.563 155.513 253.465C155.303 253.451 155.079 253.409 154.855 253.325C153.343 252.834 153.483 249.751 153.483 249.751L146.215 248.559C146.215 248.559 136.764 254.656 133.403 258.693C130.042 262.73 121.473 259.464 121.473 259.464L118.504 243.962L131.877 231.852C131.877 231.852 131.05 232.567 131.975 230.31C132.899 228.04 137.1 228.909 137.1 228.909C137.758 227.787 140.502 227.381 140.502 227.381L152.237 228.74C154.659 229.021 156.816 230.38 158.118 232.441L163.075 240.304C163.075 240.304 165.693 245.966 165.273 247.284C164.643 249.274 162.543 248.826 162.543 248.826C162.543 248.826 161.969 252.54 160.988 252.68C159.994 252.806 158.062 251.979 158.062 251.979Z" fill="#FFD8C5"/>
<path d="M133.098 240.85C133.112 240.976 134.666 240.836 137.172 240.934C139.665 241.061 143.124 241.495 146.75 242.729C148.557 243.331 150.223 244.074 151.679 244.845C153.094 245.644 154.578 246.303 155.026 247.34C155.25 247.844 155.152 248.363 154.9 248.741C154.648 249.12 154.312 249.372 154.018 249.484C153.402 249.737 153.01 249.568 152.996 249.638C152.968 249.653 153.36 249.961 154.116 249.765C154.48 249.667 154.9 249.414 155.25 248.98C155.6 248.559 155.796 247.816 155.53 247.144C155.278 246.457 154.69 245.924 154.074 245.49C153.43 245.069 152.772 244.649 152.015 244.242C150.545 243.415 148.837 242.644 146.988 242.028C143.292 240.766 139.735 240.402 137.186 240.416C134.638 240.43 133.098 240.766 133.098 240.85Z" fill="#FFC2A2"/>
<path d="M132.285 248.335C132.299 248.559 137.074 248.363 142.941 248.699C148.809 249.022 153.528 249.765 153.57 249.54C153.584 249.442 152.421 249.134 150.517 248.798C148.613 248.461 145.952 248.125 142.983 247.957C140.029 247.788 137.34 247.83 135.408 247.943C133.462 248.055 132.271 248.237 132.285 248.335Z" fill="#FFC2A2"/>
<path d="M157.992 251.671C158.034 251.671 158.09 251.236 158.146 250.423C158.188 249.61 158.244 248.447 158.16 246.989C158.104 246.261 158.034 245.462 157.838 244.607C157.656 243.752 157.25 242.841 156.69 242.056C155.64 240.458 154.169 238.79 152.293 237.557C150.431 236.323 148.568 235.286 146.678 234.725C144.802 234.165 143.051 234.024 141.609 233.954C140.153 233.898 138.99 233.94 138.178 233.968C137.366 233.996 136.932 234.038 136.918 234.095C136.918 234.221 138.71 234.277 141.567 234.487C142.995 234.613 144.69 234.809 146.454 235.384C148.218 235.945 150.039 236.996 151.845 238.187C153.651 239.393 155.024 240.906 156.102 242.462C157.236 243.948 157.446 245.644 157.628 247.059C157.908 249.877 157.838 251.685 157.992 251.671Z" fill="#FFC2A2"/>
<path d="M141.051 230.38C141.051 230.492 142.801 230.534 145.602 230.857C148.304 231.277 152.617 231.474 155.082 235.188C157.742 238.58 160.011 241.775 161.005 244.396C162.055 247.003 161.957 248.812 162.111 248.798C162.153 248.798 162.223 248.349 162.181 247.55C162.153 246.751 161.971 245.574 161.495 244.214C160.599 241.439 158.344 238.131 155.67 234.725C154.984 233.87 154.241 233.057 153.387 232.413C152.533 231.754 151.539 231.375 150.629 231.109C148.78 230.591 147.072 230.436 145.658 230.324C142.815 230.142 141.051 230.282 141.051 230.38Z" fill="#FFC2A2"/>
<path d="M135.967 256.198C135.981 256.212 136.219 256.03 136.667 255.665C137.171 255.259 137.815 254.74 138.627 254.082C140.364 252.736 142.94 250.83 146.329 248.769L146.161 248.797C148.331 249.162 150.768 249.582 153.414 250.031L153.162 249.723C153.148 250.311 153.176 250.9 153.302 251.503C153.428 252.091 153.61 252.736 154.129 253.255C154.395 253.507 154.773 253.661 155.095 253.703C155.417 253.787 155.767 253.815 156.117 253.759C156.803 253.661 157.461 253.297 157.923 252.764C158.035 252.638 158.147 252.484 158.245 252.33L158.315 252.217L158.343 252.161L158.357 252.133C158.455 252.091 157.545 252.428 157.937 252.288H157.951H157.965L158.189 252.386C158.497 252.512 158.806 252.624 159.128 252.722C159.45 252.82 159.772 252.904 160.122 252.974C160.29 253.002 160.472 253.03 160.668 253.03C160.85 253.03 161.06 253.044 161.34 252.904C161.746 252.61 161.9 252.274 162.054 251.937C162.194 251.601 162.32 251.278 162.418 250.942C162.614 250.269 162.768 249.596 162.88 248.882L162.46 249.176C163.398 249.344 164.519 249.12 165.163 248.251C165.457 247.844 165.695 247.354 165.667 246.793C165.639 246.289 165.527 245.84 165.415 245.392C164.911 243.612 164.183 241.902 163.412 240.164L163.398 240.15L163.384 240.121C162.544 238.79 161.648 237.36 160.738 235.931C160.178 235.034 159.618 234.151 159.058 233.268C158.497 232.413 158.007 231.46 157.223 230.689C156.467 229.932 155.571 229.329 154.591 228.937C153.624 228.516 152.546 228.418 151.594 228.32C147.701 227.885 144.005 227.465 140.532 227.072H140.49H140.448C139.762 227.185 139.132 227.353 138.515 227.577C137.913 227.829 137.269 228.096 136.835 228.754L137.241 228.628C135.995 228.124 134.567 228.11 133.474 228.838C132.382 229.553 131.878 230.717 131.612 231.81L131.696 231.656C127.859 235.118 124.723 237.935 122.482 239.953C121.446 240.906 120.62 241.663 120.004 242.238C119.444 242.771 119.15 243.051 119.178 243.079C119.192 243.093 119.514 242.855 120.116 242.364C120.76 241.817 121.628 241.089 122.692 240.192C124.975 238.215 128.167 235.468 132.074 232.076L132.144 232.02L132.172 231.922C132.424 230.955 132.914 229.904 133.811 229.343C134.693 228.754 135.953 228.768 136.989 229.203L137.241 229.315L137.395 229.077C137.647 228.684 138.207 228.39 138.768 228.18C139.328 227.969 139.958 227.815 140.574 227.717H140.49C143.949 228.124 147.659 228.558 151.538 229.021C152.532 229.133 153.456 229.217 154.339 229.609C155.221 229.96 156.033 230.506 156.719 231.193C157.405 231.866 157.881 232.763 158.455 233.646C159.016 234.529 159.576 235.412 160.136 236.309C161.046 237.739 161.942 239.168 162.782 240.5L162.754 240.458C163.524 242.154 164.239 243.864 164.729 245.56C164.841 245.98 164.953 246.415 164.967 246.793C165.009 247.13 164.841 247.494 164.617 247.788C164.197 248.391 163.342 248.573 162.628 248.461L162.264 248.405L162.208 248.755C162.096 249.414 161.956 250.087 161.774 250.718C161.606 251.32 161.34 252.049 161.018 252.288C161.004 252.302 160.878 252.33 160.724 252.316C160.584 252.316 160.43 252.288 160.276 252.273C159.968 252.217 159.674 252.147 159.366 252.049C159.058 251.951 158.764 251.853 158.469 251.741L158.259 251.657H158.245C158.623 251.517 157.727 251.839 157.811 251.811L157.797 251.839L157.769 251.881L157.713 251.979C157.643 252.091 157.559 252.217 157.461 252.316C157.097 252.736 156.593 253.03 156.061 253.114C155.795 253.157 155.529 253.143 155.263 253.072C154.969 253.03 154.787 252.946 154.605 252.792C153.919 252.077 153.821 250.788 153.807 249.751V249.484L153.554 249.442C150.908 249.022 148.457 248.643 146.287 248.307L146.189 248.293L146.119 248.335C142.716 250.479 140.182 252.456 138.501 253.857C137.661 254.572 137.031 255.147 136.611 255.539C136.163 255.974 135.953 256.184 135.967 256.198Z" fill="#FFC2A2"/>
<path d="M246.992 206.889L156.702 207.618C153.776 207.618 150.975 209.02 150.541 211.921L140.669 277.783H94.1658C92.6675 277.783 91.4492 279.002 91.4492 280.502C91.4492 282.002 92.6675 283.221 94.1658 283.221H139.857H148.525H242.693L252.845 213.701C253.392 210.127 250.619 206.889 246.992 206.889Z" fill="#E0E0E0"/>
<path d="M246.994 206.889C246.994 206.889 247.484 206.833 248.422 207.029C249.332 207.24 250.747 207.8 251.867 209.314C252.427 210.057 252.847 211.052 252.987 212.201C253.141 213.365 252.805 214.598 252.651 215.916C252.273 218.579 251.839 221.648 251.349 225.082C249.36 238.888 246.504 258.791 242.975 283.263L242.947 283.502H242.709C204.271 283.53 153.763 283.558 98.6063 283.586C97.3041 283.586 96.0158 283.586 94.7276 283.586C94.1255 283.614 93.2993 283.572 92.6692 283.193C92.025 282.843 91.5349 282.254 91.2829 281.567C90.7368 280.194 91.3949 278.498 92.6832 277.811C93.2993 277.433 94.1254 277.404 94.7136 277.432H96.6179C101.701 277.432 106.742 277.432 111.713 277.432C121.655 277.432 131.331 277.433 140.671 277.447L140.321 277.741C143.877 254.152 147.182 232.146 150.165 212.398C150.263 211.15 150.837 209.791 151.831 208.95C152.811 208.081 154.057 207.618 155.29 207.422C156.55 207.226 157.74 207.338 158.93 207.296C160.121 207.282 161.297 207.282 162.473 207.268C167.164 207.24 171.701 207.212 176.07 207.169C184.808 207.113 192.887 207.057 200.225 207.015C214.886 206.945 226.564 206.875 234.615 206.833C238.62 206.819 241.701 206.819 243.815 206.819C244.852 206.819 245.636 206.833 246.196 206.833C246.728 206.875 246.994 206.889 246.994 206.889C246.994 206.889 246.728 206.917 246.182 206.931C245.622 206.945 244.838 206.959 243.801 206.987C241.687 207.015 238.592 207.057 234.601 207.113C226.55 207.198 214.872 207.338 200.211 207.492C192.873 207.562 184.794 207.646 176.056 207.73C171.687 207.772 167.15 207.814 162.459 207.856C161.283 207.87 160.107 207.884 158.916 207.884C157.726 207.926 156.508 207.828 155.36 208.01C154.211 208.193 153.077 208.627 152.209 209.398C151.327 210.169 150.851 211.248 150.739 212.482C147.798 232.23 144.522 254.236 140.993 277.839L140.951 278.133H140.643C131.317 278.133 121.627 278.133 111.685 278.147C106.714 278.147 101.687 278.147 96.5899 278.147H94.6856C94.0134 278.133 93.5093 278.161 93.0052 278.442C92.011 278.96 91.5209 280.25 91.941 281.301C92.1371 281.82 92.5151 282.282 93.0052 282.548C93.5093 282.843 94.0134 282.871 94.6996 282.843C95.9878 282.843 97.2761 282.843 98.5783 282.843C153.735 282.871 204.243 282.913 242.681 282.927L242.401 283.165C246.028 258.707 248.968 238.818 251.013 225.026C251.531 221.578 251.993 218.523 252.385 215.86C252.539 214.528 252.889 213.309 252.749 212.201C252.637 211.094 252.231 210.127 251.699 209.398C250.635 207.898 249.248 207.324 248.366 207.099C247.484 206.889 246.994 206.931 246.994 206.889Z" fill="#263238"/>
<path d="M198.024 249.891C201.149 249.891 203.681 247.356 203.681 244.228C203.681 241.101 201.149 238.566 198.024 238.566C194.9 238.566 192.367 241.101 192.367 244.228C192.367 247.356 194.9 249.891 198.024 249.891Z" fill="white"/>
<path d="M144.34 282.618C144.466 282.647 147.337 265.869 150.754 245.167C154.17 224.451 156.831 207.646 156.705 207.632C156.579 207.618 153.708 224.381 150.291 245.097C146.875 265.785 144.214 282.604 144.34 282.618Z" fill="#263238"/>
</g>
</g>
<defs>
<clipPath id="clip0_727_2">
<rect width="600" height="525" fill="white"/>
</clipPath>
</defs>
</svg>
